  0
SECTION
  2
HEADER
  9
$ACADVER
  1
AC1009
  9
$FILLMODE
 70
1
  9
$EXTMIN
 10
-0.0005
 20
-4.2836
 30
0.0000
  9
$EXTMAX
 10
59.5052
 20
25.4550
 30
0.0000
  0
ENDSEC
  0
SECTION
  2
TABLES
  0
TABLE
  2
LTYPE
 70
1
  0
LTYPE
  2
CONTINUOUS
 70
64
  3
Solid line
 72
65
 73
0
 40
0
  0
ENDTAB
  0
TABLE
  2
LAYER
 70
255
  0
LAYER
  2
17
 70
64
 62
94
  6
CONTINUOUS
  0
LAYER
  2
20
 70
64
 62
178
  6
CONTINUOUS
  0
LAYER
  2
21
 70
64
 62
250
  6
CONTINUOUS
  0
ENDTAB
  0
ENDSEC
  0
SECTION
  2
BLOCKS
  0
BLOCK
  8
0
  2
RECT
 70
64
 10
0.0000
 20
0.0000
 30
0.0000
  3
RECT
  0
SOLID
  8
0
 10
-0.5000
 20
-0.5000
 30
0.0000
 11
0.5000
 21
-0.5000
 31
0.0000
 12
-0.5000
 22
0.5000
 32
0.0000
 13
0.5000
 23
0.5000
 33
0.0000
  0
ENDBLK
  8
0
  0
BLOCK
  8
0
  2
PIE
 70
64
 10
0.0000
 20
0.0000
 30
0.0000
  3
PIE
  0
POLYLINE
  8
0
 66
1
 10
0.0000
 20
0.0000
 30
0.0000
 40
0.5000
 41
0.5000
 70
0
  0
VERTEX
  8
0
 10
0.0000
 20
-0.2500
 30
0.0000
 42
1.0000
  0
VERTEX
  8
0
 10
0.0000
 20
0.2500
 30
0.0000
 42
1.0000
  0
VERTEX
  8
0
 10
0.0000
 20
-0.2500
 30
0.0000
  0
SEQEND
  8
0
  0
ENDBLK
  8
0
  0
BLOCK
  8
0
  2
OCTAGONP
 70
64
 10
0.0000
 20
0.0000
 30
0.0000
  3
OCTAGONP
  0
POLYLINE
  8
0
 66
1
 10
0.0000
 20
0.0000
 30
0.0000
 40
0.5000
 41
0.5000
 70
0
  0
VERTEX
  8
0
 10
-0.2500
 20
-0.1036
 30
0.0000
  0
VERTEX
  8
0
 10
-0.2500
 20
0.1036
 30
0.0000
  0
VERTEX
  8
0
 10
-0.1036
 20
0.2500
 30
0.0000
  0
VERTEX
  8
0
 10
0.1036
 20
0.2500
 30
0.0000
  0
VERTEX
  8
0
 10
0.2500
 20
0.1036
 30
0.0000
  0
VERTEX
  8
0
 10
0.2500
 20
-0.1036
 30
0.0000
  0
VERTEX
  8
0
 10
0.1036
 20
-0.2500
 30
0.0000
  0
VERTEX
  8
0
 10
-0.1036
 20
-0.2500
 30
0.0000
  0
VERTEX
  8
0
 10
-0.2500
 20
-0.1036
 30
0.0000
  0
VERTEX
  8
0
 10
-0.2500
 20
0.1036
 30
0.0000
  0
SEQEND
  8
0
  0
ENDBLK
  8
0
  0
BLOCK
  8
0
  2
SQUAREP
 70
64
 10
0.0000
 20
0.0000
 30
0.0000
  3
SQUAREP
  0
SOLID
  8
0
 10
-0.5000
 20
-0.5000
 30
0.0000
 11
0.5000
 21
-0.5000
 31
0.0000
 12
-0.5000
 22
0.5000
 32
0.0000
 13
0.5000
 23
0.5000
 33
0.0000
  0
ENDBLK
  8
0
  0
BLOCK
  8
0
  2
ROUNDP
 70
64
 10
0.0000
 20
0.0000
 30
0.0000
  3
ROUNDP
  0
POLYLINE
  8
0
 66
1
 10
0.0000
 20
0.0000
 30
0.0000
 40
0.5000
 41
0.5000
 70
0
  0
VERTEX
  8
0
 10
0.0000
 20
-0.2500
 30
0.0000
 42
1.0000
  0
VERTEX
  8
0
 10
0.0000
 20
0.2500
 30
0.0000
 42
1.0000
  0
VERTEX
  8
0
 10
0.0000
 20
-0.2500
 30
0.0000
  0
SEQEND
  8
0
  0
ENDBLK
  8
0
  0
BLOCK
  8
0
  2
ANNULUSP
 70
64
 10
0.0000
 20
0.0000
 30
0.0000
  3
ANNULUSP
  0
POLYLINE
  8
0
 66
1
 10
0.0000
 20
0.0000
 30
0.0000
 40
0.5000
 41
0.5000
 70
0
  0
VERTEX
  8
0
 10
0.0000
 20
-0.2500
 30
0.0000
 42
1.0000
  0
VERTEX
  8
0
 10
0.0000
 20
0.2500
 30
0.0000
 42
1.0000
  0
VERTEX
  8
0
 10
0.0000
 20
-0.2500
 30
0.0000
  0
SEQEND
  8
0
  0
ENDBLK
  8
0
  0
BLOCK
  8
0
  2
THERMALP
 70
64
 10
0.0000
 20
0.0000
 30
0.0000
  3
THERMALP
  0
POLYLINE
  8
0
 66
1
 10
0.0000
 20
0.0000
 30
0.0000
 40
0.1000
 41
0.1000
 70
0
  0
VERTEX
  8
0
 10
-0.2379
 20
0.4500
 30
0.0000
  0
VERTEX
  8
0
 10
0.2379
 20
0.4500
 30
0.0000
  0
SEQEND
  8
0
  0
POLYLINE
  8
0
 66
1
 10
0.0000
 20
0.0000
 30
0.0000
 40
0.0500
 41
0.0500
 70
0
  0
VERTEX
  8
0
 10
0.2379
 20
0.4250
 30
0.0000
 42
1.0000
  0
VERTEX
  8
0
 10
0.2379
 20
0.4750
 30
0.0000
  0
SEQEND
  8
0
  0
POLYLINE
  8
0
 66
1
 10
0.0000
 20
0.0000
 30
0.0000
 40
0.0500
 41
0.0500
 70
0
  0
VERTEX
  8
0
 10
-0.2379
 20
0.4750
 30
0.0000
 42
1.0000
  0
VERTEX
  8
0
 10
-0.2379
 20
0.4250
 30
0.0000
  0
SEQEND
  8
0
  0
POLYLINE
  8
0
 66
1
 10
0.0000
 20
0.0000
 30
0.0000
 40
0.1000
 41
0.1000
 70
0
  0
VERTEX
  8
0
 10
0.4500
 20
0.2379
 30
0.0000
  0
VERTEX
  8
0
 10
0.4500
 20
-0.2379
 30
0.0000
  0
SEQEND
  8
0
  0
POLYLINE
  8
0
 66
1
 10
0.0000
 20
0.0000
 30
0.0000
 40
0.0500
 41
0.0500
 70
0
  0
VERTEX
  8
0
 10
0.4250
 20
-0.2379
 30
0.0000
 42
1.0000
  0
VERTEX
  8
0
 10
0.4750
 20
-0.2379
 30
0.0000
  0
SEQEND
  8
0
  0
POLYLINE
  8
0
 66
1
 10
0.0000
 20
0.0000
 30
0.0000
 40
0.0500
 41
0.0500
 70
0
  0
VERTEX
  8
0
 10
0.4750
 20
0.2379
 30
0.0000
 42
1.0000
  0
VERTEX
  8
0
 10
0.4250
 20
0.2379
 30
0.0000
  0
SEQEND
  8
0
  0
POLYLINE
  8
0
 66
1
 10
0.0000
 20
0.0000
 30
0.0000
 40
0.1000
 41
0.1000
 70
0
  0
VERTEX
  8
0
 10
0.2379
 20
-0.4500
 30
0.0000
  0
VERTEX
  8
0
 10
-0.2379
 20
-0.4500
 30
0.0000
  0
SEQEND
  8
0
  0
POLYLINE
  8
0
 66
1
 10
0.0000
 20
0.0000
 30
0.0000
 40
0.0500
 41
0.0500
 70
0
  0
VERTEX
  8
0
 10
-0.2379
 20
-0.4250
 30
0.0000
 42
1.0000
  0
VERTEX
  8
0
 10
-0.2379
 20
-0.4750
 30
0.0000
  0
SEQEND
  8
0
  0
POLYLINE
  8
0
 66
1
 10
0.0000
 20
0.0000
 30
0.0000
 40
0.0500
 41
0.0500
 70
0
  0
VERTEX
  8
0
 10
0.2379
 20
-0.4750
 30
0.0000
 42
1.0000
  0
VERTEX
  8
0
 10
0.2379
 20
-0.4250
 30
0.0000
  0
SEQEND
  8
0
  0
POLYLINE
  8
0
 66
1
 10
0.0000
 20
0.0000
 30
0.0000
 40
0.1000
 41
0.1000
 70
0
  0
VERTEX
  8
0
 10
-0.4500
 20
-0.2379
 30
0.0000
  0
VERTEX
  8
0
 10
-0.4500
 20
0.2379
 30
0.0000
  0
SEQEND
  8
0
  0
POLYLINE
  8
0
 66
1
 10
0.0000
 20
0.0000
 30
0.0000
 40
0.0500
 41
0.0500
 70
0
  0
VERTEX
  8
0
 10
-0.4250
 20
0.2379
 30
0.0000
 42
1.0000
  0
VERTEX
  8
0
 10
-0.4750
 20
0.2379
 30
0.0000
  0
SEQEND
  8
0
  0
POLYLINE
  8
0
 66
1
 10
0.0000
 20
0.0000
 30
0.0000
 40
0.0500
 41
0.0500
 70
0
  0
VERTEX
  8
0
 10
-0.4750
 20
-0.2379
 30
0.0000
 42
1.0000
  0
VERTEX
  8
0
 10
-0.4250
 20
-0.2379
 30
0.0000
  0
SEQEND
  8
0
  0
ENDBLK
  8
0
  0
BLOCK
  8
0
  2
OCTAGONV
 70
64
 10
0.0000
 20
0.0000
 30
0.0000
  3
OCTAGONV
  0
POLYLINE
  8
0
 66
1
 10
0.0000
 20
0.0000
 30
0.0000
 40
0.5000
 41
0.5000
 70
0
  0
VERTEX
  8
0
 10
-0.2500
 20
-0.1036
 30
0.0000
  0
VERTEX
  8
0
 10
-0.2500
 20
0.1036
 30
0.0000
  0
VERTEX
  8
0
 10
-0.1036
 20
0.2500
 30
0.0000
  0
VERTEX
  8
0
 10
0.1036
 20
0.2500
 30
0.0000
  0
VERTEX
  8
0
 10
0.2500
 20
0.1036
 30
0.0000
  0
VERTEX
  8
0
 10
0.2500
 20
-0.1036
 30
0.0000
  0
VERTEX
  8
0
 10
0.1036
 20
-0.2500
 30
0.0000
  0
VERTEX
  8
0
 10
-0.1036
 20
-0.2500
 30
0.0000
  0
VERTEX
  8
0
 10
-0.2500
 20
-0.1036
 30
0.0000
  0
VERTEX
  8
0
 10
-0.2500
 20
0.1036
 30
0.0000
  0
SEQEND
  8
0
  0
ENDBLK
  8
0
  0
BLOCK
  8
0
  2
SQUAREV
 70
64
 10
0.0000
 20
0.0000
 30
0.0000
  3
SQUAREV
  0
SOLID
  8
0
 10
-0.5000
 20
-0.5000
 30
0.0000
 11
0.5000
 21
-0.5000
 31
0.0000
 12
-0.5000
 22
0.5000
 32
0.0000
 13
0.5000
 23
0.5000
 33
0.0000
  0
ENDBLK
  8
0
  0
BLOCK
  8
0
  2
ROUNDV
 70
64
 10
0.0000
 20
0.0000
 30
0.0000
  3
ROUNDV
  0
POLYLINE
  8
0
 66
1
 10
0.0000
 20
0.0000
 30
0.0000
 40
0.5000
 41
0.5000
 70
0
  0
VERTEX
  8
0
 10
0.0000
 20
-0.2500
 30
0.0000
 42
1.0000
  0
VERTEX
  8
0
 10
0.0000
 20
0.2500
 30
0.0000
 42
1.0000
  0
VERTEX
  8
0
 10
0.0000
 20
-0.2500
 30
0.0000
  0
SEQEND
  8
0
  0
ENDBLK
  8
0
  0
BLOCK
  8
0
  2
ANNULUSV
 70
64
 10
0.0000
 20
0.0000
 30
0.0000
  3
ANNULUSV
  0
POLYLINE
  8
0
 66
1
 10
0.0000
 20
0.0000
 30
0.0000
 40
0.5000
 41
0.5000
 70
0
  0
VERTEX
  8
0
 10
0.0000
 20
-0.2500
 30
0.0000
 42
1.0000
  0
VERTEX
  8
0
 10
0.0000
 20
0.2500
 30
0.0000
 42
1.0000
  0
VERTEX
  8
0
 10
0.0000
 20
-0.2500
 30
0.0000
  0
SEQEND
  8
0
  0
ENDBLK
  8
0
  0
BLOCK
  8
0
  2
THERMALV
 70
64
 10
0.0000
 20
0.0000
 30
0.0000
  3
THERMALV
  0
POLYLINE
  8
0
 66
1
 10
0.0000
 20
0.0000
 30
0.0000
 40
0.1000
 41
0.1000
 70
0
  0
VERTEX
  8
0
 10
-0.2379
 20
0.4500
 30
0.0000
  0
VERTEX
  8
0
 10
0.2379
 20
0.4500
 30
0.0000
  0
SEQEND
  8
0
  0
POLYLINE
  8
0
 66
1
 10
0.0000
 20
0.0000
 30
0.0000
 40
0.0500
 41
0.0500
 70
0
  0
VERTEX
  8
0
 10
0.2379
 20
0.4250
 30
0.0000
 42
1.0000
  0
VERTEX
  8
0
 10
0.2379
 20
0.4750
 30
0.0000
  0
SEQEND
  8
0
  0
POLYLINE
  8
0
 66
1
 10
0.0000
 20
0.0000
 30
0.0000
 40
0.0500
 41
0.0500
 70
0
  0
VERTEX
  8
0
 10
-0.2379
 20
0.4750
 30
0.0000
 42
1.0000
  0
VERTEX
  8
0
 10
-0.2379
 20
0.4250
 30
0.0000
  0
SEQEND
  8
0
  0
POLYLINE
  8
0
 66
1
 10
0.0000
 20
0.0000
 30
0.0000
 40
0.1000
 41
0.1000
 70
0
  0
VERTEX
  8
0
 10
0.4500
 20
0.2379
 30
0.0000
  0
VERTEX
  8
0
 10
0.4500
 20
-0.2379
 30
0.0000
  0
SEQEND
  8
0
  0
POLYLINE
  8
0
 66
1
 10
0.0000
 20
0.0000
 30
0.0000
 40
0.0500
 41
0.0500
 70
0
  0
VERTEX
  8
0
 10
0.4250
 20
-0.2379
 30
0.0000
 42
1.0000
  0
VERTEX
  8
0
 10
0.4750
 20
-0.2379
 30
0.0000
  0
SEQEND
  8
0
  0
POLYLINE
  8
0
 66
1
 10
0.0000
 20
0.0000
 30
0.0000
 40
0.0500
 41
0.0500
 70
0
  0
VERTEX
  8
0
 10
0.4750
 20
0.2379
 30
0.0000
 42
1.0000
  0
VERTEX
  8
0
 10
0.4250
 20
0.2379
 30
0.0000
  0
SEQEND
  8
0
  0
POLYLINE
  8
0
 66
1
 10
0.0000
 20
0.0000
 30
0.0000
 40
0.1000
 41
0.1000
 70
0
  0
VERTEX
  8
0
 10
0.2379
 20
-0.4500
 30
0.0000
  0
VERTEX
  8
0
 10
-0.2379
 20
-0.4500
 30
0.0000
  0
SEQEND
  8
0
  0
POLYLINE
  8
0
 66
1
 10
0.0000
 20
0.0000
 30
0.0000
 40
0.0500
 41
0.0500
 70
0
  0
VERTEX
  8
0
 10
-0.2379
 20
-0.4250
 30
0.0000
 42
1.0000
  0
VERTEX
  8
0
 10
-0.2379
 20
-0.4750
 30
0.0000
  0
SEQEND
  8
0
  0
POLYLINE
  8
0
 66
1
 10
0.0000
 20
0.0000
 30
0.0000
 40
0.0500
 41
0.0500
 70
0
  0
VERTEX
  8
0
 10
0.2379
 20
-0.4750
 30
0.0000
 42
1.0000
  0
VERTEX
  8
0
 10
0.2379
 20
-0.4250
 30
0.0000
  0
SEQEND
  8
0
  0
POLYLINE
  8
0
 66
1
 10
0.0000
 20
0.0000
 30
0.0000
 40
0.1000
 41
0.1000
 70
0
  0
VERTEX
  8
0
 10
-0.4500
 20
-0.2379
 30
0.0000
  0
VERTEX
  8
0
 10
-0.4500
 20
0.2379
 30
0.0000
  0
SEQEND
  8
0
  0
POLYLINE
  8
0
 66
1
 10
0.0000
 20
0.0000
 30
0.0000
 40
0.0500
 41
0.0500
 70
0
  0
VERTEX
  8
0
 10
-0.4250
 20
0.2379
 30
0.0000
 42
1.0000
  0
VERTEX
  8
0
 10
-0.4750
 20
0.2379
 30
0.0000
  0
SEQEND
  8
0
  0
POLYLINE
  8
0
 66
1
 10
0.0000
 20
0.0000
 30
0.0000
 40
0.0500
 41
0.0500
 70
0
  0
VERTEX
  8
0
 10
-0.4750
 20
-0.2379
 30
0.0000
 42
1.0000
  0
VERTEX
  8
0
 10
-0.4250
 20
-0.2379
 30
0.0000
  0
SEQEND
  8
0
  0
ENDBLK
  8
0
  0
BLOCK
  8
0
  2
LONGP100
 70
64
 10
0.0000
 20
0.0000
 30
0.0000
  3
LONGP100
  0
POLYLINE
  8
0
 66
1
 10
0.0000
 20
0.0000
 30
0.0000
 40
1.0000
 41
1.0000
 70
0
  0
VERTEX
  8
0
 10
-0.5000
 20
0.0000
 30
0.0000
  0
VERTEX
  8
0
 10
0.5000
 20
0.0000
 30
0.0000
  0
SEQEND
  8
0
  0
POLYLINE
  8
0
 66
1
 10
0.0000
 20
0.0000
 30
0.0000
 40
0.5000
 41
0.5000
 70
0
  0
VERTEX
  8
0
 10
0.5000
 20
-0.2500
 30
0.0000
 42
1.0000
  0
VERTEX
  8
0
 10
0.5000
 20
0.2500
 30
0.0000
  0
SEQEND
  8
0
  0
POLYLINE
  8
0
 66
1
 10
0.0000
 20
0.0000
 30
0.0000
 40
0.5000
 41
0.5000
 70
0
  0
VERTEX
  8
0
 10
-0.5000
 20
0.2500
 30
0.0000
 42
1.0000
  0
VERTEX
  8
0
 10
-0.5000
 20
-0.2500
 30
0.0000
  0
SEQEND
  8
0
  0
ENDBLK
  8
0
  0
ENDSEC
  0
SECTION
  2
ENTITIES
  0
POLYLINE
  8
20
 66
1
 10
0.0000
 20
0.0000
 30
0.0000
 40
0.0010
 41
0.0010
 70
0
  0
VERTEX
  8
20
 10
0.0000
 20
16.5000
 30
0.0000
  0
VERTEX
  8
20
 10
18.0000
 20
16.5000
 30
0.0000
  0
SEQEND
  8
0
  0
POLYLINE
  8
20
 66
1
 10
0.0000
 20
0.0000
 30
0.0000
 40
0.0005
 41
0.0005
 70
0
  0
VERTEX
  8
20
 10
18.0000
 20
16.4997
 30
0.0000
 42
1.0000
  0
VERTEX
  8
20
 10
18.0000
 20
16.5003
 30
0.0000
  0
SEQEND
  8
0
  0
POLYLINE
  8
20
 66
1
 10
0.0000
 20
0.0000
 30
0.0000
 40
0.0005
 41
0.0005
 70
0
  0
VERTEX
  8
20
 10
0.0000
 20
16.5003
 30
0.0000
 42
1.0000
  0
VERTEX
  8
20
 10
0.0000
 20
16.4997
 30
0.0000
  0
SEQEND
  8
0
  0
POLYLINE
  8
20
 66
1
 10
0.0000
 20
0.0000
 30
0.0000
 40
0.0010
 41
0.0010
 70
0
  0
VERTEX
  8
20
 10
40.0000
 20
21.0000
 30
0.0000
  0
VERTEX
  8
20
 10
18.0000
 20
21.0000
 30
0.0000
  0
SEQEND
  8
0
  0
POLYLINE
  8
20
 66
1
 10
0.0000
 20
0.0000
 30
0.0000
 40
0.0005
 41
0.0005
 70
0
  0
VERTEX
  8
20
 10
18.0000
 20
21.0003
 30
0.0000
 42
1.0000
  0
VERTEX
  8
20
 10
18.0000
 20
20.9997
 30
0.0000
  0
SEQEND
  8
0
  0
POLYLINE
  8
20
 66
1
 10
0.0000
 20
0.0000
 30
0.0000
 40
0.0005
 41
0.0005
 70
0
  0
VERTEX
  8
20
 10
40.0000
 20
20.9997
 30
0.0000
 42
1.0000
  0
VERTEX
  8
20
 10
40.0000
 20
21.0003
 30
0.0000
  0
SEQEND
  8
0
  0
POLYLINE
  8
20
 66
1
 10
0.0000
 20
0.0000
 30
0.0000
 40
0.0010
 41
0.0010
 70
0
  0
VERTEX
  8
20
 10
18.0000
 20
21.0000
 30
0.0000
  0
VERTEX
  8
20
 10
18.0000
 20
16.5000
 30
0.0000
  0
SEQEND
  8
0
  0
POLYLINE
  8
20
 66
1
 10
0.0000
 20
0.0000
 30
0.0000
 40
0.0005
 41
0.0005
 70
0
  0
VERTEX
  8
20
 10
17.9997
 20
16.5000
 30
0.0000
 42
1.0000
  0
VERTEX
  8
20
 10
18.0003
 20
16.5000
 30
0.0000
  0
SEQEND
  8
0
  0
POLYLINE
  8
20
 66
1
 10
0.0000
 20
0.0000
 30
0.0000
 40
0.0005
 41
0.0005
 70
0
  0
VERTEX
  8
20
 10
18.0003
 20
21.0000
 30
0.0000
 42
1.0000
  0
VERTEX
  8
20
 10
17.9997
 20
21.0000
 30
0.0000
  0
SEQEND
  8
0
  0
POLYLINE
  8
20
 66
1
 10
0.0000
 20
0.0000
 30
0.0000
 40
0.0010
 41
0.0010
 70
0
  0
VERTEX
  8
20
 10
40.0000
 20
16.5000
 30
0.0000
  0
VERTEX
  8
20
 10
58.0000
 20
16.5000
 30
0.0000
  0
SEQEND
  8
0
  0
POLYLINE
  8
20
 66
1
 10
0.0000
 20
0.0000
 30
0.0000
 40
0.0005
 41
0.0005
 70
0
  0
VERTEX
  8
20
 10
58.0000
 20
16.4997
 30
0.0000
 42
1.0000
  0
VERTEX
  8
20
 10
58.0000
 20
16.5003
 30
0.0000
  0
SEQEND
  8
0
  0
POLYLINE
  8
20
 66
1
 10
0.0000
 20
0.0000
 30
0.0000
 40
0.0005
 41
0.0005
 70
0
  0
VERTEX
  8
20
 10
40.0000
 20
16.5003
 30
0.0000
 42
1.0000
  0
VERTEX
  8
20
 10
40.0000
 20
16.4997
 30
0.0000
  0
SEQEND
  8
0
  0
POLYLINE
  8
20
 66
1
 10
0.0000
 20
0.0000
 30
0.0000
 40
0.0010
 41
0.0010
 70
0
  0
VERTEX
  8
20
 10
40.0000
 20
21.0000
 30
0.0000
  0
VERTEX
  8
20
 10
40.0000
 20
16.5000
 30
0.0000
  0
SEQEND
  8
0
  0
POLYLINE
  8
20
 66
1
 10
0.0000
 20
0.0000
 30
0.0000
 40
0.0005
 41
0.0005
 70
0
  0
VERTEX
  8
20
 10
39.9997
 20
16.5000
 30
0.0000
 42
1.0000
  0
VERTEX
  8
20
 10
40.0003
 20
16.5000
 30
0.0000
  0
SEQEND
  8
0
  0
POLYLINE
  8
20
 66
1
 10
0.0000
 20
0.0000
 30
0.0000
 40
0.0005
 41
0.0005
 70
0
  0
VERTEX
  8
20
 10
40.0003
 20
21.0000
 30
0.0000
 42
1.0000
  0
VERTEX
  8
20
 10
39.9997
 20
21.0000
 30
0.0000
  0
SEQEND
  8
0
  0
POLYLINE
  8
20
 66
1
 10
0.0000
 20
0.0000
 30
0.0000
 40
0.0010
 41
0.0010
 70
0
  0
VERTEX
  8
20
 10
35.0000
 20
0.0000
 30
0.0000
  0
VERTEX
  8
20
 10
23.0000
 20
0.0000
 30
0.0000
  0
SEQEND
  8
0
  0
POLYLINE
  8
20
 66
1
 10
0.0000
 20
0.0000
 30
0.0000
 40
0.0005
 41
0.0005
 70
0
  0
VERTEX
  8
20
 10
23.0000
 20
0.0003
 30
0.0000
 42
1.0000
  0
VERTEX
  8
20
 10
23.0000
 20
-0.0003
 30
0.0000
  0
SEQEND
  8
0
  0
POLYLINE
  8
20
 66
1
 10
0.0000
 20
0.0000
 30
0.0000
 40
0.0005
 41
0.0005
 70
0
  0
VERTEX
  8
20
 10
35.0000
 20
-0.0003
 30
0.0000
 42
1.0000
  0
VERTEX
  8
20
 10
35.0000
 20
0.0003
 30
0.0000
  0
SEQEND
  8
0
  0
POLYLINE
  8
20
 66
1
 10
0.0000
 20
0.0000
 30
0.0000
 40
0.0010
 41
0.0010
 70
0
  0
VERTEX
  8
20
 10
0.0000
 20
16.5000
 30
0.0000
  0
VERTEX
  8
20
 10
0.0000
 20
12.5000
 30
0.0000
  0
SEQEND
  8
0
  0
POLYLINE
  8
20
 66
1
 10
0.0000
 20
0.0000
 30
0.0000
 40
0.0005
 41
0.0005
 70
0
  0
VERTEX
  8
20
 10
-0.0003
 20
12.5000
 30
0.0000
 42
1.0000
  0
VERTEX
  8
20
 10
0.0003
 20
12.5000
 30
0.0000
  0
SEQEND
  8
0
  0
POLYLINE
  8
20
 66
1
 10
0.0000
 20
0.0000
 30
0.0000
 40
0.0005
 41
0.0005
 70
0
  0
VERTEX
  8
20
 10
0.0003
 20
16.5000
 30
0.0000
 42
1.0000
  0
VERTEX
  8
20
 10
-0.0003
 20
16.5000
 30
0.0000
  0
SEQEND
  8
0
  0
POLYLINE
  8
20
 66
1
 10
0.0000
 20
0.0000
 30
0.0000
 40
0.0010
 41
0.0010
 70
0
  0
VERTEX
  8
20
 10
58.0000
 20
16.5000
 30
0.0000
  0
VERTEX
  8
20
 10
58.0000
 20
12.5000
 30
0.0000
  0
SEQEND
  8
0
  0
POLYLINE
  8
20
 66
1
 10
0.0000
 20
0.0000
 30
0.0000
 40
0.0005
 41
0.0005
 70
0
  0
VERTEX
  8
20
 10
57.9997
 20
12.5000
 30
0.0000
 42
1.0000
  0
VERTEX
  8
20
 10
58.0003
 20
12.5000
 30
0.0000
  0
SEQEND
  8
0
  0
POLYLINE
  8
20
 66
1
 10
0.0000
 20
0.0000
 30
0.0000
 40
0.0005
 41
0.0005
 70
0
  0
VERTEX
  8
20
 10
58.0003
 20
16.5000
 30
0.0000
 42
1.0000
  0
VERTEX
  8
20
 10
57.9997
 20
16.5000
 30
0.0000
  0
SEQEND
  8
0
  0
POLYLINE
  8
20
 66
1
 10
0.0000
 20
0.0000
 30
0.0000
 40
0.0010
 41
0.0010
 70
0
  0
VERTEX
  8
20
 10
10.2857
 20
4.5000
 30
0.0000
  0
VERTEX
  8
20
 10
0.0000
 20
12.5000
 30
0.0000
  0
SEQEND
  8
0
  0
POLYLINE
  8
20
 66
1
 10
0.0000
 20
0.0000
 30
0.0000
 40
0.0005
 41
0.0005
 70
0
  0
VERTEX
  8
20
 10
0.0002
 20
12.5002
 30
0.0000
 42
1.0000
  0
VERTEX
  8
20
 10
-0.0002
 20
12.4998
 30
0.0000
  0
SEQEND
  8
0
  0
POLYLINE
  8
20
 66
1
 10
0.0000
 20
0.0000
 30
0.0000
 40
0.0005
 41
0.0005
 70
0
  0
VERTEX
  8
20
 10
10.2856
 20
4.4998
 30
0.0000
 42
1.0000
  0
VERTEX
  8
20
 10
10.2859
 20
4.5002
 30
0.0000
  0
SEQEND
  8
0
  0
POLYLINE
  8
20
 66
1
 10
0.0000
 20
0.0000
 30
0.0000
 40
0.0010
 41
0.0010
 70
0
  0
VERTEX
  8
20
 10
58.0000
 20
12.5000
 30
0.0000
  0
VERTEX
  8
20
 10
47.7143
 20
4.5000
 30
0.0000
  0
SEQEND
  8
0
  0
POLYLINE
  8
20
 66
1
 10
0.0000
 20
0.0000
 30
0.0000
 40
0.0005
 41
0.0005
 70
0
  0
VERTEX
  8
20
 10
47.7141
 20
4.5002
 30
0.0000
 42
1.0000
  0
VERTEX
  8
20
 10
47.7144
 20
4.4998
 30
0.0000
  0
SEQEND
  8
0
  0
POLYLINE
  8
20
 66
1
 10
0.0000
 20
0.0000
 30
0.0000
 40
0.0005
 41
0.0005
 70
0
  0
VERTEX
  8
20
 10
58.0002
 20
12.4998
 30
0.0000
 42
1.0000
  0
VERTEX
  8
20
 10
57.9998
 20
12.5002
 30
0.0000
  0
SEQEND
  8
0
  0
POLYLINE
  8
20
 66
1
 10
0.0000
 20
0.0000
 30
0.0000
 40
0.0010
 41
0.0010
 70
0
  0
VERTEX
  8
20
 10
23.0000
 20
0.0000
 30
0.0000
  0
VERTEX
  8
20
 10
10.2857
 20
4.5000
 30
0.0000
  0
SEQEND
  8
0
  0
POLYLINE
  8
20
 66
1
 10
0.0000
 20
0.0000
 30
0.0000
 40
0.0005
 41
0.0005
 70
0
  0
VERTEX
  8
20
 10
10.2858
 20
4.5002
 30
0.0000
 42
1.0000
  0
VERTEX
  8
20
 10
10.2856
 20
4.4998
 30
0.0000
  0
SEQEND
  8
0
  0
POLYLINE
  8
20
 66
1
 10
0.0000
 20
0.0000
 30
0.0000
 40
0.0005
 41
0.0005
 70
0
  0
VERTEX
  8
20
 10
22.9999
 20
-0.0002
 30
0.0000
 42
1.0000
  0
VERTEX
  8
20
 10
23.0001
 20
0.0002
 30
0.0000
  0
SEQEND
  8
0
  0
POLYLINE
  8
20
 66
1
 10
0.0000
 20
0.0000
 30
0.0000
 40
0.0010
 41
0.0010
 70
0
  0
VERTEX
  8
20
 10
35.0000
 20
0.0000
 30
0.0000
  0
VERTEX
  8
20
 10
47.7143
 20
4.5000
 30
0.0000
  0
SEQEND
  8
0
  0
POLYLINE
  8
20
 66
1
 10
0.0000
 20
0.0000
 30
0.0000
 40
0.0005
 41
0.0005
 70
0
  0
VERTEX
  8
20
 10
47.7144
 20
4.4998
 30
0.0000
 42
1.0000
  0
VERTEX
  8
20
 10
47.7142
 20
4.5002
 30
0.0000
  0
SEQEND
  8
0
  0
POLYLINE
  8
20
 66
1
 10
0.0000
 20
0.0000
 30
0.0000
 40
0.0005
 41
0.0005
 70
0
  0
VERTEX
  8
20
 10
34.9999
 20
0.0002
 30
0.0000
 42
1.0000
  0
VERTEX
  8
20
 10
35.0001
 20
-0.0002
 30
0.0000
  0
SEQEND
  8
0
  0
POLYLINE
  8
20
 66
1
 10
0.0000
 20
0.0000
 30
0.0000
 40
0.0010
 41
0.0010
 70
0
  0
VERTEX
  8
20
 10
21.0000
 20
16.5000
 30
0.0000
 42
1.0000
  0
VERTEX
  8
20
 10
21.0000
 20
19.5000
 30
0.0000
 42
1.0000
  0
VERTEX
  8
20
 10
21.0000
 20
16.5000
 30
0.0000
  0
SEQEND
  8
0
  0
POLYLINE
  8
20
 66
1
 10
0.0000
 20
0.0000
 30
0.0000
 40
0.0010
 41
0.0010
 70
0
  0
VERTEX
  8
20
 10
37.0000
 20
16.5000
 30
0.0000
 42
1.0000
  0
VERTEX
  8
20
 10
37.0000
 20
19.5000
 30
0.0000
 42
1.0000
  0
VERTEX
  8
20
 10
37.0000
 20
16.5000
 30
0.0000
  0
SEQEND
  8
0
  0
POLYLINE
  8
20
 66
1
 10
0.0000
 20
0.0000
 30
0.0000
 40
0.0010
 41
0.0010
 70
0
  0
VERTEX
  8
20
 10
55.0000
 20
12.0000
 30
0.0000
 42
1.0000
  0
VERTEX
  8
20
 10
55.0000
 20
15.0000
 30
0.0000
 42
1.0000
  0
VERTEX
  8
20
 10
55.0000
 20
12.0000
 30
0.0000
  0
SEQEND
  8
0
  0
POLYLINE
  8
20
 66
1
 10
0.0000
 20
0.0000
 30
0.0000
 40
0.0010
 41
0.0010
 70
0
  0
VERTEX
  8
20
 10
3.0000
 20
12.0000
 30
0.0000
 42
1.0000
  0
VERTEX
  8
20
 10
3.0000
 20
15.0000
 30
0.0000
 42
1.0000
  0
VERTEX
  8
20
 10
3.0000
 20
12.0000
 30
0.0000
  0
SEQEND
  8
0
  0
POLYLINE
  8
20
 66
1
 10
0.0000
 20
0.0000
 30
0.0000
 40
0.0010
 41
0.0010
 70
0
  0
VERTEX
  8
20
 10
21.0000
 20
2.5000
 30
0.0000
 42
1.0000
  0
VERTEX
  8
20
 10
21.0000
 20
5.5000
 30
0.0000
 42
1.0000
  0
VERTEX
  8
20
 10
21.0000
 20
2.5000
 30
0.0000
  0
SEQEND
  8
0
  0
POLYLINE
  8
20
 66
1
 10
0.0000
 20
0.0000
 30
0.0000
 40
0.0010
 41
0.0010
 70
0
  0
VERTEX
  8
20
 10
37.0000
 20
2.5000
 30
0.0000
 42
1.0000
  0
VERTEX
  8
20
 10
37.0000
 20
5.5000
 30
0.0000
 42
1.0000
  0
VERTEX
  8
20
 10
37.0000
 20
2.5000
 30
0.0000
  0
SEQEND
  8
0
  0
CIRCLE
  8
20
 10
3.0000
 20
13.5000
 30
0.0000
 40
1.4000
  0
CIRCLE
  8
20
 10
37.0000
 20
18.0000
 30
0.0000
 40
1.4000
  0
CIRCLE
  8
20
 10
21.0000
 20
18.0000
 30
0.0000
 40
1.4000
  0
CIRCLE
  8
20
 10
37.0000
 20
4.0000
 30
0.0000
 40
1.4000
  0
CIRCLE
  8
20
 10
55.0000
 20
13.5000
 30
0.0000
 40
1.4000
  0
CIRCLE
  8
20
 10
21.0000
 20
4.0000
 30
0.0000
 40
1.4000
  0
INSERT
  8
17
  2
LONGP100
 10
27.7950
 20
17.8350
 30
0.0000
 41
1.5240
 42
1.5240
 43
1.0000
 50
270.0000
  0
INSERT
  8
17
  2
LONGP100
 10
27.7950
 20
17.8350
 30
0.0000
 41
1.5240
 42
1.5240
 43
1.0000
 50
270.0000
  0
INSERT
  8
17
  2
LONGP100
 10
30.3350
 20
17.8350
 30
0.0000
 41
1.5240
 42
1.5240
 43
1.0000
 50
270.0000
  0
INSERT
  8
17
  2
LONGP100
 10
30.3350
 20
17.8350
 30
0.0000
 41
1.5240
 42
1.5240
 43
1.0000
 50
270.0000
  0
INSERT
  8
17
  2
LONGP100
 10
32.8750
 20
17.8350
 30
0.0000
 41
1.5240
 42
1.5240
 43
1.0000
 50
270.0000
  0
INSERT
  8
17
  2
LONGP100
 10
32.8750
 20
17.8350
 30
0.0000
 41
1.5240
 42
1.5240
 43
1.0000
 50
270.0000
  0
POLYLINE
  8
21
 66
1
 10
0.0000
 20
0.0000
 30
0.0000
 40
0.1524
 41
0.1524
 70
0
  0
VERTEX
  8
21
 10
26.1050
 20
13.4630
 30
0.0000
  0
VERTEX
  8
21
 10
26.3590
 20
13.4630
 30
0.0000
  0
SEQEND
  8
0
  0
POLYLINE
  8
21
 66
1
 10
0.0000
 20
0.0000
 30
0.0000
 40
0.0762
 41
0.0762
 70
0
  0
VERTEX
  8
21
 10
26.3590
 20
13.4249
 30
0.0000
 42
1.0000
  0
VERTEX
  8
21
 10
26.3590
 20
13.5011
 30
0.0000
  0
SEQEND
  8
0
  0
POLYLINE
  8
21
 66
1
 10
0.0000
 20
0.0000
 30
0.0000
 40
0.0762
 41
0.0762
 70
0
  0
VERTEX
  8
21
 10
26.1050
 20
13.5011
 30
0.0000
 42
1.0000
  0
VERTEX
  8
21
 10
26.1050
 20
13.4249
 30
0.0000
  0
SEQEND
  8
0
  0
POLYLINE
  8
21
 66
1
 10
0.0000
 20
0.0000
 30
0.0000
 40
0.1524
 41
0.1524
 70
0
  0
VERTEX
  8
21
 10
26.1050
 20
13.4630
 30
0.0000
  0
VERTEX
  8
21
 10
26.1050
 20
11.9390
 30
0.0000
  0
SEQEND
  8
0
  0
POLYLINE
  8
21
 66
1
 10
0.0000
 20
0.0000
 30
0.0000
 40
0.0762
 41
0.0762
 70
0
  0
VERTEX
  8
21
 10
26.0669
 20
11.9390
 30
0.0000
 42
1.0000
  0
VERTEX
  8
21
 10
26.1431
 20
11.9390
 30
0.0000
  0
SEQEND
  8
0
  0
POLYLINE
  8
21
 66
1
 10
0.0000
 20
0.0000
 30
0.0000
 40
0.0762
 41
0.0762
 70
0
  0
VERTEX
  8
21
 10
26.1431
 20
13.4630
 30
0.0000
 42
1.0000
  0
VERTEX
  8
21
 10
26.0669
 20
13.4630
 30
0.0000
  0
SEQEND
  8
0
  0
POLYLINE
  8
21
 66
1
 10
0.0000
 20
0.0000
 30
0.0000
 40
0.1524
 41
0.1524
 70
0
  0
VERTEX
  8
21
 10
26.3590
 20
11.9390
 30
0.0000
  0
VERTEX
  8
21
 10
26.1050
 20
11.9390
 30
0.0000
  0
SEQEND
  8
0
  0
POLYLINE
  8
21
 66
1
 10
0.0000
 20
0.0000
 30
0.0000
 40
0.0762
 41
0.0762
 70
0
  0
VERTEX
  8
21
 10
26.1050
 20
11.9771
 30
0.0000
 42
1.0000
  0
VERTEX
  8
21
 10
26.1050
 20
11.9009
 30
0.0000
  0
SEQEND
  8
0
  0
POLYLINE
  8
21
 66
1
 10
0.0000
 20
0.0000
 30
0.0000
 40
0.0762
 41
0.0762
 70
0
  0
VERTEX
  8
21
 10
26.3590
 20
11.9009
 30
0.0000
 42
1.0000
  0
VERTEX
  8
21
 10
26.3590
 20
11.9771
 30
0.0000
  0
SEQEND
  8
0
  0
POLYLINE
  8
21
 66
1
 10
0.0000
 20
0.0000
 30
0.0000
 40
0.1524
 41
0.1524
 70
0
  0
VERTEX
  8
21
 10
32.7090
 20
11.9390
 30
0.0000
  0
VERTEX
  8
21
 10
32.4550
 20
11.9390
 30
0.0000
  0
SEQEND
  8
0
  0
POLYLINE
  8
21
 66
1
 10
0.0000
 20
0.0000
 30
0.0000
 40
0.0762
 41
0.0762
 70
0
  0
VERTEX
  8
21
 10
32.4550
 20
11.9771
 30
0.0000
 42
1.0000
  0
VERTEX
  8
21
 10
32.4550
 20
11.9009
 30
0.0000
  0
SEQEND
  8
0
  0
POLYLINE
  8
21
 66
1
 10
0.0000
 20
0.0000
 30
0.0000
 40
0.0762
 41
0.0762
 70
0
  0
VERTEX
  8
21
 10
32.7090
 20
11.9009
 30
0.0000
 42
1.0000
  0
VERTEX
  8
21
 10
32.7090
 20
11.9771
 30
0.0000
  0
SEQEND
  8
0
  0
POLYLINE
  8
21
 66
1
 10
0.0000
 20
0.0000
 30
0.0000
 40
0.1524
 41
0.1524
 70
0
  0
VERTEX
  8
21
 10
32.7090
 20
11.9390
 30
0.0000
  0
VERTEX
  8
21
 10
32.7090
 20
13.4630
 30
0.0000
  0
SEQEND
  8
0
  0
POLYLINE
  8
21
 66
1
 10
0.0000
 20
0.0000
 30
0.0000
 40
0.0762
 41
0.0762
 70
0
  0
VERTEX
  8
21
 10
32.7471
 20
13.4630
 30
0.0000
 42
1.0000
  0
VERTEX
  8
21
 10
32.6709
 20
13.4630
 30
0.0000
  0
SEQEND
  8
0
  0
POLYLINE
  8
21
 66
1
 10
0.0000
 20
0.0000
 30
0.0000
 40
0.0762
 41
0.0762
 70
0
  0
VERTEX
  8
21
 10
32.6709
 20
11.9390
 30
0.0000
 42
1.0000
  0
VERTEX
  8
21
 10
32.7471
 20
11.9390
 30
0.0000
  0
SEQEND
  8
0
  0
POLYLINE
  8
21
 66
1
 10
0.0000
 20
0.0000
 30
0.0000
 40
0.1524
 41
0.1524
 70
0
  0
VERTEX
  8
21
 10
32.4550
 20
13.4630
 30
0.0000
  0
VERTEX
  8
21
 10
32.7090
 20
13.4630
 30
0.0000
  0
SEQEND
  8
0
  0
POLYLINE
  8
21
 66
1
 10
0.0000
 20
0.0000
 30
0.0000
 40
0.0762
 41
0.0762
 70
0
  0
VERTEX
  8
21
 10
32.7090
 20
13.4249
 30
0.0000
 42
1.0000
  0
VERTEX
  8
21
 10
32.7090
 20
13.5011
 30
0.0000
  0
SEQEND
  8
0
  0
POLYLINE
  8
21
 66
1
 10
0.0000
 20
0.0000
 30
0.0000
 40
0.0762
 41
0.0762
 70
0
  0
VERTEX
  8
21
 10
32.4550
 20
13.5011
 30
0.0000
 42
1.0000
  0
VERTEX
  8
21
 10
32.4550
 20
13.4249
 30
0.0000
  0
SEQEND
  8
0
  0
POLYLINE
  8
21
 66
1
 10
0.0000
 20
0.0000
 30
0.0000
 40
0.0508
 41
0.0508
 70
0
  0
VERTEX
  8
21
 10
30.6770
 20
9.6530
 30
0.0000
  0
VERTEX
  8
21
 10
30.6770
 20
9.9070
 30
0.0000
  0
SEQEND
  8
0
  0
POLYLINE
  8
21
 66
1
 10
0.0000
 20
0.0000
 30
0.0000
 40
0.0254
 41
0.0254
 70
0
  0
VERTEX
  8
21
 10
30.6897
 20
9.9070
 30
0.0000
 42
1.0000
  0
VERTEX
  8
21
 10
30.6643
 20
9.9070
 30
0.0000
  0
SEQEND
  8
0
  0
POLYLINE
  8
21
 66
1
 10
0.0000
 20
0.0000
 30
0.0000
 40
0.0254
 41
0.0254
 70
0
  0
VERTEX
  8
21
 10
30.6643
 20
9.6530
 30
0.0000
 42
1.0000
  0
VERTEX
  8
21
 10
30.6897
 20
9.6530
 30
0.0000
  0
SEQEND
  8
0
  0
POLYLINE
  8
21
 66
1
 10
0.0000
 20
0.0000
 30
0.0000
 40
0.0508
 41
0.0508
 70
0
  0
VERTEX
  8
21
 10
28.1370
 20
9.9070
 30
0.0000
  0
VERTEX
  8
21
 10
30.6770
 20
9.9070
 30
0.0000
  0
SEQEND
  8
0
  0
POLYLINE
  8
21
 66
1
 10
0.0000
 20
0.0000
 30
0.0000
 40
0.0254
 41
0.0254
 70
0
  0
VERTEX
  8
21
 10
30.6770
 20
9.8943
 30
0.0000
 42
1.0000
  0
VERTEX
  8
21
 10
30.6770
 20
9.9197
 30
0.0000
  0
SEQEND
  8
0
  0
POLYLINE
  8
21
 66
1
 10
0.0000
 20
0.0000
 30
0.0000
 40
0.0254
 41
0.0254
 70
0
  0
VERTEX
  8
21
 10
28.1370
 20
9.9197
 30
0.0000
 42
1.0000
  0
VERTEX
  8
21
 10
28.1370
 20
9.8943
 30
0.0000
  0
SEQEND
  8
0
  0
POLYLINE
  8
21
 66
1
 10
0.0000
 20
0.0000
 30
0.0000
 40
0.0508
 41
0.0508
 70
0
  0
VERTEX
  8
21
 10
28.1370
 20
9.9070
 30
0.0000
  0
VERTEX
  8
21
 10
28.1370
 20
9.6530
 30
0.0000
  0
SEQEND
  8
0
  0
POLYLINE
  8
21
 66
1
 10
0.0000
 20
0.0000
 30
0.0000
 40
0.0254
 41
0.0254
 70
0
  0
VERTEX
  8
21
 10
28.1243
 20
9.6530
 30
0.0000
 42
1.0000
  0
VERTEX
  8
21
 10
28.1497
 20
9.6530
 30
0.0000
  0
SEQEND
  8
0
  0
POLYLINE
  8
21
 66
1
 10
0.0000
 20
0.0000
 30
0.0000
 40
0.0254
 41
0.0254
 70
0
  0
VERTEX
  8
21
 10
28.1497
 20
9.9070
 30
0.0000
 42
1.0000
  0
VERTEX
  8
21
 10
28.1243
 20
9.9070
 30
0.0000
  0
SEQEND
  8
0
  0
POLYLINE
  8
21
 66
1
 10
0.0000
 20
0.0000
 30
0.0000
 40
0.0508
 41
0.0508
 70
0
  0
VERTEX
  8
21
 10
28.2640
 20
15.4950
 30
0.0000
  0
VERTEX
  8
21
 10
30.6770
 20
15.4950
 30
0.0000
  0
SEQEND
  8
0
  0
POLYLINE
  8
21
 66
1
 10
0.0000
 20
0.0000
 30
0.0000
 40
0.0254
 41
0.0254
 70
0
  0
VERTEX
  8
21
 10
30.6770
 20
15.4823
 30
0.0000
 42
1.0000
  0
VERTEX
  8
21
 10
30.6770
 20
15.5077
 30
0.0000
  0
SEQEND
  8
0
  0
POLYLINE
  8
21
 66
1
 10
0.0000
 20
0.0000
 30
0.0000
 40
0.0254
 41
0.0254
 70
0
  0
VERTEX
  8
21
 10
28.2640
 20
15.5077
 30
0.0000
 42
1.0000
  0
VERTEX
  8
21
 10
28.2640
 20
15.4823
 30
0.0000
  0
SEQEND
  8
0
  0
POLYLINE
  8
21
 66
1
 10
0.0000
 20
0.0000
 30
0.0000
 40
0.0508
 41
0.0508
 70
0
  0
VERTEX
  8
21
 10
28.2640
 20
15.4950
 30
0.0000
  0
VERTEX
  8
21
 10
28.2640
 20
15.7490
 30
0.0000
  0
SEQEND
  8
0
  0
POLYLINE
  8
21
 66
1
 10
0.0000
 20
0.0000
 30
0.0000
 40
0.0254
 41
0.0254
 70
0
  0
VERTEX
  8
21
 10
28.2767
 20
15.7490
 30
0.0000
 42
1.0000
  0
VERTEX
  8
21
 10
28.2513
 20
15.7490
 30
0.0000
  0
SEQEND
  8
0
  0
POLYLINE
  8
21
 66
1
 10
0.0000
 20
0.0000
 30
0.0000
 40
0.0254
 41
0.0254
 70
0
  0
VERTEX
  8
21
 10
28.2513
 20
15.4950
 30
0.0000
 42
1.0000
  0
VERTEX
  8
21
 10
28.2767
 20
15.4950
 30
0.0000
  0
SEQEND
  8
0
  0
POLYLINE
  8
21
 66
1
 10
0.0000
 20
0.0000
 30
0.0000
 40
0.0508
 41
0.0508
 70
0
  0
VERTEX
  8
21
 10
30.6770
 20
15.4950
 30
0.0000
  0
VERTEX
  8
21
 10
30.6770
 20
15.7490
 30
0.0000
  0
SEQEND
  8
0
  0
POLYLINE
  8
21
 66
1
 10
0.0000
 20
0.0000
 30
0.0000
 40
0.0254
 41
0.0254
 70
0
  0
VERTEX
  8
21
 10
30.6897
 20
15.7490
 30
0.0000
 42
1.0000
  0
VERTEX
  8
21
 10
30.6643
 20
15.7490
 30
0.0000
  0
SEQEND
  8
0
  0
POLYLINE
  8
21
 66
1
 10
0.0000
 20
0.0000
 30
0.0000
 40
0.0254
 41
0.0254
 70
0
  0
VERTEX
  8
21
 10
30.6643
 20
15.4950
 30
0.0000
 42
1.0000
  0
VERTEX
  8
21
 10
30.6897
 20
15.4950
 30
0.0000
  0
SEQEND
  8
0
  0
POLYLINE
  8
21
 66
1
 10
0.0000
 20
0.0000
 30
0.0000
 40
0.1524
 41
0.1524
 70
0
  0
VERTEX
  8
21
 10
31.5660
 20
15.7490
 30
0.0000
  0
VERTEX
  8
21
 10
30.6770
 20
15.7490
 30
0.0000
  0
SEQEND
  8
0
  0
POLYLINE
  8
21
 66
1
 10
0.0000
 20
0.0000
 30
0.0000
 40
0.0762
 41
0.0762
 70
0
  0
VERTEX
  8
21
 10
30.6770
 20
15.7871
 30
0.0000
 42
1.0000
  0
VERTEX
  8
21
 10
30.6770
 20
15.7109
 30
0.0000
  0
SEQEND
  8
0
  0
POLYLINE
  8
21
 66
1
 10
0.0000
 20
0.0000
 30
0.0000
 40
0.0762
 41
0.0762
 70
0
  0
VERTEX
  8
21
 10
31.5660
 20
15.7109
 30
0.0000
 42
1.0000
  0
VERTEX
  8
21
 10
31.5660
 20
15.7871
 30
0.0000
  0
SEQEND
  8
0
  0
POLYLINE
  8
21
 66
1
 10
0.0000
 20
0.0000
 30
0.0000
 40
0.1524
 41
0.1524
 70
0
  0
VERTEX
  8
21
 10
27.2480
 20
9.6530
 30
0.0000
  0
VERTEX
  8
21
 10
28.1370
 20
9.6530
 30
0.0000
  0
SEQEND
  8
0
  0
POLYLINE
  8
21
 66
1
 10
0.0000
 20
0.0000
 30
0.0000
 40
0.0762
 41
0.0762
 70
0
  0
VERTEX
  8
21
 10
28.1370
 20
9.6149
 30
0.0000
 42
1.0000
  0
VERTEX
  8
21
 10
28.1370
 20
9.6911
 30
0.0000
  0
SEQEND
  8
0
  0
POLYLINE
  8
21
 66
1
 10
0.0000
 20
0.0000
 30
0.0000
 40
0.0762
 41
0.0762
 70
0
  0
VERTEX
  8
21
 10
27.2480
 20
9.6911
 30
0.0000
 42
1.0000
  0
VERTEX
  8
21
 10
27.2480
 20
9.6149
 30
0.0000
  0
SEQEND
  8
0
  0
POLYLINE
  8
21
 66
1
 10
0.0000
 20
0.0000
 30
0.0000
 40
0.1524
 41
0.1524
 70
0
  0
VERTEX
  8
21
 10
28.1370
 20
9.6530
 30
0.0000
  0
VERTEX
  8
21
 10
30.6770
 20
9.6530
 30
0.0000
  0
SEQEND
  8
0
  0
POLYLINE
  8
21
 66
1
 10
0.0000
 20
0.0000
 30
0.0000
 40
0.0762
 41
0.0762
 70
0
  0
VERTEX
  8
21
 10
30.6770
 20
9.6149
 30
0.0000
 42
1.0000
  0
VERTEX
  8
21
 10
30.6770
 20
9.6911
 30
0.0000
  0
SEQEND
  8
0
  0
POLYLINE
  8
21
 66
1
 10
0.0000
 20
0.0000
 30
0.0000
 40
0.0762
 41
0.0762
 70
0
  0
VERTEX
  8
21
 10
28.1370
 20
9.6911
 30
0.0000
 42
1.0000
  0
VERTEX
  8
21
 10
28.1370
 20
9.6149
 30
0.0000
  0
SEQEND
  8
0
  0
POLYLINE
  8
21
 66
1
 10
0.0000
 20
0.0000
 30
0.0000
 40
0.1524
 41
0.1524
 70
0
  0
VERTEX
  8
21
 10
30.6770
 20
9.6530
 30
0.0000
  0
VERTEX
  8
21
 10
31.5660
 20
9.6530
 30
0.0000
  0
SEQEND
  8
0
  0
POLYLINE
  8
21
 66
1
 10
0.0000
 20
0.0000
 30
0.0000
 40
0.0762
 41
0.0762
 70
0
  0
VERTEX
  8
21
 10
31.5660
 20
9.6149
 30
0.0000
 42
1.0000
  0
VERTEX
  8
21
 10
31.5660
 20
9.6911
 30
0.0000
  0
SEQEND
  8
0
  0
POLYLINE
  8
21
 66
1
 10
0.0000
 20
0.0000
 30
0.0000
 40
0.0762
 41
0.0762
 70
0
  0
VERTEX
  8
21
 10
30.6770
 20
9.6911
 30
0.0000
 42
1.0000
  0
VERTEX
  8
21
 10
30.6770
 20
9.6149
 30
0.0000
  0
SEQEND
  8
0
  0
POLYLINE
  8
21
 66
1
 10
0.0000
 20
0.0000
 30
0.0000
 40
0.1524
 41
0.1524
 70
0
  0
VERTEX
  8
21
 10
30.6770
 20
15.7490
 30
0.0000
  0
VERTEX
  8
21
 10
28.2640
 20
15.7490
 30
0.0000
  0
SEQEND
  8
0
  0
POLYLINE
  8
21
 66
1
 10
0.0000
 20
0.0000
 30
0.0000
 40
0.0762
 41
0.0762
 70
0
  0
VERTEX
  8
21
 10
28.2640
 20
15.7871
 30
0.0000
 42
1.0000
  0
VERTEX
  8
21
 10
28.2640
 20
15.7109
 30
0.0000
  0
SEQEND
  8
0
  0
POLYLINE
  8
21
 66
1
 10
0.0000
 20
0.0000
 30
0.0000
 40
0.0762
 41
0.0762
 70
0
  0
VERTEX
  8
21
 10
30.6770
 20
15.7109
 30
0.0000
 42
1.0000
  0
VERTEX
  8
21
 10
30.6770
 20
15.7871
 30
0.0000
  0
SEQEND
  8
0
  0
POLYLINE
  8
21
 66
1
 10
0.0000
 20
0.0000
 30
0.0000
 40
0.1524
 41
0.1524
 70
0
  0
VERTEX
  8
21
 10
28.2640
 20
15.7490
 30
0.0000
  0
VERTEX
  8
21
 10
27.2480
 20
15.7490
 30
0.0000
  0
SEQEND
  8
0
  0
POLYLINE
  8
21
 66
1
 10
0.0000
 20
0.0000
 30
0.0000
 40
0.0762
 41
0.0762
 70
0
  0
VERTEX
  8
21
 10
27.2480
 20
15.7871
 30
0.0000
 42
1.0000
  0
VERTEX
  8
21
 10
27.2480
 20
15.7109
 30
0.0000
  0
SEQEND
  8
0
  0
POLYLINE
  8
21
 66
1
 10
0.0000
 20
0.0000
 30
0.0000
 40
0.0762
 41
0.0762
 70
0
  0
VERTEX
  8
21
 10
28.2640
 20
15.7109
 30
0.0000
 42
1.0000
  0
VERTEX
  8
21
 10
28.2640
 20
15.7871
 30
0.0000
  0
SEQEND
  8
0
  0
POLYLINE
  8
21
 66
1
 10
0.0000
 20
0.0000
 30
0.0000
 40
0.1524
 41
0.1524
 70
0
  0
VERTEX
  8
21
 10
26.3590
 20
13.4630
 30
0.0000
  0
VERTEX
  8
21
 10
26.3590
 20
13.7170
 30
0.0000
  0
SEQEND
  8
0
  0
POLYLINE
  8
21
 66
1
 10
0.0000
 20
0.0000
 30
0.0000
 40
0.0762
 41
0.0762
 70
0
  0
VERTEX
  8
21
 10
26.3971
 20
13.7170
 30
0.0000
 42
1.0000
  0
VERTEX
  8
21
 10
26.3209
 20
13.7170
 30
0.0000
  0
SEQEND
  8
0
  0
POLYLINE
  8
21
 66
1
 10
0.0000
 20
0.0000
 30
0.0000
 40
0.0762
 41
0.0762
 70
0
  0
VERTEX
  8
21
 10
26.3209
 20
13.4630
 30
0.0000
 42
1.0000
  0
VERTEX
  8
21
 10
26.3971
 20
13.4630
 30
0.0000
  0
SEQEND
  8
0
  0
POLYLINE
  8
21
 66
1
 10
0.0000
 20
0.0000
 30
0.0000
 40
0.1524
 41
0.1524
 70
0
  0
VERTEX
  8
21
 10
26.3590
 20
11.9390
 30
0.0000
  0
VERTEX
  8
21
 10
26.3590
 20
11.6850
 30
0.0000
  0
SEQEND
  8
0
  0
POLYLINE
  8
21
 66
1
 10
0.0000
 20
0.0000
 30
0.0000
 40
0.0762
 41
0.0762
 70
0
  0
VERTEX
  8
21
 10
26.3209
 20
11.6850
 30
0.0000
 42
1.0000
  0
VERTEX
  8
21
 10
26.3971
 20
11.6850
 30
0.0000
  0
SEQEND
  8
0
  0
POLYLINE
  8
21
 66
1
 10
0.0000
 20
0.0000
 30
0.0000
 40
0.0762
 41
0.0762
 70
0
  0
VERTEX
  8
21
 10
26.3971
 20
11.9390
 30
0.0000
 42
1.0000
  0
VERTEX
  8
21
 10
26.3209
 20
11.9390
 30
0.0000
  0
SEQEND
  8
0
  0
POLYLINE
  8
21
 66
1
 10
0.0000
 20
0.0000
 30
0.0000
 40
0.1524
 41
0.1524
 70
0
  0
VERTEX
  8
21
 10
32.4550
 20
13.4630
 30
0.0000
  0
VERTEX
  8
21
 10
32.4550
 20
13.7170
 30
0.0000
  0
SEQEND
  8
0
  0
POLYLINE
  8
21
 66
1
 10
0.0000
 20
0.0000
 30
0.0000
 40
0.0762
 41
0.0762
 70
0
  0
VERTEX
  8
21
 10
32.4931
 20
13.7170
 30
0.0000
 42
1.0000
  0
VERTEX
  8
21
 10
32.4169
 20
13.7170
 30
0.0000
  0
SEQEND
  8
0
  0
POLYLINE
  8
21
 66
1
 10
0.0000
 20
0.0000
 30
0.0000
 40
0.0762
 41
0.0762
 70
0
  0
VERTEX
  8
21
 10
32.4169
 20
13.4630
 30
0.0000
 42
1.0000
  0
VERTEX
  8
21
 10
32.4931
 20
13.4630
 30
0.0000
  0
SEQEND
  8
0
  0
POLYLINE
  8
21
 66
1
 10
0.0000
 20
0.0000
 30
0.0000
 40
0.1524
 41
0.1524
 70
0
  0
VERTEX
  8
21
 10
32.4550
 20
11.9390
 30
0.0000
  0
VERTEX
  8
21
 10
32.4550
 20
11.6850
 30
0.0000
  0
SEQEND
  8
0
  0
POLYLINE
  8
21
 66
1
 10
0.0000
 20
0.0000
 30
0.0000
 40
0.0762
 41
0.0762
 70
0
  0
VERTEX
  8
21
 10
32.4169
 20
11.6850
 30
0.0000
 42
1.0000
  0
VERTEX
  8
21
 10
32.4931
 20
11.6850
 30
0.0000
  0
SEQEND
  8
0
  0
POLYLINE
  8
21
 66
1
 10
0.0000
 20
0.0000
 30
0.0000
 40
0.0762
 41
0.0762
 70
0
  0
VERTEX
  8
21
 10
32.4931
 20
11.9390
 30
0.0000
 42
1.0000
  0
VERTEX
  8
21
 10
32.4169
 20
11.9390
 30
0.0000
  0
SEQEND
  8
0
  0
POLYLINE
  8
21
 66
1
 10
0.0000
 20
0.0000
 30
0.0000
 40
0.1524
 41
0.1524
 70
0
  0
VERTEX
  8
21
 10
29.4070
 20
10.9230
 30
0.0000
 42
1.0000
  0
VERTEX
  8
21
 10
29.4070
 20
14.4790
 30
0.0000
 42
1.0000
  0
VERTEX
  8
21
 10
29.4070
 20
10.9230
 30
0.0000
  0
SEQEND
  8
0
  0
POLYLINE
  8
21
 66
1
 10
0.0000
 20
0.0000
 30
0.0000
 40
0.1524
 41
0.1524
 70
0
  0
VERTEX
  8
21
 10
29.4070
 20
12.4470
 30
0.0000
 42
1.0000
  0
VERTEX
  8
21
 10
29.4070
 20
12.9550
 30
0.0000
 42
1.0000
  0
VERTEX
  8
21
 10
29.4070
 20
12.4470
 30
0.0000
  0
SEQEND
  8
0
  0
INSERT
  8
17
  2
LONGP100
 10
32.6582
 20
10.4404
 30
0.0000
 41
1.5240
 42
1.5240
 43
1.0000
 50
180.0000
  0
INSERT
  8
17
  2
LONGP100
 10
32.6582
 20
10.4404
 30
0.0000
 41
1.5240
 42
1.5240
 43
1.0000
 50
180.0000
  0
INSERT
  8
17
  2
LONGP100
 10
26.1558
 20
10.4404
 30
0.0000
 41
1.5240
 42
1.5240
 43
1.0000
 50
180.0000
  0
INSERT
  8
17
  2
LONGP100
 10
26.1558
 20
10.4404
 30
0.0000
 41
1.5240
 42
1.5240
 43
1.0000
 50
180.0000
  0
INSERT
  8
17
  2
LONGP100
 10
32.6582
 20
14.9616
 30
0.0000
 41
1.5240
 42
1.5240
 43
1.0000
 50
180.0000
  0
INSERT
  8
17
  2
LONGP100
 10
32.6582
 20
14.9616
 30
0.0000
 41
1.5240
 42
1.5240
 43
1.0000
 50
180.0000
  0
INSERT
  8
17
  2
LONGP100
 10
26.1558
 20
14.9616
 30
0.0000
 41
1.5240
 42
1.5240
 43
1.0000
 50
180.0000
  0
INSERT
  8
17
  2
LONGP100
 10
26.1558
 20
14.9616
 30
0.0000
 41
1.5240
 42
1.5240
 43
1.0000
 50
180.0000
  0
POLYLINE
  8
21
 66
1
 10
0.0000
 20
0.0000
 30
0.0000
 40
0.1524
 41
0.1524
 70
0
  0
VERTEX
  8
21
 10
51.9360
 20
11.4400
 30
0.0000
  0
VERTEX
  8
21
 10
51.6820
 20
11.4400
 30
0.0000
  0
SEQEND
  8
0
  0
POLYLINE
  8
21
 66
1
 10
0.0000
 20
0.0000
 30
0.0000
 40
0.0762
 41
0.0762
 70
0
  0
VERTEX
  8
21
 10
51.6820
 20
11.4781
 30
0.0000
 42
1.0000
  0
VERTEX
  8
21
 10
51.6820
 20
11.4019
 30
0.0000
  0
SEQEND
  8
0
  0
POLYLINE
  8
21
 66
1
 10
0.0000
 20
0.0000
 30
0.0000
 40
0.0762
 41
0.0762
 70
0
  0
VERTEX
  8
21
 10
51.9360
 20
11.4019
 30
0.0000
 42
1.0000
  0
VERTEX
  8
21
 10
51.9360
 20
11.4781
 30
0.0000
  0
SEQEND
  8
0
  0
POLYLINE
  8
21
 66
1
 10
0.0000
 20
0.0000
 30
0.0000
 40
0.1524
 41
0.1524
 70
0
  0
VERTEX
  8
21
 10
51.9360
 20
11.4400
 30
0.0000
  0
VERTEX
  8
21
 10
51.9360
 20
12.9640
 30
0.0000
  0
SEQEND
  8
0
  0
POLYLINE
  8
21
 66
1
 10
0.0000
 20
0.0000
 30
0.0000
 40
0.0762
 41
0.0762
 70
0
  0
VERTEX
  8
21
 10
51.9741
 20
12.9640
 30
0.0000
 42
1.0000
  0
VERTEX
  8
21
 10
51.8979
 20
12.9640
 30
0.0000
  0
SEQEND
  8
0
  0
POLYLINE
  8
21
 66
1
 10
0.0000
 20
0.0000
 30
0.0000
 40
0.0762
 41
0.0762
 70
0
  0
VERTEX
  8
21
 10
51.8979
 20
11.4400
 30
0.0000
 42
1.0000
  0
VERTEX
  8
21
 10
51.9741
 20
11.4400
 30
0.0000
  0
SEQEND
  8
0
  0
POLYLINE
  8
21
 66
1
 10
0.0000
 20
0.0000
 30
0.0000
 40
0.1524
 41
0.1524
 70
0
  0
VERTEX
  8
21
 10
51.6820
 20
12.9640
 30
0.0000
  0
VERTEX
  8
21
 10
51.9360
 20
12.9640
 30
0.0000
  0
SEQEND
  8
0
  0
POLYLINE
  8
21
 66
1
 10
0.0000
 20
0.0000
 30
0.0000
 40
0.0762
 41
0.0762
 70
0
  0
VERTEX
  8
21
 10
51.9360
 20
12.9259
 30
0.0000
 42
1.0000
  0
VERTEX
  8
21
 10
51.9360
 20
13.0021
 30
0.0000
  0
SEQEND
  8
0
  0
POLYLINE
  8
21
 66
1
 10
0.0000
 20
0.0000
 30
0.0000
 40
0.0762
 41
0.0762
 70
0
  0
VERTEX
  8
21
 10
51.6820
 20
13.0021
 30
0.0000
 42
1.0000
  0
VERTEX
  8
21
 10
51.6820
 20
12.9259
 30
0.0000
  0
SEQEND
  8
0
  0
POLYLINE
  8
21
 66
1
 10
0.0000
 20
0.0000
 30
0.0000
 40
0.1524
 41
0.1524
 70
0
  0
VERTEX
  8
21
 10
45.3320
 20
12.9640
 30
0.0000
  0
VERTEX
  8
21
 10
45.5860
 20
12.9640
 30
0.0000
  0
SEQEND
  8
0
  0
POLYLINE
  8
21
 66
1
 10
0.0000
 20
0.0000
 30
0.0000
 40
0.0762
 41
0.0762
 70
0
  0
VERTEX
  8
21
 10
45.5860
 20
12.9259
 30
0.0000
 42
1.0000
  0
VERTEX
  8
21
 10
45.5860
 20
13.0021
 30
0.0000
  0
SEQEND
  8
0
  0
POLYLINE
  8
21
 66
1
 10
0.0000
 20
0.0000
 30
0.0000
 40
0.0762
 41
0.0762
 70
0
  0
VERTEX
  8
21
 10
45.3320
 20
13.0021
 30
0.0000
 42
1.0000
  0
VERTEX
  8
21
 10
45.3320
 20
12.9259
 30
0.0000
  0
SEQEND
  8
0
  0
POLYLINE
  8
21
 66
1
 10
0.0000
 20
0.0000
 30
0.0000
 40
0.1524
 41
0.1524
 70
0
  0
VERTEX
  8
21
 10
45.3320
 20
12.9640
 30
0.0000
  0
VERTEX
  8
21
 10
45.3320
 20
11.4400
 30
0.0000
  0
SEQEND
  8
0
  0
POLYLINE
  8
21
 66
1
 10
0.0000
 20
0.0000
 30
0.0000
 40
0.0762
 41
0.0762
 70
0
  0
VERTEX
  8
21
 10
45.2939
 20
11.4400
 30
0.0000
 42
1.0000
  0
VERTEX
  8
21
 10
45.3701
 20
11.4400
 30
0.0000
  0
SEQEND
  8
0
  0
POLYLINE
  8
21
 66
1
 10
0.0000
 20
0.0000
 30
0.0000
 40
0.0762
 41
0.0762
 70
0
  0
VERTEX
  8
21
 10
45.3701
 20
12.9640
 30
0.0000
 42
1.0000
  0
VERTEX
  8
21
 10
45.2939
 20
12.9640
 30
0.0000
  0
SEQEND
  8
0
  0
POLYLINE
  8
21
 66
1
 10
0.0000
 20
0.0000
 30
0.0000
 40
0.1524
 41
0.1524
 70
0
  0
VERTEX
  8
21
 10
45.5860
 20
11.4400
 30
0.0000
  0
VERTEX
  8
21
 10
45.3320
 20
11.4400
 30
0.0000
  0
SEQEND
  8
0
  0
POLYLINE
  8
21
 66
1
 10
0.0000
 20
0.0000
 30
0.0000
 40
0.0762
 41
0.0762
 70
0
  0
VERTEX
  8
21
 10
45.3320
 20
11.4781
 30
0.0000
 42
1.0000
  0
VERTEX
  8
21
 10
45.3320
 20
11.4019
 30
0.0000
  0
SEQEND
  8
0
  0
POLYLINE
  8
21
 66
1
 10
0.0000
 20
0.0000
 30
0.0000
 40
0.0762
 41
0.0762
 70
0
  0
VERTEX
  8
21
 10
45.5860
 20
11.4019
 30
0.0000
 42
1.0000
  0
VERTEX
  8
21
 10
45.5860
 20
11.4781
 30
0.0000
  0
SEQEND
  8
0
  0
POLYLINE
  8
21
 66
1
 10
0.0000
 20
0.0000
 30
0.0000
 40
0.0508
 41
0.0508
 70
0
  0
VERTEX
  8
21
 10
47.3640
 20
15.2500
 30
0.0000
  0
VERTEX
  8
21
 10
47.3640
 20
14.9960
 30
0.0000
  0
SEQEND
  8
0
  0
POLYLINE
  8
21
 66
1
 10
0.0000
 20
0.0000
 30
0.0000
 40
0.0254
 41
0.0254
 70
0
  0
VERTEX
  8
21
 10
47.3513
 20
14.9960
 30
0.0000
 42
1.0000
  0
VERTEX
  8
21
 10
47.3767
 20
14.9960
 30
0.0000
  0
SEQEND
  8
0
  0
POLYLINE
  8
21
 66
1
 10
0.0000
 20
0.0000
 30
0.0000
 40
0.0254
 41
0.0254
 70
0
  0
VERTEX
  8
21
 10
47.3767
 20
15.2500
 30
0.0000
 42
1.0000
  0
VERTEX
  8
21
 10
47.3513
 20
15.2500
 30
0.0000
  0
SEQEND
  8
0
  0
POLYLINE
  8
21
 66
1
 10
0.0000
 20
0.0000
 30
0.0000
 40
0.0508
 41
0.0508
 70
0
  0
VERTEX
  8
21
 10
49.9040
 20
14.9960
 30
0.0000
  0
VERTEX
  8
21
 10
47.3640
 20
14.9960
 30
0.0000
  0
SEQEND
  8
0
  0
POLYLINE
  8
21
 66
1
 10
0.0000
 20
0.0000
 30
0.0000
 40
0.0254
 41
0.0254
 70
0
  0
VERTEX
  8
21
 10
47.3640
 20
15.0087
 30
0.0000
 42
1.0000
  0
VERTEX
  8
21
 10
47.3640
 20
14.9833
 30
0.0000
  0
SEQEND
  8
0
  0
POLYLINE
  8
21
 66
1
 10
0.0000
 20
0.0000
 30
0.0000
 40
0.0254
 41
0.0254
 70
0
  0
VERTEX
  8
21
 10
49.9040
 20
14.9833
 30
0.0000
 42
1.0000
  0
VERTEX
  8
21
 10
49.9040
 20
15.0087
 30
0.0000
  0
SEQEND
  8
0
  0
POLYLINE
  8
21
 66
1
 10
0.0000
 20
0.0000
 30
0.0000
 40
0.0508
 41
0.0508
 70
0
  0
VERTEX
  8
21
 10
49.9040
 20
14.9960
 30
0.0000
  0
VERTEX
  8
21
 10
49.9040
 20
15.2500
 30
0.0000
  0
SEQEND
  8
0
  0
POLYLINE
  8
21
 66
1
 10
0.0000
 20
0.0000
 30
0.0000
 40
0.0254
 41
0.0254
 70
0
  0
VERTEX
  8
21
 10
49.9167
 20
15.2500
 30
0.0000
 42
1.0000
  0
VERTEX
  8
21
 10
49.8913
 20
15.2500
 30
0.0000
  0
SEQEND
  8
0
  0
POLYLINE
  8
21
 66
1
 10
0.0000
 20
0.0000
 30
0.0000
 40
0.0254
 41
0.0254
 70
0
  0
VERTEX
  8
21
 10
49.8913
 20
14.9960
 30
0.0000
 42
1.0000
  0
VERTEX
  8
21
 10
49.9167
 20
14.9960
 30
0.0000
  0
SEQEND
  8
0
  0
POLYLINE
  8
21
 66
1
 10
0.0000
 20
0.0000
 30
0.0000
 40
0.0508
 41
0.0508
 70
0
  0
VERTEX
  8
21
 10
49.7770
 20
9.4080
 30
0.0000
  0
VERTEX
  8
21
 10
47.3640
 20
9.4080
 30
0.0000
  0
SEQEND
  8
0
  0
POLYLINE
  8
21
 66
1
 10
0.0000
 20
0.0000
 30
0.0000
 40
0.0254
 41
0.0254
 70
0
  0
VERTEX
  8
21
 10
47.3640
 20
9.4207
 30
0.0000
 42
1.0000
  0
VERTEX
  8
21
 10
47.3640
 20
9.3953
 30
0.0000
  0
SEQEND
  8
0
  0
POLYLINE
  8
21
 66
1
 10
0.0000
 20
0.0000
 30
0.0000
 40
0.0254
 41
0.0254
 70
0
  0
VERTEX
  8
21
 10
49.7770
 20
9.3953
 30
0.0000
 42
1.0000
  0
VERTEX
  8
21
 10
49.7770
 20
9.4207
 30
0.0000
  0
SEQEND
  8
0
  0
POLYLINE
  8
21
 66
1
 10
0.0000
 20
0.0000
 30
0.0000
 40
0.0508
 41
0.0508
 70
0
  0
VERTEX
  8
21
 10
49.7770
 20
9.4080
 30
0.0000
  0
VERTEX
  8
21
 10
49.7770
 20
9.1540
 30
0.0000
  0
SEQEND
  8
0
  0
POLYLINE
  8
21
 66
1
 10
0.0000
 20
0.0000
 30
0.0000
 40
0.0254
 41
0.0254
 70
0
  0
VERTEX
  8
21
 10
49.7643
 20
9.1540
 30
0.0000
 42
1.0000
  0
VERTEX
  8
21
 10
49.7897
 20
9.1540
 30
0.0000
  0
SEQEND
  8
0
  0
POLYLINE
  8
21
 66
1
 10
0.0000
 20
0.0000
 30
0.0000
 40
0.0254
 41
0.0254
 70
0
  0
VERTEX
  8
21
 10
49.7897
 20
9.4080
 30
0.0000
 42
1.0000
  0
VERTEX
  8
21
 10
49.7643
 20
9.4080
 30
0.0000
  0
SEQEND
  8
0
  0
POLYLINE
  8
21
 66
1
 10
0.0000
 20
0.0000
 30
0.0000
 40
0.0508
 41
0.0508
 70
0
  0
VERTEX
  8
21
 10
47.3640
 20
9.4080
 30
0.0000
  0
VERTEX
  8
21
 10
47.3640
 20
9.1540
 30
0.0000
  0
SEQEND
  8
0
  0
POLYLINE
  8
21
 66
1
 10
0.0000
 20
0.0000
 30
0.0000
 40
0.0254
 41
0.0254
 70
0
  0
VERTEX
  8
21
 10
47.3513
 20
9.1540
 30
0.0000
 42
1.0000
  0
VERTEX
  8
21
 10
47.3767
 20
9.1540
 30
0.0000
  0
SEQEND
  8
0
  0
POLYLINE
  8
21
 66
1
 10
0.0000
 20
0.0000
 30
0.0000
 40
0.0254
 41
0.0254
 70
0
  0
VERTEX
  8
21
 10
47.3767
 20
9.4080
 30
0.0000
 42
1.0000
  0
VERTEX
  8
21
 10
47.3513
 20
9.4080
 30
0.0000
  0
SEQEND
  8
0
  0
POLYLINE
  8
21
 66
1
 10
0.0000
 20
0.0000
 30
0.0000
 40
0.1524
 41
0.1524
 70
0
  0
VERTEX
  8
21
 10
46.4750
 20
9.1540
 30
0.0000
  0
VERTEX
  8
21
 10
47.3640
 20
9.1540
 30
0.0000
  0
SEQEND
  8
0
  0
POLYLINE
  8
21
 66
1
 10
0.0000
 20
0.0000
 30
0.0000
 40
0.0762
 41
0.0762
 70
0
  0
VERTEX
  8
21
 10
47.3640
 20
9.1159
 30
0.0000
 42
1.0000
  0
VERTEX
  8
21
 10
47.3640
 20
9.1921
 30
0.0000
  0
SEQEND
  8
0
  0
POLYLINE
  8
21
 66
1
 10
0.0000
 20
0.0000
 30
0.0000
 40
0.0762
 41
0.0762
 70
0
  0
VERTEX
  8
21
 10
46.4750
 20
9.1921
 30
0.0000
 42
1.0000
  0
VERTEX
  8
21
 10
46.4750
 20
9.1159
 30
0.0000
  0
SEQEND
  8
0
  0
POLYLINE
  8
21
 66
1
 10
0.0000
 20
0.0000
 30
0.0000
 40
0.1524
 41
0.1524
 70
0
  0
VERTEX
  8
21
 10
50.7930
 20
15.2500
 30
0.0000
  0
VERTEX
  8
21
 10
49.9040
 20
15.2500
 30
0.0000
  0
SEQEND
  8
0
  0
POLYLINE
  8
21
 66
1
 10
0.0000
 20
0.0000
 30
0.0000
 40
0.0762
 41
0.0762
 70
0
  0
VERTEX
  8
21
 10
49.9040
 20
15.2881
 30
0.0000
 42
1.0000
  0
VERTEX
  8
21
 10
49.9040
 20
15.2119
 30
0.0000
  0
SEQEND
  8
0
  0
POLYLINE
  8
21
 66
1
 10
0.0000
 20
0.0000
 30
0.0000
 40
0.0762
 41
0.0762
 70
0
  0
VERTEX
  8
21
 10
50.7930
 20
15.2119
 30
0.0000
 42
1.0000
  0
VERTEX
  8
21
 10
50.7930
 20
15.2881
 30
0.0000
  0
SEQEND
  8
0
  0
POLYLINE
  8
21
 66
1
 10
0.0000
 20
0.0000
 30
0.0000
 40
0.1524
 41
0.1524
 70
0
  0
VERTEX
  8
21
 10
49.9040
 20
15.2500
 30
0.0000
  0
VERTEX
  8
21
 10
47.3640
 20
15.2500
 30
0.0000
  0
SEQEND
  8
0
  0
POLYLINE
  8
21
 66
1
 10
0.0000
 20
0.0000
 30
0.0000
 40
0.0762
 41
0.0762
 70
0
  0
VERTEX
  8
21
 10
47.3640
 20
15.2881
 30
0.0000
 42
1.0000
  0
VERTEX
  8
21
 10
47.3640
 20
15.2119
 30
0.0000
  0
SEQEND
  8
0
  0
POLYLINE
  8
21
 66
1
 10
0.0000
 20
0.0000
 30
0.0000
 40
0.0762
 41
0.0762
 70
0
  0
VERTEX
  8
21
 10
49.9040
 20
15.2119
 30
0.0000
 42
1.0000
  0
VERTEX
  8
21
 10
49.9040
 20
15.2881
 30
0.0000
  0
SEQEND
  8
0
  0
POLYLINE
  8
21
 66
1
 10
0.0000
 20
0.0000
 30
0.0000
 40
0.1524
 41
0.1524
 70
0
  0
VERTEX
  8
21
 10
47.3640
 20
15.2500
 30
0.0000
  0
VERTEX
  8
21
 10
46.4750
 20
15.2500
 30
0.0000
  0
SEQEND
  8
0
  0
POLYLINE
  8
21
 66
1
 10
0.0000
 20
0.0000
 30
0.0000
 40
0.0762
 41
0.0762
 70
0
  0
VERTEX
  8
21
 10
46.4750
 20
15.2881
 30
0.0000
 42
1.0000
  0
VERTEX
  8
21
 10
46.4750
 20
15.2119
 30
0.0000
  0
SEQEND
  8
0
  0
POLYLINE
  8
21
 66
1
 10
0.0000
 20
0.0000
 30
0.0000
 40
0.0762
 41
0.0762
 70
0
  0
VERTEX
  8
21
 10
47.3640
 20
15.2119
 30
0.0000
 42
1.0000
  0
VERTEX
  8
21
 10
47.3640
 20
15.2881
 30
0.0000
  0
SEQEND
  8
0
  0
POLYLINE
  8
21
 66
1
 10
0.0000
 20
0.0000
 30
0.0000
 40
0.1524
 41
0.1524
 70
0
  0
VERTEX
  8
21
 10
47.3640
 20
9.1540
 30
0.0000
  0
VERTEX
  8
21
 10
49.7770
 20
9.1540
 30
0.0000
  0
SEQEND
  8
0
  0
POLYLINE
  8
21
 66
1
 10
0.0000
 20
0.0000
 30
0.0000
 40
0.0762
 41
0.0762
 70
0
  0
VERTEX
  8
21
 10
49.7770
 20
9.1159
 30
0.0000
 42
1.0000
  0
VERTEX
  8
21
 10
49.7770
 20
9.1921
 30
0.0000
  0
SEQEND
  8
0
  0
POLYLINE
  8
21
 66
1
 10
0.0000
 20
0.0000
 30
0.0000
 40
0.0762
 41
0.0762
 70
0
  0
VERTEX
  8
21
 10
47.3640
 20
9.1921
 30
0.0000
 42
1.0000
  0
VERTEX
  8
21
 10
47.3640
 20
9.1159
 30
0.0000
  0
SEQEND
  8
0
  0
POLYLINE
  8
21
 66
1
 10
0.0000
 20
0.0000
 30
0.0000
 40
0.1524
 41
0.1524
 70
0
  0
VERTEX
  8
21
 10
49.7770
 20
9.1540
 30
0.0000
  0
VERTEX
  8
21
 10
50.7930
 20
9.1540
 30
0.0000
  0
SEQEND
  8
0
  0
POLYLINE
  8
21
 66
1
 10
0.0000
 20
0.0000
 30
0.0000
 40
0.0762
 41
0.0762
 70
0
  0
VERTEX
  8
21
 10
50.7930
 20
9.1159
 30
0.0000
 42
1.0000
  0
VERTEX
  8
21
 10
50.7930
 20
9.1921
 30
0.0000
  0
SEQEND
  8
0
  0
POLYLINE
  8
21
 66
1
 10
0.0000
 20
0.0000
 30
0.0000
 40
0.0762
 41
0.0762
 70
0
  0
VERTEX
  8
21
 10
49.7770
 20
9.1921
 30
0.0000
 42
1.0000
  0
VERTEX
  8
21
 10
49.7770
 20
9.1159
 30
0.0000
  0
SEQEND
  8
0
  0
POLYLINE
  8
21
 66
1
 10
0.0000
 20
0.0000
 30
0.0000
 40
0.1524
 41
0.1524
 70
0
  0
VERTEX
  8
21
 10
51.6820
 20
11.4400
 30
0.0000
  0
VERTEX
  8
21
 10
51.6820
 20
11.1860
 30
0.0000
  0
SEQEND
  8
0
  0
POLYLINE
  8
21
 66
1
 10
0.0000
 20
0.0000
 30
0.0000
 40
0.0762
 41
0.0762
 70
0
  0
VERTEX
  8
21
 10
51.6439
 20
11.1860
 30
0.0000
 42
1.0000
  0
VERTEX
  8
21
 10
51.7201
 20
11.1860
 30
0.0000
  0
SEQEND
  8
0
  0
POLYLINE
  8
21
 66
1
 10
0.0000
 20
0.0000
 30
0.0000
 40
0.0762
 41
0.0762
 70
0
  0
VERTEX
  8
21
 10
51.7201
 20
11.4400
 30
0.0000
 42
1.0000
  0
VERTEX
  8
21
 10
51.6439
 20
11.4400
 30
0.0000
  0
SEQEND
  8
0
  0
POLYLINE
  8
21
 66
1
 10
0.0000
 20
0.0000
 30
0.0000
 40
0.1524
 41
0.1524
 70
0
  0
VERTEX
  8
21
 10
51.6820
 20
12.9640
 30
0.0000
  0
VERTEX
  8
21
 10
51.6820
 20
13.2180
 30
0.0000
  0
SEQEND
  8
0
  0
POLYLINE
  8
21
 66
1
 10
0.0000
 20
0.0000
 30
0.0000
 40
0.0762
 41
0.0762
 70
0
  0
VERTEX
  8
21
 10
51.7201
 20
13.2180
 30
0.0000
 42
1.0000
  0
VERTEX
  8
21
 10
51.6439
 20
13.2180
 30
0.0000
  0
SEQEND
  8
0
  0
POLYLINE
  8
21
 66
1
 10
0.0000
 20
0.0000
 30
0.0000
 40
0.0762
 41
0.0762
 70
0
  0
VERTEX
  8
21
 10
51.6439
 20
12.9640
 30
0.0000
 42
1.0000
  0
VERTEX
  8
21
 10
51.7201
 20
12.9640
 30
0.0000
  0
SEQEND
  8
0
  0
POLYLINE
  8
21
 66
1
 10
0.0000
 20
0.0000
 30
0.0000
 40
0.1524
 41
0.1524
 70
0
  0
VERTEX
  8
21
 10
45.5860
 20
11.4400
 30
0.0000
  0
VERTEX
  8
21
 10
45.5860
 20
11.1860
 30
0.0000
  0
SEQEND
  8
0
  0
POLYLINE
  8
21
 66
1
 10
0.0000
 20
0.0000
 30
0.0000
 40
0.0762
 41
0.0762
 70
0
  0
VERTEX
  8
21
 10
45.5479
 20
11.1860
 30
0.0000
 42
1.0000
  0
VERTEX
  8
21
 10
45.6241
 20
11.1860
 30
0.0000
  0
SEQEND
  8
0
  0
POLYLINE
  8
21
 66
1
 10
0.0000
 20
0.0000
 30
0.0000
 40
0.0762
 41
0.0762
 70
0
  0
VERTEX
  8
21
 10
45.6241
 20
11.4400
 30
0.0000
 42
1.0000
  0
VERTEX
  8
21
 10
45.5479
 20
11.4400
 30
0.0000
  0
SEQEND
  8
0
  0
POLYLINE
  8
21
 66
1
 10
0.0000
 20
0.0000
 30
0.0000
 40
0.1524
 41
0.1524
 70
0
  0
VERTEX
  8
21
 10
45.5860
 20
12.9640
 30
0.0000
  0
VERTEX
  8
21
 10
45.5860
 20
13.2180
 30
0.0000
  0
SEQEND
  8
0
  0
POLYLINE
  8
21
 66
1
 10
0.0000
 20
0.0000
 30
0.0000
 40
0.0762
 41
0.0762
 70
0
  0
VERTEX
  8
21
 10
45.6241
 20
13.2180
 30
0.0000
 42
1.0000
  0
VERTEX
  8
21
 10
45.5479
 20
13.2180
 30
0.0000
  0
SEQEND
  8
0
  0
POLYLINE
  8
21
 66
1
 10
0.0000
 20
0.0000
 30
0.0000
 40
0.0762
 41
0.0762
 70
0
  0
VERTEX
  8
21
 10
45.5479
 20
12.9640
 30
0.0000
 42
1.0000
  0
VERTEX
  8
21
 10
45.6241
 20
12.9640
 30
0.0000
  0
SEQEND
  8
0
  0
POLYLINE
  8
21
 66
1
 10
0.0000
 20
0.0000
 30
0.0000
 40
0.1524
 41
0.1524
 70
0
  0
VERTEX
  8
21
 10
48.6340
 20
10.4240
 30
0.0000
 42
1.0000
  0
VERTEX
  8
21
 10
48.6340
 20
13.9800
 30
0.0000
 42
1.0000
  0
VERTEX
  8
21
 10
48.6340
 20
10.4240
 30
0.0000
  0
SEQEND
  8
0
  0
POLYLINE
  8
21
 66
1
 10
0.0000
 20
0.0000
 30
0.0000
 40
0.1524
 41
0.1524
 70
0
  0
VERTEX
  8
21
 10
48.6340
 20
11.9480
 30
0.0000
 42
1.0000
  0
VERTEX
  8
21
 10
48.6340
 20
12.4560
 30
0.0000
 42
1.0000
  0
VERTEX
  8
21
 10
48.6340
 20
11.9480
 30
0.0000
  0
SEQEND
  8
0
  0
INSERT
  8
17
  2
LONGP100
 10
45.3828
 20
14.4626
 30
0.0000
 41
1.5240
 42
1.5240
 43
1.0000
 50
0.0000
  0
INSERT
  8
17
  2
LONGP100
 10
45.3828
 20
14.4626
 30
0.0000
 41
1.5240
 42
1.5240
 43
1.0000
 50
0.0000
  0
INSERT
  8
17
  2
LONGP100
 10
51.8852
 20
14.4626
 30
0.0000
 41
1.5240
 42
1.5240
 43
1.0000
 50
0.0000
  0
INSERT
  8
17
  2
LONGP100
 10
51.8852
 20
14.4626
 30
0.0000
 41
1.5240
 42
1.5240
 43
1.0000
 50
0.0000
  0
INSERT
  8
17
  2
LONGP100
 10
45.3828
 20
9.9414
 30
0.0000
 41
1.5240
 42
1.5240
 43
1.0000
 50
0.0000
  0
INSERT
  8
17
  2
LONGP100
 10
45.3828
 20
9.9414
 30
0.0000
 41
1.5240
 42
1.5240
 43
1.0000
 50
0.0000
  0
INSERT
  8
17
  2
LONGP100
 10
51.8852
 20
9.9414
 30
0.0000
 41
1.5240
 42
1.5240
 43
1.0000
 50
0.0000
  0
INSERT
  8
17
  2
LONGP100
 10
51.8852
 20
9.9414
 30
0.0000
 41
1.5240
 42
1.5240
 43
1.0000
 50
0.0000
  0
POLYLINE
  8
21
 66
1
 10
0.0000
 20
0.0000
 30
0.0000
 40
0.1524
 41
0.1524
 70
0
  0
VERTEX
  8
21
 10
38.9730
 20
14.5340
 30
0.0000
  0
VERTEX
  8
21
 10
38.9730
 20
14.2800
 30
0.0000
  0
SEQEND
  8
0
  0
POLYLINE
  8
21
 66
1
 10
0.0000
 20
0.0000
 30
0.0000
 40
0.0762
 41
0.0762
 70
0
  0
VERTEX
  8
21
 10
38.9349
 20
14.2800
 30
0.0000
 42
1.0000
  0
VERTEX
  8
21
 10
39.0111
 20
14.2800
 30
0.0000
  0
SEQEND
  8
0
  0
POLYLINE
  8
21
 66
1
 10
0.0000
 20
0.0000
 30
0.0000
 40
0.0762
 41
0.0762
 70
0
  0
VERTEX
  8
21
 10
39.0111
 20
14.5340
 30
0.0000
 42
1.0000
  0
VERTEX
  8
21
 10
38.9349
 20
14.5340
 30
0.0000
  0
SEQEND
  8
0
  0
POLYLINE
  8
21
 66
1
 10
0.0000
 20
0.0000
 30
0.0000
 40
0.1524
 41
0.1524
 70
0
  0
VERTEX
  8
21
 10
38.9730
 20
14.5340
 30
0.0000
  0
VERTEX
  8
21
 10
37.4490
 20
14.5340
 30
0.0000
  0
SEQEND
  8
0
  0
POLYLINE
  8
21
 66
1
 10
0.0000
 20
0.0000
 30
0.0000
 40
0.0762
 41
0.0762
 70
0
  0
VERTEX
  8
21
 10
37.4490
 20
14.5721
 30
0.0000
 42
1.0000
  0
VERTEX
  8
21
 10
37.4490
 20
14.4959
 30
0.0000
  0
SEQEND
  8
0
  0
POLYLINE
  8
21
 66
1
 10
0.0000
 20
0.0000
 30
0.0000
 40
0.0762
 41
0.0762
 70
0
  0
VERTEX
  8
21
 10
38.9730
 20
14.4959
 30
0.0000
 42
1.0000
  0
VERTEX
  8
21
 10
38.9730
 20
14.5721
 30
0.0000
  0
SEQEND
  8
0
  0
POLYLINE
  8
21
 66
1
 10
0.0000
 20
0.0000
 30
0.0000
 40
0.1524
 41
0.1524
 70
0
  0
VERTEX
  8
21
 10
37.4490
 20
14.2800
 30
0.0000
  0
VERTEX
  8
21
 10
37.4490
 20
14.5340
 30
0.0000
  0
SEQEND
  8
0
  0
POLYLINE
  8
21
 66
1
 10
0.0000
 20
0.0000
 30
0.0000
 40
0.0762
 41
0.0762
 70
0
  0
VERTEX
  8
21
 10
37.4871
 20
14.5340
 30
0.0000
 42
1.0000
  0
VERTEX
  8
21
 10
37.4109
 20
14.5340
 30
0.0000
  0
SEQEND
  8
0
  0
POLYLINE
  8
21
 66
1
 10
0.0000
 20
0.0000
 30
0.0000
 40
0.0762
 41
0.0762
 70
0
  0
VERTEX
  8
21
 10
37.4109
 20
14.2800
 30
0.0000
 42
1.0000
  0
VERTEX
  8
21
 10
37.4871
 20
14.2800
 30
0.0000
  0
SEQEND
  8
0
  0
POLYLINE
  8
21
 66
1
 10
0.0000
 20
0.0000
 30
0.0000
 40
0.1524
 41
0.1524
 70
0
  0
VERTEX
  8
21
 10
37.4490
 20
7.9300
 30
0.0000
  0
VERTEX
  8
21
 10
37.4490
 20
8.1840
 30
0.0000
  0
SEQEND
  8
0
  0
POLYLINE
  8
21
 66
1
 10
0.0000
 20
0.0000
 30
0.0000
 40
0.0762
 41
0.0762
 70
0
  0
VERTEX
  8
21
 10
37.4871
 20
8.1840
 30
0.0000
 42
1.0000
  0
VERTEX
  8
21
 10
37.4109
 20
8.1840
 30
0.0000
  0
SEQEND
  8
0
  0
POLYLINE
  8
21
 66
1
 10
0.0000
 20
0.0000
 30
0.0000
 40
0.0762
 41
0.0762
 70
0
  0
VERTEX
  8
21
 10
37.4109
 20
7.9300
 30
0.0000
 42
1.0000
  0
VERTEX
  8
21
 10
37.4871
 20
7.9300
 30
0.0000
  0
SEQEND
  8
0
  0
POLYLINE
  8
21
 66
1
 10
0.0000
 20
0.0000
 30
0.0000
 40
0.1524
 41
0.1524
 70
0
  0
VERTEX
  8
21
 10
37.4490
 20
7.9300
 30
0.0000
  0
VERTEX
  8
21
 10
38.9730
 20
7.9300
 30
0.0000
  0
SEQEND
  8
0
  0
POLYLINE
  8
21
 66
1
 10
0.0000
 20
0.0000
 30
0.0000
 40
0.0762
 41
0.0762
 70
0
  0
VERTEX
  8
21
 10
38.9730
 20
7.8919
 30
0.0000
 42
1.0000
  0
VERTEX
  8
21
 10
38.9730
 20
7.9681
 30
0.0000
  0
SEQEND
  8
0
  0
POLYLINE
  8
21
 66
1
 10
0.0000
 20
0.0000
 30
0.0000
 40
0.0762
 41
0.0762
 70
0
  0
VERTEX
  8
21
 10
37.4490
 20
7.9681
 30
0.0000
 42
1.0000
  0
VERTEX
  8
21
 10
37.4490
 20
7.8919
 30
0.0000
  0
SEQEND
  8
0
  0
POLYLINE
  8
21
 66
1
 10
0.0000
 20
0.0000
 30
0.0000
 40
0.1524
 41
0.1524
 70
0
  0
VERTEX
  8
21
 10
38.9730
 20
8.1840
 30
0.0000
  0
VERTEX
  8
21
 10
38.9730
 20
7.9300
 30
0.0000
  0
SEQEND
  8
0
  0
POLYLINE
  8
21
 66
1
 10
0.0000
 20
0.0000
 30
0.0000
 40
0.0762
 41
0.0762
 70
0
  0
VERTEX
  8
21
 10
38.9349
 20
7.9300
 30
0.0000
 42
1.0000
  0
VERTEX
  8
21
 10
39.0111
 20
7.9300
 30
0.0000
  0
SEQEND
  8
0
  0
POLYLINE
  8
21
 66
1
 10
0.0000
 20
0.0000
 30
0.0000
 40
0.0762
 41
0.0762
 70
0
  0
VERTEX
  8
21
 10
39.0111
 20
8.1840
 30
0.0000
 42
1.0000
  0
VERTEX
  8
21
 10
38.9349
 20
8.1840
 30
0.0000
  0
SEQEND
  8
0
  0
POLYLINE
  8
21
 66
1
 10
0.0000
 20
0.0000
 30
0.0000
 40
0.0508
 41
0.0508
 70
0
  0
VERTEX
  8
21
 10
35.1630
 20
9.9620
 30
0.0000
  0
VERTEX
  8
21
 10
35.4170
 20
9.9620
 30
0.0000
  0
SEQEND
  8
0
  0
POLYLINE
  8
21
 66
1
 10
0.0000
 20
0.0000
 30
0.0000
 40
0.0254
 41
0.0254
 70
0
  0
VERTEX
  8
21
 10
35.4170
 20
9.9493
 30
0.0000
 42
1.0000
  0
VERTEX
  8
21
 10
35.4170
 20
9.9747
 30
0.0000
  0
SEQEND
  8
0
  0
POLYLINE
  8
21
 66
1
 10
0.0000
 20
0.0000
 30
0.0000
 40
0.0254
 41
0.0254
 70
0
  0
VERTEX
  8
21
 10
35.1630
 20
9.9747
 30
0.0000
 42
1.0000
  0
VERTEX
  8
21
 10
35.1630
 20
9.9493
 30
0.0000
  0
SEQEND
  8
0
  0
POLYLINE
  8
21
 66
1
 10
0.0000
 20
0.0000
 30
0.0000
 40
0.0508
 41
0.0508
 70
0
  0
VERTEX
  8
21
 10
35.4170
 20
12.5020
 30
0.0000
  0
VERTEX
  8
21
 10
35.4170
 20
9.9620
 30
0.0000
  0
SEQEND
  8
0
  0
POLYLINE
  8
21
 66
1
 10
0.0000
 20
0.0000
 30
0.0000
 40
0.0254
 41
0.0254
 70
0
  0
VERTEX
  8
21
 10
35.4043
 20
9.9620
 30
0.0000
 42
1.0000
  0
VERTEX
  8
21
 10
35.4297
 20
9.9620
 30
0.0000
  0
SEQEND
  8
0
  0
POLYLINE
  8
21
 66
1
 10
0.0000
 20
0.0000
 30
0.0000
 40
0.0254
 41
0.0254
 70
0
  0
VERTEX
  8
21
 10
35.4297
 20
12.5020
 30
0.0000
 42
1.0000
  0
VERTEX
  8
21
 10
35.4043
 20
12.5020
 30
0.0000
  0
SEQEND
  8
0
  0
POLYLINE
  8
21
 66
1
 10
0.0000
 20
0.0000
 30
0.0000
 40
0.0508
 41
0.0508
 70
0
  0
VERTEX
  8
21
 10
35.4170
 20
12.5020
 30
0.0000
  0
VERTEX
  8
21
 10
35.1630
 20
12.5020
 30
0.0000
  0
SEQEND
  8
0
  0
POLYLINE
  8
21
 66
1
 10
0.0000
 20
0.0000
 30
0.0000
 40
0.0254
 41
0.0254
 70
0
  0
VERTEX
  8
21
 10
35.1630
 20
12.5147
 30
0.0000
 42
1.0000
  0
VERTEX
  8
21
 10
35.1630
 20
12.4893
 30
0.0000
  0
SEQEND
  8
0
  0
POLYLINE
  8
21
 66
1
 10
0.0000
 20
0.0000
 30
0.0000
 40
0.0254
 41
0.0254
 70
0
  0
VERTEX
  8
21
 10
35.4170
 20
12.4893
 30
0.0000
 42
1.0000
  0
VERTEX
  8
21
 10
35.4170
 20
12.5147
 30
0.0000
  0
SEQEND
  8
0
  0
POLYLINE
  8
21
 66
1
 10
0.0000
 20
0.0000
 30
0.0000
 40
0.0508
 41
0.0508
 70
0
  0
VERTEX
  8
21
 10
41.0050
 20
12.3750
 30
0.0000
  0
VERTEX
  8
21
 10
41.0050
 20
9.9620
 30
0.0000
  0
SEQEND
  8
0
  0
POLYLINE
  8
21
 66
1
 10
0.0000
 20
0.0000
 30
0.0000
 40
0.0254
 41
0.0254
 70
0
  0
VERTEX
  8
21
 10
40.9923
 20
9.9620
 30
0.0000
 42
1.0000
  0
VERTEX
  8
21
 10
41.0177
 20
9.9620
 30
0.0000
  0
SEQEND
  8
0
  0
POLYLINE
  8
21
 66
1
 10
0.0000
 20
0.0000
 30
0.0000
 40
0.0254
 41
0.0254
 70
0
  0
VERTEX
  8
21
 10
41.0177
 20
12.3750
 30
0.0000
 42
1.0000
  0
VERTEX
  8
21
 10
40.9923
 20
12.3750
 30
0.0000
  0
SEQEND
  8
0
  0
POLYLINE
  8
21
 66
1
 10
0.0000
 20
0.0000
 30
0.0000
 40
0.0508
 41
0.0508
 70
0
  0
VERTEX
  8
21
 10
41.0050
 20
12.3750
 30
0.0000
  0
VERTEX
  8
21
 10
41.2590
 20
12.3750
 30
0.0000
  0
SEQEND
  8
0
  0
POLYLINE
  8
21
 66
1
 10
0.0000
 20
0.0000
 30
0.0000
 40
0.0254
 41
0.0254
 70
0
  0
VERTEX
  8
21
 10
41.2590
 20
12.3623
 30
0.0000
 42
1.0000
  0
VERTEX
  8
21
 10
41.2590
 20
12.3877
 30
0.0000
  0
SEQEND
  8
0
  0
POLYLINE
  8
21
 66
1
 10
0.0000
 20
0.0000
 30
0.0000
 40
0.0254
 41
0.0254
 70
0
  0
VERTEX
  8
21
 10
41.0050
 20
12.3877
 30
0.0000
 42
1.0000
  0
VERTEX
  8
21
 10
41.0050
 20
12.3623
 30
0.0000
  0
SEQEND
  8
0
  0
POLYLINE
  8
21
 66
1
 10
0.0000
 20
0.0000
 30
0.0000
 40
0.0508
 41
0.0508
 70
0
  0
VERTEX
  8
21
 10
41.0050
 20
9.9620
 30
0.0000
  0
VERTEX
  8
21
 10
41.2590
 20
9.9620
 30
0.0000
  0
SEQEND
  8
0
  0
POLYLINE
  8
21
 66
1
 10
0.0000
 20
0.0000
 30
0.0000
 40
0.0254
 41
0.0254
 70
0
  0
VERTEX
  8
21
 10
41.2590
 20
9.9493
 30
0.0000
 42
1.0000
  0
VERTEX
  8
21
 10
41.2590
 20
9.9747
 30
0.0000
  0
SEQEND
  8
0
  0
POLYLINE
  8
21
 66
1
 10
0.0000
 20
0.0000
 30
0.0000
 40
0.0254
 41
0.0254
 70
0
  0
VERTEX
  8
21
 10
41.0050
 20
9.9747
 30
0.0000
 42
1.0000
  0
VERTEX
  8
21
 10
41.0050
 20
9.9493
 30
0.0000
  0
SEQEND
  8
0
  0
POLYLINE
  8
21
 66
1
 10
0.0000
 20
0.0000
 30
0.0000
 40
0.1524
 41
0.1524
 70
0
  0
VERTEX
  8
21
 10
41.2590
 20
9.0730
 30
0.0000
  0
VERTEX
  8
21
 10
41.2590
 20
9.9620
 30
0.0000
  0
SEQEND
  8
0
  0
POLYLINE
  8
21
 66
1
 10
0.0000
 20
0.0000
 30
0.0000
 40
0.0762
 41
0.0762
 70
0
  0
VERTEX
  8
21
 10
41.2971
 20
9.9620
 30
0.0000
 42
1.0000
  0
VERTEX
  8
21
 10
41.2209
 20
9.9620
 30
0.0000
  0
SEQEND
  8
0
  0
POLYLINE
  8
21
 66
1
 10
0.0000
 20
0.0000
 30
0.0000
 40
0.0762
 41
0.0762
 70
0
  0
VERTEX
  8
21
 10
41.2209
 20
9.0730
 30
0.0000
 42
1.0000
  0
VERTEX
  8
21
 10
41.2971
 20
9.0730
 30
0.0000
  0
SEQEND
  8
0
  0
POLYLINE
  8
21
 66
1
 10
0.0000
 20
0.0000
 30
0.0000
 40
0.1524
 41
0.1524
 70
0
  0
VERTEX
  8
21
 10
35.1630
 20
13.3910
 30
0.0000
  0
VERTEX
  8
21
 10
35.1630
 20
12.5020
 30
0.0000
  0
SEQEND
  8
0
  0
POLYLINE
  8
21
 66
1
 10
0.0000
 20
0.0000
 30
0.0000
 40
0.0762
 41
0.0762
 70
0
  0
VERTEX
  8
21
 10
35.1249
 20
12.5020
 30
0.0000
 42
1.0000
  0
VERTEX
  8
21
 10
35.2011
 20
12.5020
 30
0.0000
  0
SEQEND
  8
0
  0
POLYLINE
  8
21
 66
1
 10
0.0000
 20
0.0000
 30
0.0000
 40
0.0762
 41
0.0762
 70
0
  0
VERTEX
  8
21
 10
35.2011
 20
13.3910
 30
0.0000
 42
1.0000
  0
VERTEX
  8
21
 10
35.1249
 20
13.3910
 30
0.0000
  0
SEQEND
  8
0
  0
POLYLINE
  8
21
 66
1
 10
0.0000
 20
0.0000
 30
0.0000
 40
0.1524
 41
0.1524
 70
0
  0
VERTEX
  8
21
 10
35.1630
 20
12.5020
 30
0.0000
  0
VERTEX
  8
21
 10
35.1630
 20
9.9620
 30
0.0000
  0
SEQEND
  8
0
  0
POLYLINE
  8
21
 66
1
 10
0.0000
 20
0.0000
 30
0.0000
 40
0.0762
 41
0.0762
 70
0
  0
VERTEX
  8
21
 10
35.1249
 20
9.9620
 30
0.0000
 42
1.0000
  0
VERTEX
  8
21
 10
35.2011
 20
9.9620
 30
0.0000
  0
SEQEND
  8
0
  0
POLYLINE
  8
21
 66
1
 10
0.0000
 20
0.0000
 30
0.0000
 40
0.0762
 41
0.0762
 70
0
  0
VERTEX
  8
21
 10
35.2011
 20
12.5020
 30
0.0000
 42
1.0000
  0
VERTEX
  8
21
 10
35.1249
 20
12.5020
 30
0.0000
  0
SEQEND
  8
0
  0
POLYLINE
  8
21
 66
1
 10
0.0000
 20
0.0000
 30
0.0000
 40
0.1524
 41
0.1524
 70
0
  0
VERTEX
  8
21
 10
35.1630
 20
9.9620
 30
0.0000
  0
VERTEX
  8
21
 10
35.1630
 20
9.0730
 30
0.0000
  0
SEQEND
  8
0
  0
POLYLINE
  8
21
 66
1
 10
0.0000
 20
0.0000
 30
0.0000
 40
0.0762
 41
0.0762
 70
0
  0
VERTEX
  8
21
 10
35.1249
 20
9.0730
 30
0.0000
 42
1.0000
  0
VERTEX
  8
21
 10
35.2011
 20
9.0730
 30
0.0000
  0
SEQEND
  8
0
  0
POLYLINE
  8
21
 66
1
 10
0.0000
 20
0.0000
 30
0.0000
 40
0.0762
 41
0.0762
 70
0
  0
VERTEX
  8
21
 10
35.2011
 20
9.9620
 30
0.0000
 42
1.0000
  0
VERTEX
  8
21
 10
35.1249
 20
9.9620
 30
0.0000
  0
SEQEND
  8
0
  0
POLYLINE
  8
21
 66
1
 10
0.0000
 20
0.0000
 30
0.0000
 40
0.1524
 41
0.1524
 70
0
  0
VERTEX
  8
21
 10
41.2590
 20
9.9620
 30
0.0000
  0
VERTEX
  8
21
 10
41.2590
 20
12.3750
 30
0.0000
  0
SEQEND
  8
0
  0
POLYLINE
  8
21
 66
1
 10
0.0000
 20
0.0000
 30
0.0000
 40
0.0762
 41
0.0762
 70
0
  0
VERTEX
  8
21
 10
41.2971
 20
12.3750
 30
0.0000
 42
1.0000
  0
VERTEX
  8
21
 10
41.2209
 20
12.3750
 30
0.0000
  0
SEQEND
  8
0
  0
POLYLINE
  8
21
 66
1
 10
0.0000
 20
0.0000
 30
0.0000
 40
0.0762
 41
0.0762
 70
0
  0
VERTEX
  8
21
 10
41.2209
 20
9.9620
 30
0.0000
 42
1.0000
  0
VERTEX
  8
21
 10
41.2971
 20
9.9620
 30
0.0000
  0
SEQEND
  8
0
  0
POLYLINE
  8
21
 66
1
 10
0.0000
 20
0.0000
 30
0.0000
 40
0.1524
 41
0.1524
 70
0
  0
VERTEX
  8
21
 10
41.2590
 20
12.3750
 30
0.0000
  0
VERTEX
  8
21
 10
41.2590
 20
13.3910
 30
0.0000
  0
SEQEND
  8
0
  0
POLYLINE
  8
21
 66
1
 10
0.0000
 20
0.0000
 30
0.0000
 40
0.0762
 41
0.0762
 70
0
  0
VERTEX
  8
21
 10
41.2971
 20
13.3910
 30
0.0000
 42
1.0000
  0
VERTEX
  8
21
 10
41.2209
 20
13.3910
 30
0.0000
  0
SEQEND
  8
0
  0
POLYLINE
  8
21
 66
1
 10
0.0000
 20
0.0000
 30
0.0000
 40
0.0762
 41
0.0762
 70
0
  0
VERTEX
  8
21
 10
41.2209
 20
12.3750
 30
0.0000
 42
1.0000
  0
VERTEX
  8
21
 10
41.2971
 20
12.3750
 30
0.0000
  0
SEQEND
  8
0
  0
POLYLINE
  8
21
 66
1
 10
0.0000
 20
0.0000
 30
0.0000
 40
0.1524
 41
0.1524
 70
0
  0
VERTEX
  8
21
 10
38.9730
 20
14.2800
 30
0.0000
  0
VERTEX
  8
21
 10
39.2270
 20
14.2800
 30
0.0000
  0
SEQEND
  8
0
  0
POLYLINE
  8
21
 66
1
 10
0.0000
 20
0.0000
 30
0.0000
 40
0.0762
 41
0.0762
 70
0
  0
VERTEX
  8
21
 10
39.2270
 20
14.2419
 30
0.0000
 42
1.0000
  0
VERTEX
  8
21
 10
39.2270
 20
14.3181
 30
0.0000
  0
SEQEND
  8
0
  0
POLYLINE
  8
21
 66
1
 10
0.0000
 20
0.0000
 30
0.0000
 40
0.0762
 41
0.0762
 70
0
  0
VERTEX
  8
21
 10
38.9730
 20
14.3181
 30
0.0000
 42
1.0000
  0
VERTEX
  8
21
 10
38.9730
 20
14.2419
 30
0.0000
  0
SEQEND
  8
0
  0
POLYLINE
  8
21
 66
1
 10
0.0000
 20
0.0000
 30
0.0000
 40
0.1524
 41
0.1524
 70
0
  0
VERTEX
  8
21
 10
37.4490
 20
14.2800
 30
0.0000
  0
VERTEX
  8
21
 10
37.1950
 20
14.2800
 30
0.0000
  0
SEQEND
  8
0
  0
POLYLINE
  8
21
 66
1
 10
0.0000
 20
0.0000
 30
0.0000
 40
0.0762
 41
0.0762
 70
0
  0
VERTEX
  8
21
 10
37.1950
 20
14.3181
 30
0.0000
 42
1.0000
  0
VERTEX
  8
21
 10
37.1950
 20
14.2419
 30
0.0000
  0
SEQEND
  8
0
  0
POLYLINE
  8
21
 66
1
 10
0.0000
 20
0.0000
 30
0.0000
 40
0.0762
 41
0.0762
 70
0
  0
VERTEX
  8
21
 10
37.4490
 20
14.2419
 30
0.0000
 42
1.0000
  0
VERTEX
  8
21
 10
37.4490
 20
14.3181
 30
0.0000
  0
SEQEND
  8
0
  0
POLYLINE
  8
21
 66
1
 10
0.0000
 20
0.0000
 30
0.0000
 40
0.1524
 41
0.1524
 70
0
  0
VERTEX
  8
21
 10
38.9730
 20
8.1840
 30
0.0000
  0
VERTEX
  8
21
 10
39.2270
 20
8.1840
 30
0.0000
  0
SEQEND
  8
0
  0
POLYLINE
  8
21
 66
1
 10
0.0000
 20
0.0000
 30
0.0000
 40
0.0762
 41
0.0762
 70
0
  0
VERTEX
  8
21
 10
39.2270
 20
8.1459
 30
0.0000
 42
1.0000
  0
VERTEX
  8
21
 10
39.2270
 20
8.2221
 30
0.0000
  0
SEQEND
  8
0
  0
POLYLINE
  8
21
 66
1
 10
0.0000
 20
0.0000
 30
0.0000
 40
0.0762
 41
0.0762
 70
0
  0
VERTEX
  8
21
 10
38.9730
 20
8.2221
 30
0.0000
 42
1.0000
  0
VERTEX
  8
21
 10
38.9730
 20
8.1459
 30
0.0000
  0
SEQEND
  8
0
  0
POLYLINE
  8
21
 66
1
 10
0.0000
 20
0.0000
 30
0.0000
 40
0.1524
 41
0.1524
 70
0
  0
VERTEX
  8
21
 10
37.4490
 20
8.1840
 30
0.0000
  0
VERTEX
  8
21
 10
37.1950
 20
8.1840
 30
0.0000
  0
SEQEND
  8
0
  0
POLYLINE
  8
21
 66
1
 10
0.0000
 20
0.0000
 30
0.0000
 40
0.0762
 41
0.0762
 70
0
  0
VERTEX
  8
21
 10
37.1950
 20
8.2221
 30
0.0000
 42
1.0000
  0
VERTEX
  8
21
 10
37.1950
 20
8.1459
 30
0.0000
  0
SEQEND
  8
0
  0
POLYLINE
  8
21
 66
1
 10
0.0000
 20
0.0000
 30
0.0000
 40
0.0762
 41
0.0762
 70
0
  0
VERTEX
  8
21
 10
37.4490
 20
8.1459
 30
0.0000
 42
1.0000
  0
VERTEX
  8
21
 10
37.4490
 20
8.2221
 30
0.0000
  0
SEQEND
  8
0
  0
POLYLINE
  8
21
 66
1
 10
0.0000
 20
0.0000
 30
0.0000
 40
0.1524
 41
0.1524
 70
0
  0
VERTEX
  8
21
 10
38.2110
 20
9.4540
 30
0.0000
 42
1.0000
  0
VERTEX
  8
21
 10
38.2110
 20
13.0100
 30
0.0000
 42
1.0000
  0
VERTEX
  8
21
 10
38.2110
 20
9.4540
 30
0.0000
  0
SEQEND
  8
0
  0
POLYLINE
  8
21
 66
1
 10
0.0000
 20
0.0000
 30
0.0000
 40
0.1524
 41
0.1524
 70
0
  0
VERTEX
  8
21
 10
38.2110
 20
10.9780
 30
0.0000
 42
1.0000
  0
VERTEX
  8
21
 10
38.2110
 20
11.4860
 30
0.0000
 42
1.0000
  0
VERTEX
  8
21
 10
38.2110
 20
10.9780
 30
0.0000
  0
SEQEND
  8
0
  0
INSERT
  8
17
  2
LONGP100
 10
35.9504
 20
7.9808
 30
0.0000
 41
1.5240
 42
1.5240
 43
1.0000
 50
90.0000
  0
INSERT
  8
17
  2
LONGP100
 10
35.9504
 20
7.9808
 30
0.0000
 41
1.5240
 42
1.5240
 43
1.0000
 50
90.0000
  0
INSERT
  8
17
  2
LONGP100
 10
35.9504
 20
14.4832
 30
0.0000
 41
1.5240
 42
1.5240
 43
1.0000
 50
90.0000
  0
INSERT
  8
17
  2
LONGP100
 10
35.9504
 20
14.4832
 30
0.0000
 41
1.5240
 42
1.5240
 43
1.0000
 50
90.0000
  0
INSERT
  8
17
  2
LONGP100
 10
40.4716
 20
7.9808
 30
0.0000
 41
1.5240
 42
1.5240
 43
1.0000
 50
90.0000
  0
INSERT
  8
17
  2
LONGP100
 10
40.4716
 20
7.9808
 30
0.0000
 41
1.5240
 42
1.5240
 43
1.0000
 50
90.0000
  0
INSERT
  8
17
  2
LONGP100
 10
40.4716
 20
14.4832
 30
0.0000
 41
1.5240
 42
1.5240
 43
1.0000
 50
90.0000
  0
INSERT
  8
17
  2
LONGP100
 10
40.4716
 20
14.4832
 30
0.0000
 41
1.5240
 42
1.5240
 43
1.0000
 50
90.0000
  0
POLYLINE
  8
21
 66
1
 10
0.0000
 20
0.0000
 30
0.0000
 40
0.1524
 41
0.1524
 70
0
  0
VERTEX
  8
21
 10
32.8110
 20
4.8350
 30
0.0000
  0
VERTEX
  8
21
 10
32.5570
 20
4.8350
 30
0.0000
  0
SEQEND
  8
0
  0
POLYLINE
  8
21
 66
1
 10
0.0000
 20
0.0000
 30
0.0000
 40
0.0762
 41
0.0762
 70
0
  0
VERTEX
  8
21
 10
32.5570
 20
4.8731
 30
0.0000
 42
1.0000
  0
VERTEX
  8
21
 10
32.5570
 20
4.7969
 30
0.0000
  0
SEQEND
  8
0
  0
POLYLINE
  8
21
 66
1
 10
0.0000
 20
0.0000
 30
0.0000
 40
0.0762
 41
0.0762
 70
0
  0
VERTEX
  8
21
 10
32.8110
 20
4.7969
 30
0.0000
 42
1.0000
  0
VERTEX
  8
21
 10
32.8110
 20
4.8731
 30
0.0000
  0
SEQEND
  8
0
  0
POLYLINE
  8
21
 66
1
 10
0.0000
 20
0.0000
 30
0.0000
 40
0.1524
 41
0.1524
 70
0
  0
VERTEX
  8
21
 10
32.8110
 20
4.8350
 30
0.0000
  0
VERTEX
  8
21
 10
32.8110
 20
6.3590
 30
0.0000
  0
SEQEND
  8
0
  0
POLYLINE
  8
21
 66
1
 10
0.0000
 20
0.0000
 30
0.0000
 40
0.0762
 41
0.0762
 70
0
  0
VERTEX
  8
21
 10
32.8491
 20
6.3590
 30
0.0000
 42
1.0000
  0
VERTEX
  8
21
 10
32.7729
 20
6.3590
 30
0.0000
  0
SEQEND
  8
0
  0
POLYLINE
  8
21
 66
1
 10
0.0000
 20
0.0000
 30
0.0000
 40
0.0762
 41
0.0762
 70
0
  0
VERTEX
  8
21
 10
32.7729
 20
4.8350
 30
0.0000
 42
1.0000
  0
VERTEX
  8
21
 10
32.8491
 20
4.8350
 30
0.0000
  0
SEQEND
  8
0
  0
POLYLINE
  8
21
 66
1
 10
0.0000
 20
0.0000
 30
0.0000
 40
0.1524
 41
0.1524
 70
0
  0
VERTEX
  8
21
 10
32.5570
 20
6.3590
 30
0.0000
  0
VERTEX
  8
21
 10
32.8110
 20
6.3590
 30
0.0000
  0
SEQEND
  8
0
  0
POLYLINE
  8
21
 66
1
 10
0.0000
 20
0.0000
 30
0.0000
 40
0.0762
 41
0.0762
 70
0
  0
VERTEX
  8
21
 10
32.8110
 20
6.3209
 30
0.0000
 42
1.0000
  0
VERTEX
  8
21
 10
32.8110
 20
6.3971
 30
0.0000
  0
SEQEND
  8
0
  0
POLYLINE
  8
21
 66
1
 10
0.0000
 20
0.0000
 30
0.0000
 40
0.0762
 41
0.0762
 70
0
  0
VERTEX
  8
21
 10
32.5570
 20
6.3971
 30
0.0000
 42
1.0000
  0
VERTEX
  8
21
 10
32.5570
 20
6.3209
 30
0.0000
  0
SEQEND
  8
0
  0
POLYLINE
  8
21
 66
1
 10
0.0000
 20
0.0000
 30
0.0000
 40
0.1524
 41
0.1524
 70
0
  0
VERTEX
  8
21
 10
26.2070
 20
6.3590
 30
0.0000
  0
VERTEX
  8
21
 10
26.4610
 20
6.3590
 30
0.0000
  0
SEQEND
  8
0
  0
POLYLINE
  8
21
 66
1
 10
0.0000
 20
0.0000
 30
0.0000
 40
0.0762
 41
0.0762
 70
0
  0
VERTEX
  8
21
 10
26.4610
 20
6.3209
 30
0.0000
 42
1.0000
  0
VERTEX
  8
21
 10
26.4610
 20
6.3971
 30
0.0000
  0
SEQEND
  8
0
  0
POLYLINE
  8
21
 66
1
 10
0.0000
 20
0.0000
 30
0.0000
 40
0.0762
 41
0.0762
 70
0
  0
VERTEX
  8
21
 10
26.2070
 20
6.3971
 30
0.0000
 42
1.0000
  0
VERTEX
  8
21
 10
26.2070
 20
6.3209
 30
0.0000
  0
SEQEND
  8
0
  0
POLYLINE
  8
21
 66
1
 10
0.0000
 20
0.0000
 30
0.0000
 40
0.1524
 41
0.1524
 70
0
  0
VERTEX
  8
21
 10
26.2070
 20
6.3590
 30
0.0000
  0
VERTEX
  8
21
 10
26.2070
 20
4.8350
 30
0.0000
  0
SEQEND
  8
0
  0
POLYLINE
  8
21
 66
1
 10
0.0000
 20
0.0000
 30
0.0000
 40
0.0762
 41
0.0762
 70
0
  0
VERTEX
  8
21
 10
26.1689
 20
4.8350
 30
0.0000
 42
1.0000
  0
VERTEX
  8
21
 10
26.2451
 20
4.8350
 30
0.0000
  0
SEQEND
  8
0
  0
POLYLINE
  8
21
 66
1
 10
0.0000
 20
0.0000
 30
0.0000
 40
0.0762
 41
0.0762
 70
0
  0
VERTEX
  8
21
 10
26.2451
 20
6.3590
 30
0.0000
 42
1.0000
  0
VERTEX
  8
21
 10
26.1689
 20
6.3590
 30
0.0000
  0
SEQEND
  8
0
  0
POLYLINE
  8
21
 66
1
 10
0.0000
 20
0.0000
 30
0.0000
 40
0.1524
 41
0.1524
 70
0
  0
VERTEX
  8
21
 10
26.4610
 20
4.8350
 30
0.0000
  0
VERTEX
  8
21
 10
26.2070
 20
4.8350
 30
0.0000
  0
SEQEND
  8
0
  0
POLYLINE
  8
21
 66
1
 10
0.0000
 20
0.0000
 30
0.0000
 40
0.0762
 41
0.0762
 70
0
  0
VERTEX
  8
21
 10
26.2070
 20
4.8731
 30
0.0000
 42
1.0000
  0
VERTEX
  8
21
 10
26.2070
 20
4.7969
 30
0.0000
  0
SEQEND
  8
0
  0
POLYLINE
  8
21
 66
1
 10
0.0000
 20
0.0000
 30
0.0000
 40
0.0762
 41
0.0762
 70
0
  0
VERTEX
  8
21
 10
26.4610
 20
4.7969
 30
0.0000
 42
1.0000
  0
VERTEX
  8
21
 10
26.4610
 20
4.8731
 30
0.0000
  0
SEQEND
  8
0
  0
POLYLINE
  8
21
 66
1
 10
0.0000
 20
0.0000
 30
0.0000
 40
0.0508
 41
0.0508
 70
0
  0
VERTEX
  8
21
 10
28.2390
 20
8.6450
 30
0.0000
  0
VERTEX
  8
21
 10
28.2390
 20
8.3910
 30
0.0000
  0
SEQEND
  8
0
  0
POLYLINE
  8
21
 66
1
 10
0.0000
 20
0.0000
 30
0.0000
 40
0.0254
 41
0.0254
 70
0
  0
VERTEX
  8
21
 10
28.2263
 20
8.3910
 30
0.0000
 42
1.0000
  0
VERTEX
  8
21
 10
28.2517
 20
8.3910
 30
0.0000
  0
SEQEND
  8
0
  0
POLYLINE
  8
21
 66
1
 10
0.0000
 20
0.0000
 30
0.0000
 40
0.0254
 41
0.0254
 70
0
  0
VERTEX
  8
21
 10
28.2517
 20
8.6450
 30
0.0000
 42
1.0000
  0
VERTEX
  8
21
 10
28.2263
 20
8.6450
 30
0.0000
  0
SEQEND
  8
0
  0
POLYLINE
  8
21
 66
1
 10
0.0000
 20
0.0000
 30
0.0000
 40
0.0508
 41
0.0508
 70
0
  0
VERTEX
  8
21
 10
30.7790
 20
8.3910
 30
0.0000
  0
VERTEX
  8
21
 10
28.2390
 20
8.3910
 30
0.0000
  0
SEQEND
  8
0
  0
POLYLINE
  8
21
 66
1
 10
0.0000
 20
0.0000
 30
0.0000
 40
0.0254
 41
0.0254
 70
0
  0
VERTEX
  8
21
 10
28.2390
 20
8.4037
 30
0.0000
 42
1.0000
  0
VERTEX
  8
21
 10
28.2390
 20
8.3783
 30
0.0000
  0
SEQEND
  8
0
  0
POLYLINE
  8
21
 66
1
 10
0.0000
 20
0.0000
 30
0.0000
 40
0.0254
 41
0.0254
 70
0
  0
VERTEX
  8
21
 10
30.7790
 20
8.3783
 30
0.0000
 42
1.0000
  0
VERTEX
  8
21
 10
30.7790
 20
8.4037
 30
0.0000
  0
SEQEND
  8
0
  0
POLYLINE
  8
21
 66
1
 10
0.0000
 20
0.0000
 30
0.0000
 40
0.0508
 41
0.0508
 70
0
  0
VERTEX
  8
21
 10
30.7790
 20
8.3910
 30
0.0000
  0
VERTEX
  8
21
 10
30.7790
 20
8.6450
 30
0.0000
  0
SEQEND
  8
0
  0
POLYLINE
  8
21
 66
1
 10
0.0000
 20
0.0000
 30
0.0000
 40
0.0254
 41
0.0254
 70
0
  0
VERTEX
  8
21
 10
30.7917
 20
8.6450
 30
0.0000
 42
1.0000
  0
VERTEX
  8
21
 10
30.7663
 20
8.6450
 30
0.0000
  0
SEQEND
  8
0
  0
POLYLINE
  8
21
 66
1
 10
0.0000
 20
0.0000
 30
0.0000
 40
0.0254
 41
0.0254
 70
0
  0
VERTEX
  8
21
 10
30.7663
 20
8.3910
 30
0.0000
 42
1.0000
  0
VERTEX
  8
21
 10
30.7917
 20
8.3910
 30
0.0000
  0
SEQEND
  8
0
  0
POLYLINE
  8
21
 66
1
 10
0.0000
 20
0.0000
 30
0.0000
 40
0.0508
 41
0.0508
 70
0
  0
VERTEX
  8
21
 10
30.6520
 20
2.8030
 30
0.0000
  0
VERTEX
  8
21
 10
28.2390
 20
2.8030
 30
0.0000
  0
SEQEND
  8
0
  0
POLYLINE
  8
21
 66
1
 10
0.0000
 20
0.0000
 30
0.0000
 40
0.0254
 41
0.0254
 70
0
  0
VERTEX
  8
21
 10
28.2390
 20
2.8157
 30
0.0000
 42
1.0000
  0
VERTEX
  8
21
 10
28.2390
 20
2.7903
 30
0.0000
  0
SEQEND
  8
0
  0
POLYLINE
  8
21
 66
1
 10
0.0000
 20
0.0000
 30
0.0000
 40
0.0254
 41
0.0254
 70
0
  0
VERTEX
  8
21
 10
30.6520
 20
2.7903
 30
0.0000
 42
1.0000
  0
VERTEX
  8
21
 10
30.6520
 20
2.8157
 30
0.0000
  0
SEQEND
  8
0
  0
POLYLINE
  8
21
 66
1
 10
0.0000
 20
0.0000
 30
0.0000
 40
0.0508
 41
0.0508
 70
0
  0
VERTEX
  8
21
 10
30.6520
 20
2.8030
 30
0.0000
  0
VERTEX
  8
21
 10
30.6520
 20
2.5490
 30
0.0000
  0
SEQEND
  8
0
  0
POLYLINE
  8
21
 66
1
 10
0.0000
 20
0.0000
 30
0.0000
 40
0.0254
 41
0.0254
 70
0
  0
VERTEX
  8
21
 10
30.6393
 20
2.5490
 30
0.0000
 42
1.0000
  0
VERTEX
  8
21
 10
30.6647
 20
2.5490
 30
0.0000
  0
SEQEND
  8
0
  0
POLYLINE
  8
21
 66
1
 10
0.0000
 20
0.0000
 30
0.0000
 40
0.0254
 41
0.0254
 70
0
  0
VERTEX
  8
21
 10
30.6647
 20
2.8030
 30
0.0000
 42
1.0000
  0
VERTEX
  8
21
 10
30.6393
 20
2.8030
 30
0.0000
  0
SEQEND
  8
0
  0
POLYLINE
  8
21
 66
1
 10
0.0000
 20
0.0000
 30
0.0000
 40
0.0508
 41
0.0508
 70
0
  0
VERTEX
  8
21
 10
28.2390
 20
2.8030
 30
0.0000
  0
VERTEX
  8
21
 10
28.2390
 20
2.5490
 30
0.0000
  0
SEQEND
  8
0
  0
POLYLINE
  8
21
 66
1
 10
0.0000
 20
0.0000
 30
0.0000
 40
0.0254
 41
0.0254
 70
0
  0
VERTEX
  8
21
 10
28.2263
 20
2.5490
 30
0.0000
 42
1.0000
  0
VERTEX
  8
21
 10
28.2517
 20
2.5490
 30
0.0000
  0
SEQEND
  8
0
  0
POLYLINE
  8
21
 66
1
 10
0.0000
 20
0.0000
 30
0.0000
 40
0.0254
 41
0.0254
 70
0
  0
VERTEX
  8
21
 10
28.2517
 20
2.8030
 30
0.0000
 42
1.0000
  0
VERTEX
  8
21
 10
28.2263
 20
2.8030
 30
0.0000
  0
SEQEND
  8
0
  0
POLYLINE
  8
21
 66
1
 10
0.0000
 20
0.0000
 30
0.0000
 40
0.1524
 41
0.1524
 70
0
  0
VERTEX
  8
21
 10
27.3500
 20
2.5490
 30
0.0000
  0
VERTEX
  8
21
 10
28.2390
 20
2.5490
 30
0.0000
  0
SEQEND
  8
0
  0
POLYLINE
  8
21
 66
1
 10
0.0000
 20
0.0000
 30
0.0000
 40
0.0762
 41
0.0762
 70
0
  0
VERTEX
  8
21
 10
28.2390
 20
2.5109
 30
0.0000
 42
1.0000
  0
VERTEX
  8
21
 10
28.2390
 20
2.5871
 30
0.0000
  0
SEQEND
  8
0
  0
POLYLINE
  8
21
 66
1
 10
0.0000
 20
0.0000
 30
0.0000
 40
0.0762
 41
0.0762
 70
0
  0
VERTEX
  8
21
 10
27.3500
 20
2.5871
 30
0.0000
 42
1.0000
  0
VERTEX
  8
21
 10
27.3500
 20
2.5109
 30
0.0000
  0
SEQEND
  8
0
  0
POLYLINE
  8
21
 66
1
 10
0.0000
 20
0.0000
 30
0.0000
 40
0.1524
 41
0.1524
 70
0
  0
VERTEX
  8
21
 10
31.6680
 20
8.6450
 30
0.0000
  0
VERTEX
  8
21
 10
30.7790
 20
8.6450
 30
0.0000
  0
SEQEND
  8
0
  0
POLYLINE
  8
21
 66
1
 10
0.0000
 20
0.0000
 30
0.0000
 40
0.0762
 41
0.0762
 70
0
  0
VERTEX
  8
21
 10
30.7790
 20
8.6831
 30
0.0000
 42
1.0000
  0
VERTEX
  8
21
 10
30.7790
 20
8.6069
 30
0.0000
  0
SEQEND
  8
0
  0
POLYLINE
  8
21
 66
1
 10
0.0000
 20
0.0000
 30
0.0000
 40
0.0762
 41
0.0762
 70
0
  0
VERTEX
  8
21
 10
31.6680
 20
8.6069
 30
0.0000
 42
1.0000
  0
VERTEX
  8
21
 10
31.6680
 20
8.6831
 30
0.0000
  0
SEQEND
  8
0
  0
POLYLINE
  8
21
 66
1
 10
0.0000
 20
0.0000
 30
0.0000
 40
0.1524
 41
0.1524
 70
0
  0
VERTEX
  8
21
 10
30.7790
 20
8.6450
 30
0.0000
  0
VERTEX
  8
21
 10
28.2390
 20
8.6450
 30
0.0000
  0
SEQEND
  8
0
  0
POLYLINE
  8
21
 66
1
 10
0.0000
 20
0.0000
 30
0.0000
 40
0.0762
 41
0.0762
 70
0
  0
VERTEX
  8
21
 10
28.2390
 20
8.6831
 30
0.0000
 42
1.0000
  0
VERTEX
  8
21
 10
28.2390
 20
8.6069
 30
0.0000
  0
SEQEND
  8
0
  0
POLYLINE
  8
21
 66
1
 10
0.0000
 20
0.0000
 30
0.0000
 40
0.0762
 41
0.0762
 70
0
  0
VERTEX
  8
21
 10
30.7790
 20
8.6069
 30
0.0000
 42
1.0000
  0
VERTEX
  8
21
 10
30.7790
 20
8.6831
 30
0.0000
  0
SEQEND
  8
0
  0
POLYLINE
  8
21
 66
1
 10
0.0000
 20
0.0000
 30
0.0000
 40
0.1524
 41
0.1524
 70
0
  0
VERTEX
  8
21
 10
28.2390
 20
8.6450
 30
0.0000
  0
VERTEX
  8
21
 10
27.3500
 20
8.6450
 30
0.0000
  0
SEQEND
  8
0
  0
POLYLINE
  8
21
 66
1
 10
0.0000
 20
0.0000
 30
0.0000
 40
0.0762
 41
0.0762
 70
0
  0
VERTEX
  8
21
 10
27.3500
 20
8.6831
 30
0.0000
 42
1.0000
  0
VERTEX
  8
21
 10
27.3500
 20
8.6069
 30
0.0000
  0
SEQEND
  8
0
  0
POLYLINE
  8
21
 66
1
 10
0.0000
 20
0.0000
 30
0.0000
 40
0.0762
 41
0.0762
 70
0
  0
VERTEX
  8
21
 10
28.2390
 20
8.6069
 30
0.0000
 42
1.0000
  0
VERTEX
  8
21
 10
28.2390
 20
8.6831
 30
0.0000
  0
SEQEND
  8
0
  0
POLYLINE
  8
21
 66
1
 10
0.0000
 20
0.0000
 30
0.0000
 40
0.1524
 41
0.1524
 70
0
  0
VERTEX
  8
21
 10
28.2390
 20
2.5490
 30
0.0000
  0
VERTEX
  8
21
 10
30.6520
 20
2.5490
 30
0.0000
  0
SEQEND
  8
0
  0
POLYLINE
  8
21
 66
1
 10
0.0000
 20
0.0000
 30
0.0000
 40
0.0762
 41
0.0762
 70
0
  0
VERTEX
  8
21
 10
30.6520
 20
2.5109
 30
0.0000
 42
1.0000
  0
VERTEX
  8
21
 10
30.6520
 20
2.5871
 30
0.0000
  0
SEQEND
  8
0
  0
POLYLINE
  8
21
 66
1
 10
0.0000
 20
0.0000
 30
0.0000
 40
0.0762
 41
0.0762
 70
0
  0
VERTEX
  8
21
 10
28.2390
 20
2.5871
 30
0.0000
 42
1.0000
  0
VERTEX
  8
21
 10
28.2390
 20
2.5109
 30
0.0000
  0
SEQEND
  8
0
  0
POLYLINE
  8
21
 66
1
 10
0.0000
 20
0.0000
 30
0.0000
 40
0.1524
 41
0.1524
 70
0
  0
VERTEX
  8
21
 10
30.6520
 20
2.5490
 30
0.0000
  0
VERTEX
  8
21
 10
31.6680
 20
2.5490
 30
0.0000
  0
SEQEND
  8
0
  0
POLYLINE
  8
21
 66
1
 10
0.0000
 20
0.0000
 30
0.0000
 40
0.0762
 41
0.0762
 70
0
  0
VERTEX
  8
21
 10
31.6680
 20
2.5109
 30
0.0000
 42
1.0000
  0
VERTEX
  8
21
 10
31.6680
 20
2.5871
 30
0.0000
  0
SEQEND
  8
0
  0
POLYLINE
  8
21
 66
1
 10
0.0000
 20
0.0000
 30
0.0000
 40
0.0762
 41
0.0762
 70
0
  0
VERTEX
  8
21
 10
30.6520
 20
2.5871
 30
0.0000
 42
1.0000
  0
VERTEX
  8
21
 10
30.6520
 20
2.5109
 30
0.0000
  0
SEQEND
  8
0
  0
POLYLINE
  8
21
 66
1
 10
0.0000
 20
0.0000
 30
0.0000
 40
0.1524
 41
0.1524
 70
0
  0
VERTEX
  8
21
 10
32.5570
 20
4.8350
 30
0.0000
  0
VERTEX
  8
21
 10
32.5570
 20
4.5810
 30
0.0000
  0
SEQEND
  8
0
  0
POLYLINE
  8
21
 66
1
 10
0.0000
 20
0.0000
 30
0.0000
 40
0.0762
 41
0.0762
 70
0
  0
VERTEX
  8
21
 10
32.5189
 20
4.5810
 30
0.0000
 42
1.0000
  0
VERTEX
  8
21
 10
32.5951
 20
4.5810
 30
0.0000
  0
SEQEND
  8
0
  0
POLYLINE
  8
21
 66
1
 10
0.0000
 20
0.0000
 30
0.0000
 40
0.0762
 41
0.0762
 70
0
  0
VERTEX
  8
21
 10
32.5951
 20
4.8350
 30
0.0000
 42
1.0000
  0
VERTEX
  8
21
 10
32.5189
 20
4.8350
 30
0.0000
  0
SEQEND
  8
0
  0
POLYLINE
  8
21
 66
1
 10
0.0000
 20
0.0000
 30
0.0000
 40
0.1524
 41
0.1524
 70
0
  0
VERTEX
  8
21
 10
32.5570
 20
6.3590
 30
0.0000
  0
VERTEX
  8
21
 10
32.5570
 20
6.6130
 30
0.0000
  0
SEQEND
  8
0
  0
POLYLINE
  8
21
 66
1
 10
0.0000
 20
0.0000
 30
0.0000
 40
0.0762
 41
0.0762
 70
0
  0
VERTEX
  8
21
 10
32.5951
 20
6.6130
 30
0.0000
 42
1.0000
  0
VERTEX
  8
21
 10
32.5189
 20
6.6130
 30
0.0000
  0
SEQEND
  8
0
  0
POLYLINE
  8
21
 66
1
 10
0.0000
 20
0.0000
 30
0.0000
 40
0.0762
 41
0.0762
 70
0
  0
VERTEX
  8
21
 10
32.5189
 20
6.3590
 30
0.0000
 42
1.0000
  0
VERTEX
  8
21
 10
32.5951
 20
6.3590
 30
0.0000
  0
SEQEND
  8
0
  0
POLYLINE
  8
21
 66
1
 10
0.0000
 20
0.0000
 30
0.0000
 40
0.1524
 41
0.1524
 70
0
  0
VERTEX
  8
21
 10
26.4610
 20
4.8350
 30
0.0000
  0
VERTEX
  8
21
 10
26.4610
 20
4.5810
 30
0.0000
  0
SEQEND
  8
0
  0
POLYLINE
  8
21
 66
1
 10
0.0000
 20
0.0000
 30
0.0000
 40
0.0762
 41
0.0762
 70
0
  0
VERTEX
  8
21
 10
26.4229
 20
4.5810
 30
0.0000
 42
1.0000
  0
VERTEX
  8
21
 10
26.4991
 20
4.5810
 30
0.0000
  0
SEQEND
  8
0
  0
POLYLINE
  8
21
 66
1
 10
0.0000
 20
0.0000
 30
0.0000
 40
0.0762
 41
0.0762
 70
0
  0
VERTEX
  8
21
 10
26.4991
 20
4.8350
 30
0.0000
 42
1.0000
  0
VERTEX
  8
21
 10
26.4229
 20
4.8350
 30
0.0000
  0
SEQEND
  8
0
  0
POLYLINE
  8
21
 66
1
 10
0.0000
 20
0.0000
 30
0.0000
 40
0.1524
 41
0.1524
 70
0
  0
VERTEX
  8
21
 10
26.4610
 20
6.3590
 30
0.0000
  0
VERTEX
  8
21
 10
26.4610
 20
6.6130
 30
0.0000
  0
SEQEND
  8
0
  0
POLYLINE
  8
21
 66
1
 10
0.0000
 20
0.0000
 30
0.0000
 40
0.0762
 41
0.0762
 70
0
  0
VERTEX
  8
21
 10
26.4991
 20
6.6130
 30
0.0000
 42
1.0000
  0
VERTEX
  8
21
 10
26.4229
 20
6.6130
 30
0.0000
  0
SEQEND
  8
0
  0
POLYLINE
  8
21
 66
1
 10
0.0000
 20
0.0000
 30
0.0000
 40
0.0762
 41
0.0762
 70
0
  0
VERTEX
  8
21
 10
26.4229
 20
6.3590
 30
0.0000
 42
1.0000
  0
VERTEX
  8
21
 10
26.4991
 20
6.3590
 30
0.0000
  0
SEQEND
  8
0
  0
POLYLINE
  8
21
 66
1
 10
0.0000
 20
0.0000
 30
0.0000
 40
0.1524
 41
0.1524
 70
0
  0
VERTEX
  8
21
 10
29.5090
 20
3.8190
 30
0.0000
 42
1.0000
  0
VERTEX
  8
21
 10
29.5090
 20
7.3750
 30
0.0000
 42
1.0000
  0
VERTEX
  8
21
 10
29.5090
 20
3.8190
 30
0.0000
  0
SEQEND
  8
0
  0
POLYLINE
  8
21
 66
1
 10
0.0000
 20
0.0000
 30
0.0000
 40
0.1524
 41
0.1524
 70
0
  0
VERTEX
  8
21
 10
29.5090
 20
5.3430
 30
0.0000
 42
1.0000
  0
VERTEX
  8
21
 10
29.5090
 20
5.8510
 30
0.0000
 42
1.0000
  0
VERTEX
  8
21
 10
29.5090
 20
5.3430
 30
0.0000
  0
SEQEND
  8
0
  0
INSERT
  8
17
  2
LONGP100
 10
26.2578
 20
7.8576
 30
0.0000
 41
1.5240
 42
1.5240
 43
1.0000
 50
0.0000
  0
INSERT
  8
17
  2
LONGP100
 10
26.2578
 20
7.8576
 30
0.0000
 41
1.5240
 42
1.5240
 43
1.0000
 50
0.0000
  0
INSERT
  8
17
  2
LONGP100
 10
32.7602
 20
7.8576
 30
0.0000
 41
1.5240
 42
1.5240
 43
1.0000
 50
0.0000
  0
INSERT
  8
17
  2
LONGP100
 10
32.7602
 20
7.8576
 30
0.0000
 41
1.5240
 42
1.5240
 43
1.0000
 50
0.0000
  0
INSERT
  8
17
  2
LONGP100
 10
26.2578
 20
3.3364
 30
0.0000
 41
1.5240
 42
1.5240
 43
1.0000
 50
0.0000
  0
INSERT
  8
17
  2
LONGP100
 10
26.2578
 20
3.3364
 30
0.0000
 41
1.5240
 42
1.5240
 43
1.0000
 50
0.0000
  0
INSERT
  8
17
  2
LONGP100
 10
32.7602
 20
3.3364
 30
0.0000
 41
1.5240
 42
1.5240
 43
1.0000
 50
0.0000
  0
INSERT
  8
17
  2
LONGP100
 10
32.7602
 20
3.3364
 30
0.0000
 41
1.5240
 42
1.5240
 43
1.0000
 50
0.0000
  0
POLYLINE
  8
21
 66
1
 10
0.0000
 20
0.0000
 30
0.0000
 40
0.1524
 41
0.1524
 70
0
  0
VERTEX
  8
21
 10
21.1250
 20
14.4170
 30
0.0000
  0
VERTEX
  8
21
 10
21.1250
 20
14.1630
 30
0.0000
  0
SEQEND
  8
0
  0
POLYLINE
  8
21
 66
1
 10
0.0000
 20
0.0000
 30
0.0000
 40
0.0762
 41
0.0762
 70
0
  0
VERTEX
  8
21
 10
21.0869
 20
14.1630
 30
0.0000
 42
1.0000
  0
VERTEX
  8
21
 10
21.1631
 20
14.1630
 30
0.0000
  0
SEQEND
  8
0
  0
POLYLINE
  8
21
 66
1
 10
0.0000
 20
0.0000
 30
0.0000
 40
0.0762
 41
0.0762
 70
0
  0
VERTEX
  8
21
 10
21.1631
 20
14.4170
 30
0.0000
 42
1.0000
  0
VERTEX
  8
21
 10
21.0869
 20
14.4170
 30
0.0000
  0
SEQEND
  8
0
  0
POLYLINE
  8
21
 66
1
 10
0.0000
 20
0.0000
 30
0.0000
 40
0.1524
 41
0.1524
 70
0
  0
VERTEX
  8
21
 10
21.1250
 20
14.4170
 30
0.0000
  0
VERTEX
  8
21
 10
19.6010
 20
14.4170
 30
0.0000
  0
SEQEND
  8
0
  0
POLYLINE
  8
21
 66
1
 10
0.0000
 20
0.0000
 30
0.0000
 40
0.0762
 41
0.0762
 70
0
  0
VERTEX
  8
21
 10
19.6010
 20
14.4551
 30
0.0000
 42
1.0000
  0
VERTEX
  8
21
 10
19.6010
 20
14.3789
 30
0.0000
  0
SEQEND
  8
0
  0
POLYLINE
  8
21
 66
1
 10
0.0000
 20
0.0000
 30
0.0000
 40
0.0762
 41
0.0762
 70
0
  0
VERTEX
  8
21
 10
21.1250
 20
14.3789
 30
0.0000
 42
1.0000
  0
VERTEX
  8
21
 10
21.1250
 20
14.4551
 30
0.0000
  0
SEQEND
  8
0
  0
POLYLINE
  8
21
 66
1
 10
0.0000
 20
0.0000
 30
0.0000
 40
0.1524
 41
0.1524
 70
0
  0
VERTEX
  8
21
 10
19.6010
 20
14.1630
 30
0.0000
  0
VERTEX
  8
21
 10
19.6010
 20
14.4170
 30
0.0000
  0
SEQEND
  8
0
  0
POLYLINE
  8
21
 66
1
 10
0.0000
 20
0.0000
 30
0.0000
 40
0.0762
 41
0.0762
 70
0
  0
VERTEX
  8
21
 10
19.6391
 20
14.4170
 30
0.0000
 42
1.0000
  0
VERTEX
  8
21
 10
19.5629
 20
14.4170
 30
0.0000
  0
SEQEND
  8
0
  0
POLYLINE
  8
21
 66
1
 10
0.0000
 20
0.0000
 30
0.0000
 40
0.0762
 41
0.0762
 70
0
  0
VERTEX
  8
21
 10
19.5629
 20
14.1630
 30
0.0000
 42
1.0000
  0
VERTEX
  8
21
 10
19.6391
 20
14.1630
 30
0.0000
  0
SEQEND
  8
0
  0
POLYLINE
  8
21
 66
1
 10
0.0000
 20
0.0000
 30
0.0000
 40
0.1524
 41
0.1524
 70
0
  0
VERTEX
  8
21
 10
19.6010
 20
7.8130
 30
0.0000
  0
VERTEX
  8
21
 10
19.6010
 20
8.0670
 30
0.0000
  0
SEQEND
  8
0
  0
POLYLINE
  8
21
 66
1
 10
0.0000
 20
0.0000
 30
0.0000
 40
0.0762
 41
0.0762
 70
0
  0
VERTEX
  8
21
 10
19.6391
 20
8.0670
 30
0.0000
 42
1.0000
  0
VERTEX
  8
21
 10
19.5629
 20
8.0670
 30
0.0000
  0
SEQEND
  8
0
  0
POLYLINE
  8
21
 66
1
 10
0.0000
 20
0.0000
 30
0.0000
 40
0.0762
 41
0.0762
 70
0
  0
VERTEX
  8
21
 10
19.5629
 20
7.8130
 30
0.0000
 42
1.0000
  0
VERTEX
  8
21
 10
19.6391
 20
7.8130
 30
0.0000
  0
SEQEND
  8
0
  0
POLYLINE
  8
21
 66
1
 10
0.0000
 20
0.0000
 30
0.0000
 40
0.1524
 41
0.1524
 70
0
  0
VERTEX
  8
21
 10
19.6010
 20
7.8130
 30
0.0000
  0
VERTEX
  8
21
 10
21.1250
 20
7.8130
 30
0.0000
  0
SEQEND
  8
0
  0
POLYLINE
  8
21
 66
1
 10
0.0000
 20
0.0000
 30
0.0000
 40
0.0762
 41
0.0762
 70
0
  0
VERTEX
  8
21
 10
21.1250
 20
7.7749
 30
0.0000
 42
1.0000
  0
VERTEX
  8
21
 10
21.1250
 20
7.8511
 30
0.0000
  0
SEQEND
  8
0
  0
POLYLINE
  8
21
 66
1
 10
0.0000
 20
0.0000
 30
0.0000
 40
0.0762
 41
0.0762
 70
0
  0
VERTEX
  8
21
 10
19.6010
 20
7.8511
 30
0.0000
 42
1.0000
  0
VERTEX
  8
21
 10
19.6010
 20
7.7749
 30
0.0000
  0
SEQEND
  8
0
  0
POLYLINE
  8
21
 66
1
 10
0.0000
 20
0.0000
 30
0.0000
 40
0.1524
 41
0.1524
 70
0
  0
VERTEX
  8
21
 10
21.1250
 20
8.0670
 30
0.0000
  0
VERTEX
  8
21
 10
21.1250
 20
7.8130
 30
0.0000
  0
SEQEND
  8
0
  0
POLYLINE
  8
21
 66
1
 10
0.0000
 20
0.0000
 30
0.0000
 40
0.0762
 41
0.0762
 70
0
  0
VERTEX
  8
21
 10
21.0869
 20
7.8130
 30
0.0000
 42
1.0000
  0
VERTEX
  8
21
 10
21.1631
 20
7.8130
 30
0.0000
  0
SEQEND
  8
0
  0
POLYLINE
  8
21
 66
1
 10
0.0000
 20
0.0000
 30
0.0000
 40
0.0762
 41
0.0762
 70
0
  0
VERTEX
  8
21
 10
21.1631
 20
8.0670
 30
0.0000
 42
1.0000
  0
VERTEX
  8
21
 10
21.0869
 20
8.0670
 30
0.0000
  0
SEQEND
  8
0
  0
POLYLINE
  8
21
 66
1
 10
0.0000
 20
0.0000
 30
0.0000
 40
0.0508
 41
0.0508
 70
0
  0
VERTEX
  8
21
 10
17.3150
 20
9.8450
 30
0.0000
  0
VERTEX
  8
21
 10
17.5690
 20
9.8450
 30
0.0000
  0
SEQEND
  8
0
  0
POLYLINE
  8
21
 66
1
 10
0.0000
 20
0.0000
 30
0.0000
 40
0.0254
 41
0.0254
 70
0
  0
VERTEX
  8
21
 10
17.5690
 20
9.8323
 30
0.0000
 42
1.0000
  0
VERTEX
  8
21
 10
17.5690
 20
9.8577
 30
0.0000
  0
SEQEND
  8
0
  0
POLYLINE
  8
21
 66
1
 10
0.0000
 20
0.0000
 30
0.0000
 40
0.0254
 41
0.0254
 70
0
  0
VERTEX
  8
21
 10
17.3150
 20
9.8577
 30
0.0000
 42
1.0000
  0
VERTEX
  8
21
 10
17.3150
 20
9.8323
 30
0.0000
  0
SEQEND
  8
0
  0
POLYLINE
  8
21
 66
1
 10
0.0000
 20
0.0000
 30
0.0000
 40
0.0508
 41
0.0508
 70
0
  0
VERTEX
  8
21
 10
17.5690
 20
12.3850
 30
0.0000
  0
VERTEX
  8
21
 10
17.5690
 20
9.8450
 30
0.0000
  0
SEQEND
  8
0
  0
POLYLINE
  8
21
 66
1
 10
0.0000
 20
0.0000
 30
0.0000
 40
0.0254
 41
0.0254
 70
0
  0
VERTEX
  8
21
 10
17.5563
 20
9.8450
 30
0.0000
 42
1.0000
  0
VERTEX
  8
21
 10
17.5817
 20
9.8450
 30
0.0000
  0
SEQEND
  8
0
  0
POLYLINE
  8
21
 66
1
 10
0.0000
 20
0.0000
 30
0.0000
 40
0.0254
 41
0.0254
 70
0
  0
VERTEX
  8
21
 10
17.5817
 20
12.3850
 30
0.0000
 42
1.0000
  0
VERTEX
  8
21
 10
17.5563
 20
12.3850
 30
0.0000
  0
SEQEND
  8
0
  0
POLYLINE
  8
21
 66
1
 10
0.0000
 20
0.0000
 30
0.0000
 40
0.0508
 41
0.0508
 70
0
  0
VERTEX
  8
21
 10
17.5690
 20
12.3850
 30
0.0000
  0
VERTEX
  8
21
 10
17.3150
 20
12.3850
 30
0.0000
  0
SEQEND
  8
0
  0
POLYLINE
  8
21
 66
1
 10
0.0000
 20
0.0000
 30
0.0000
 40
0.0254
 41
0.0254
 70
0
  0
VERTEX
  8
21
 10
17.3150
 20
12.3977
 30
0.0000
 42
1.0000
  0
VERTEX
  8
21
 10
17.3150
 20
12.3723
 30
0.0000
  0
SEQEND
  8
0
  0
POLYLINE
  8
21
 66
1
 10
0.0000
 20
0.0000
 30
0.0000
 40
0.0254
 41
0.0254
 70
0
  0
VERTEX
  8
21
 10
17.5690
 20
12.3723
 30
0.0000
 42
1.0000
  0
VERTEX
  8
21
 10
17.5690
 20
12.3977
 30
0.0000
  0
SEQEND
  8
0
  0
POLYLINE
  8
21
 66
1
 10
0.0000
 20
0.0000
 30
0.0000
 40
0.0508
 41
0.0508
 70
0
  0
VERTEX
  8
21
 10
23.1570
 20
12.2580
 30
0.0000
  0
VERTEX
  8
21
 10
23.1570
 20
9.8450
 30
0.0000
  0
SEQEND
  8
0
  0
POLYLINE
  8
21
 66
1
 10
0.0000
 20
0.0000
 30
0.0000
 40
0.0254
 41
0.0254
 70
0
  0
VERTEX
  8
21
 10
23.1443
 20
9.8450
 30
0.0000
 42
1.0000
  0
VERTEX
  8
21
 10
23.1697
 20
9.8450
 30
0.0000
  0
SEQEND
  8
0
  0
POLYLINE
  8
21
 66
1
 10
0.0000
 20
0.0000
 30
0.0000
 40
0.0254
 41
0.0254
 70
0
  0
VERTEX
  8
21
 10
23.1697
 20
12.2580
 30
0.0000
 42
1.0000
  0
VERTEX
  8
21
 10
23.1443
 20
12.2580
 30
0.0000
  0
SEQEND
  8
0
  0
POLYLINE
  8
21
 66
1
 10
0.0000
 20
0.0000
 30
0.0000
 40
0.0508
 41
0.0508
 70
0
  0
VERTEX
  8
21
 10
23.1570
 20
12.2580
 30
0.0000
  0
VERTEX
  8
21
 10
23.4110
 20
12.2580
 30
0.0000
  0
SEQEND
  8
0
  0
POLYLINE
  8
21
 66
1
 10
0.0000
 20
0.0000
 30
0.0000
 40
0.0254
 41
0.0254
 70
0
  0
VERTEX
  8
21
 10
23.4110
 20
12.2453
 30
0.0000
 42
1.0000
  0
VERTEX
  8
21
 10
23.4110
 20
12.2707
 30
0.0000
  0
SEQEND
  8
0
  0
POLYLINE
  8
21
 66
1
 10
0.0000
 20
0.0000
 30
0.0000
 40
0.0254
 41
0.0254
 70
0
  0
VERTEX
  8
21
 10
23.1570
 20
12.2707
 30
0.0000
 42
1.0000
  0
VERTEX
  8
21
 10
23.1570
 20
12.2453
 30
0.0000
  0
SEQEND
  8
0
  0
POLYLINE
  8
21
 66
1
 10
0.0000
 20
0.0000
 30
0.0000
 40
0.0508
 41
0.0508
 70
0
  0
VERTEX
  8
21
 10
23.1570
 20
9.8450
 30
0.0000
  0
VERTEX
  8
21
 10
23.4110
 20
9.8450
 30
0.0000
  0
SEQEND
  8
0
  0
POLYLINE
  8
21
 66
1
 10
0.0000
 20
0.0000
 30
0.0000
 40
0.0254
 41
0.0254
 70
0
  0
VERTEX
  8
21
 10
23.4110
 20
9.8323
 30
0.0000
 42
1.0000
  0
VERTEX
  8
21
 10
23.4110
 20
9.8577
 30
0.0000
  0
SEQEND
  8
0
  0
POLYLINE
  8
21
 66
1
 10
0.0000
 20
0.0000
 30
0.0000
 40
0.0254
 41
0.0254
 70
0
  0
VERTEX
  8
21
 10
23.1570
 20
9.8577
 30
0.0000
 42
1.0000
  0
VERTEX
  8
21
 10
23.1570
 20
9.8323
 30
0.0000
  0
SEQEND
  8
0
  0
POLYLINE
  8
21
 66
1
 10
0.0000
 20
0.0000
 30
0.0000
 40
0.1524
 41
0.1524
 70
0
  0
VERTEX
  8
21
 10
23.4110
 20
8.9560
 30
0.0000
  0
VERTEX
  8
21
 10
23.4110
 20
9.8450
 30
0.0000
  0
SEQEND
  8
0
  0
POLYLINE
  8
21
 66
1
 10
0.0000
 20
0.0000
 30
0.0000
 40
0.0762
 41
0.0762
 70
0
  0
VERTEX
  8
21
 10
23.4491
 20
9.8450
 30
0.0000
 42
1.0000
  0
VERTEX
  8
21
 10
23.3729
 20
9.8450
 30
0.0000
  0
SEQEND
  8
0
  0
POLYLINE
  8
21
 66
1
 10
0.0000
 20
0.0000
 30
0.0000
 40
0.0762
 41
0.0762
 70
0
  0
VERTEX
  8
21
 10
23.3729
 20
8.9560
 30
0.0000
 42
1.0000
  0
VERTEX
  8
21
 10
23.4491
 20
8.9560
 30
0.0000
  0
SEQEND
  8
0
  0
POLYLINE
  8
21
 66
1
 10
0.0000
 20
0.0000
 30
0.0000
 40
0.1524
 41
0.1524
 70
0
  0
VERTEX
  8
21
 10
17.3150
 20
13.2740
 30
0.0000
  0
VERTEX
  8
21
 10
17.3150
 20
12.3850
 30
0.0000
  0
SEQEND
  8
0
  0
POLYLINE
  8
21
 66
1
 10
0.0000
 20
0.0000
 30
0.0000
 40
0.0762
 41
0.0762
 70
0
  0
VERTEX
  8
21
 10
17.2769
 20
12.3850
 30
0.0000
 42
1.0000
  0
VERTEX
  8
21
 10
17.3531
 20
12.3850
 30
0.0000
  0
SEQEND
  8
0
  0
POLYLINE
  8
21
 66
1
 10
0.0000
 20
0.0000
 30
0.0000
 40
0.0762
 41
0.0762
 70
0
  0
VERTEX
  8
21
 10
17.3531
 20
13.2740
 30
0.0000
 42
1.0000
  0
VERTEX
  8
21
 10
17.2769
 20
13.2740
 30
0.0000
  0
SEQEND
  8
0
  0
POLYLINE
  8
21
 66
1
 10
0.0000
 20
0.0000
 30
0.0000
 40
0.1524
 41
0.1524
 70
0
  0
VERTEX
  8
21
 10
17.3150
 20
12.3850
 30
0.0000
  0
VERTEX
  8
21
 10
17.3150
 20
9.8450
 30
0.0000
  0
SEQEND
  8
0
  0
POLYLINE
  8
21
 66
1
 10
0.0000
 20
0.0000
 30
0.0000
 40
0.0762
 41
0.0762
 70
0
  0
VERTEX
  8
21
 10
17.2769
 20
9.8450
 30
0.0000
 42
1.0000
  0
VERTEX
  8
21
 10
17.3531
 20
9.8450
 30
0.0000
  0
SEQEND
  8
0
  0
POLYLINE
  8
21
 66
1
 10
0.0000
 20
0.0000
 30
0.0000
 40
0.0762
 41
0.0762
 70
0
  0
VERTEX
  8
21
 10
17.3531
 20
12.3850
 30
0.0000
 42
1.0000
  0
VERTEX
  8
21
 10
17.2769
 20
12.3850
 30
0.0000
  0
SEQEND
  8
0
  0
POLYLINE
  8
21
 66
1
 10
0.0000
 20
0.0000
 30
0.0000
 40
0.1524
 41
0.1524
 70
0
  0
VERTEX
  8
21
 10
17.3150
 20
9.8450
 30
0.0000
  0
VERTEX
  8
21
 10
17.3150
 20
8.9560
 30
0.0000
  0
SEQEND
  8
0
  0
POLYLINE
  8
21
 66
1
 10
0.0000
 20
0.0000
 30
0.0000
 40
0.0762
 41
0.0762
 70
0
  0
VERTEX
  8
21
 10
17.2769
 20
8.9560
 30
0.0000
 42
1.0000
  0
VERTEX
  8
21
 10
17.3531
 20
8.9560
 30
0.0000
  0
SEQEND
  8
0
  0
POLYLINE
  8
21
 66
1
 10
0.0000
 20
0.0000
 30
0.0000
 40
0.0762
 41
0.0762
 70
0
  0
VERTEX
  8
21
 10
17.3531
 20
9.8450
 30
0.0000
 42
1.0000
  0
VERTEX
  8
21
 10
17.2769
 20
9.8450
 30
0.0000
  0
SEQEND
  8
0
  0
POLYLINE
  8
21
 66
1
 10
0.0000
 20
0.0000
 30
0.0000
 40
0.1524
 41
0.1524
 70
0
  0
VERTEX
  8
21
 10
23.4110
 20
9.8450
 30
0.0000
  0
VERTEX
  8
21
 10
23.4110
 20
12.2580
 30
0.0000
  0
SEQEND
  8
0
  0
POLYLINE
  8
21
 66
1
 10
0.0000
 20
0.0000
 30
0.0000
 40
0.0762
 41
0.0762
 70
0
  0
VERTEX
  8
21
 10
23.4491
 20
12.2580
 30
0.0000
 42
1.0000
  0
VERTEX
  8
21
 10
23.3729
 20
12.2580
 30
0.0000
  0
SEQEND
  8
0
  0
POLYLINE
  8
21
 66
1
 10
0.0000
 20
0.0000
 30
0.0000
 40
0.0762
 41
0.0762
 70
0
  0
VERTEX
  8
21
 10
23.3729
 20
9.8450
 30
0.0000
 42
1.0000
  0
VERTEX
  8
21
 10
23.4491
 20
9.8450
 30
0.0000
  0
SEQEND
  8
0
  0
POLYLINE
  8
21
 66
1
 10
0.0000
 20
0.0000
 30
0.0000
 40
0.1524
 41
0.1524
 70
0
  0
VERTEX
  8
21
 10
23.4110
 20
12.2580
 30
0.0000
  0
VERTEX
  8
21
 10
23.4110
 20
13.2740
 30
0.0000
  0
SEQEND
  8
0
  0
POLYLINE
  8
21
 66
1
 10
0.0000
 20
0.0000
 30
0.0000
 40
0.0762
 41
0.0762
 70
0
  0
VERTEX
  8
21
 10
23.4491
 20
13.2740
 30
0.0000
 42
1.0000
  0
VERTEX
  8
21
 10
23.3729
 20
13.2740
 30
0.0000
  0
SEQEND
  8
0
  0
POLYLINE
  8
21
 66
1
 10
0.0000
 20
0.0000
 30
0.0000
 40
0.0762
 41
0.0762
 70
0
  0
VERTEX
  8
21
 10
23.3729
 20
12.2580
 30
0.0000
 42
1.0000
  0
VERTEX
  8
21
 10
23.4491
 20
12.2580
 30
0.0000
  0
SEQEND
  8
0
  0
POLYLINE
  8
21
 66
1
 10
0.0000
 20
0.0000
 30
0.0000
 40
0.1524
 41
0.1524
 70
0
  0
VERTEX
  8
21
 10
21.1250
 20
14.1630
 30
0.0000
  0
VERTEX
  8
21
 10
21.3790
 20
14.1630
 30
0.0000
  0
SEQEND
  8
0
  0
POLYLINE
  8
21
 66
1
 10
0.0000
 20
0.0000
 30
0.0000
 40
0.0762
 41
0.0762
 70
0
  0
VERTEX
  8
21
 10
21.3790
 20
14.1249
 30
0.0000
 42
1.0000
  0
VERTEX
  8
21
 10
21.3790
 20
14.2011
 30
0.0000
  0
SEQEND
  8
0
  0
POLYLINE
  8
21
 66
1
 10
0.0000
 20
0.0000
 30
0.0000
 40
0.0762
 41
0.0762
 70
0
  0
VERTEX
  8
21
 10
21.1250
 20
14.2011
 30
0.0000
 42
1.0000
  0
VERTEX
  8
21
 10
21.1250
 20
14.1249
 30
0.0000
  0
SEQEND
  8
0
  0
POLYLINE
  8
21
 66
1
 10
0.0000
 20
0.0000
 30
0.0000
 40
0.1524
 41
0.1524
 70
0
  0
VERTEX
  8
21
 10
19.6010
 20
14.1630
 30
0.0000
  0
VERTEX
  8
21
 10
19.3470
 20
14.1630
 30
0.0000
  0
SEQEND
  8
0
  0
POLYLINE
  8
21
 66
1
 10
0.0000
 20
0.0000
 30
0.0000
 40
0.0762
 41
0.0762
 70
0
  0
VERTEX
  8
21
 10
19.3470
 20
14.2011
 30
0.0000
 42
1.0000
  0
VERTEX
  8
21
 10
19.3470
 20
14.1249
 30
0.0000
  0
SEQEND
  8
0
  0
POLYLINE
  8
21
 66
1
 10
0.0000
 20
0.0000
 30
0.0000
 40
0.0762
 41
0.0762
 70
0
  0
VERTEX
  8
21
 10
19.6010
 20
14.1249
 30
0.0000
 42
1.0000
  0
VERTEX
  8
21
 10
19.6010
 20
14.2011
 30
0.0000
  0
SEQEND
  8
0
  0
POLYLINE
  8
21
 66
1
 10
0.0000
 20
0.0000
 30
0.0000
 40
0.1524
 41
0.1524
 70
0
  0
VERTEX
  8
21
 10
21.1250
 20
8.0670
 30
0.0000
  0
VERTEX
  8
21
 10
21.3790
 20
8.0670
 30
0.0000
  0
SEQEND
  8
0
  0
POLYLINE
  8
21
 66
1
 10
0.0000
 20
0.0000
 30
0.0000
 40
0.0762
 41
0.0762
 70
0
  0
VERTEX
  8
21
 10
21.3790
 20
8.0289
 30
0.0000
 42
1.0000
  0
VERTEX
  8
21
 10
21.3790
 20
8.1051
 30
0.0000
  0
SEQEND
  8
0
  0
POLYLINE
  8
21
 66
1
 10
0.0000
 20
0.0000
 30
0.0000
 40
0.0762
 41
0.0762
 70
0
  0
VERTEX
  8
21
 10
21.1250
 20
8.1051
 30
0.0000
 42
1.0000
  0
VERTEX
  8
21
 10
21.1250
 20
8.0289
 30
0.0000
  0
SEQEND
  8
0
  0
POLYLINE
  8
21
 66
1
 10
0.0000
 20
0.0000
 30
0.0000
 40
0.1524
 41
0.1524
 70
0
  0
VERTEX
  8
21
 10
19.6010
 20
8.0670
 30
0.0000
  0
VERTEX
  8
21
 10
19.3470
 20
8.0670
 30
0.0000
  0
SEQEND
  8
0
  0
POLYLINE
  8
21
 66
1
 10
0.0000
 20
0.0000
 30
0.0000
 40
0.0762
 41
0.0762
 70
0
  0
VERTEX
  8
21
 10
19.3470
 20
8.1051
 30
0.0000
 42
1.0000
  0
VERTEX
  8
21
 10
19.3470
 20
8.0289
 30
0.0000
  0
SEQEND
  8
0
  0
POLYLINE
  8
21
 66
1
 10
0.0000
 20
0.0000
 30
0.0000
 40
0.0762
 41
0.0762
 70
0
  0
VERTEX
  8
21
 10
19.6010
 20
8.0289
 30
0.0000
 42
1.0000
  0
VERTEX
  8
21
 10
19.6010
 20
8.1051
 30
0.0000
  0
SEQEND
  8
0
  0
POLYLINE
  8
21
 66
1
 10
0.0000
 20
0.0000
 30
0.0000
 40
0.1524
 41
0.1524
 70
0
  0
VERTEX
  8
21
 10
20.3630
 20
9.3370
 30
0.0000
 42
1.0000
  0
VERTEX
  8
21
 10
20.3630
 20
12.8930
 30
0.0000
 42
1.0000
  0
VERTEX
  8
21
 10
20.3630
 20
9.3370
 30
0.0000
  0
SEQEND
  8
0
  0
POLYLINE
  8
21
 66
1
 10
0.0000
 20
0.0000
 30
0.0000
 40
0.1524
 41
0.1524
 70
0
  0
VERTEX
  8
21
 10
20.3630
 20
10.8610
 30
0.0000
 42
1.0000
  0
VERTEX
  8
21
 10
20.3630
 20
11.3690
 30
0.0000
 42
1.0000
  0
VERTEX
  8
21
 10
20.3630
 20
10.8610
 30
0.0000
  0
SEQEND
  8
0
  0
INSERT
  8
17
  2
LONGP100
 10
18.1024
 20
7.8638
 30
0.0000
 41
1.5240
 42
1.5240
 43
1.0000
 50
90.0000
  0
INSERT
  8
17
  2
LONGP100
 10
18.1024
 20
7.8638
 30
0.0000
 41
1.5240
 42
1.5240
 43
1.0000
 50
90.0000
  0
INSERT
  8
17
  2
LONGP100
 10
18.1024
 20
14.3662
 30
0.0000
 41
1.5240
 42
1.5240
 43
1.0000
 50
90.0000
  0
INSERT
  8
17
  2
LONGP100
 10
18.1024
 20
14.3662
 30
0.0000
 41
1.5240
 42
1.5240
 43
1.0000
 50
90.0000
  0
INSERT
  8
17
  2
LONGP100
 10
22.6236
 20
7.8638
 30
0.0000
 41
1.5240
 42
1.5240
 43
1.0000
 50
90.0000
  0
INSERT
  8
17
  2
LONGP100
 10
22.6236
 20
7.8638
 30
0.0000
 41
1.5240
 42
1.5240
 43
1.0000
 50
90.0000
  0
INSERT
  8
17
  2
LONGP100
 10
22.6236
 20
14.3662
 30
0.0000
 41
1.5240
 42
1.5240
 43
1.0000
 50
90.0000
  0
INSERT
  8
17
  2
LONGP100
 10
22.6236
 20
14.3662
 30
0.0000
 41
1.5240
 42
1.5240
 43
1.0000
 50
90.0000
  0
POLYLINE
  8
21
 66
1
 10
0.0000
 20
0.0000
 30
0.0000
 40
0.1524
 41
0.1524
 70
0
  0
VERTEX
  8
21
 10
8.3370
 20
13.0880
 30
0.0000
  0
VERTEX
  8
21
 10
8.5910
 20
13.0880
 30
0.0000
  0
SEQEND
  8
0
  0
POLYLINE
  8
21
 66
1
 10
0.0000
 20
0.0000
 30
0.0000
 40
0.0762
 41
0.0762
 70
0
  0
VERTEX
  8
21
 10
8.5910
 20
13.0499
 30
0.0000
 42
1.0000
  0
VERTEX
  8
21
 10
8.5910
 20
13.1261
 30
0.0000
  0
SEQEND
  8
0
  0
POLYLINE
  8
21
 66
1
 10
0.0000
 20
0.0000
 30
0.0000
 40
0.0762
 41
0.0762
 70
0
  0
VERTEX
  8
21
 10
8.3370
 20
13.1261
 30
0.0000
 42
1.0000
  0
VERTEX
  8
21
 10
8.3370
 20
13.0499
 30
0.0000
  0
SEQEND
  8
0
  0
POLYLINE
  8
21
 66
1
 10
0.0000
 20
0.0000
 30
0.0000
 40
0.1524
 41
0.1524
 70
0
  0
VERTEX
  8
21
 10
8.3370
 20
13.0880
 30
0.0000
  0
VERTEX
  8
21
 10
8.3370
 20
11.5640
 30
0.0000
  0
SEQEND
  8
0
  0
POLYLINE
  8
21
 66
1
 10
0.0000
 20
0.0000
 30
0.0000
 40
0.0762
 41
0.0762
 70
0
  0
VERTEX
  8
21
 10
8.2989
 20
11.5640
 30
0.0000
 42
1.0000
  0
VERTEX
  8
21
 10
8.3751
 20
11.5640
 30
0.0000
  0
SEQEND
  8
0
  0
POLYLINE
  8
21
 66
1
 10
0.0000
 20
0.0000
 30
0.0000
 40
0.0762
 41
0.0762
 70
0
  0
VERTEX
  8
21
 10
8.3751
 20
13.0880
 30
0.0000
 42
1.0000
  0
VERTEX
  8
21
 10
8.2989
 20
13.0880
 30
0.0000
  0
SEQEND
  8
0
  0
POLYLINE
  8
21
 66
1
 10
0.0000
 20
0.0000
 30
0.0000
 40
0.1524
 41
0.1524
 70
0
  0
VERTEX
  8
21
 10
8.5910
 20
11.5640
 30
0.0000
  0
VERTEX
  8
21
 10
8.3370
 20
11.5640
 30
0.0000
  0
SEQEND
  8
0
  0
POLYLINE
  8
21
 66
1
 10
0.0000
 20
0.0000
 30
0.0000
 40
0.0762
 41
0.0762
 70
0
  0
VERTEX
  8
21
 10
8.3370
 20
11.6021
 30
0.0000
 42
1.0000
  0
VERTEX
  8
21
 10
8.3370
 20
11.5259
 30
0.0000
  0
SEQEND
  8
0
  0
POLYLINE
  8
21
 66
1
 10
0.0000
 20
0.0000
 30
0.0000
 40
0.0762
 41
0.0762
 70
0
  0
VERTEX
  8
21
 10
8.5910
 20
11.5259
 30
0.0000
 42
1.0000
  0
VERTEX
  8
21
 10
8.5910
 20
11.6021
 30
0.0000
  0
SEQEND
  8
0
  0
POLYLINE
  8
21
 66
1
 10
0.0000
 20
0.0000
 30
0.0000
 40
0.1524
 41
0.1524
 70
0
  0
VERTEX
  8
21
 10
14.9410
 20
11.5640
 30
0.0000
  0
VERTEX
  8
21
 10
14.6870
 20
11.5640
 30
0.0000
  0
SEQEND
  8
0
  0
POLYLINE
  8
21
 66
1
 10
0.0000
 20
0.0000
 30
0.0000
 40
0.0762
 41
0.0762
 70
0
  0
VERTEX
  8
21
 10
14.6870
 20
11.6021
 30
0.0000
 42
1.0000
  0
VERTEX
  8
21
 10
14.6870
 20
11.5259
 30
0.0000
  0
SEQEND
  8
0
  0
POLYLINE
  8
21
 66
1
 10
0.0000
 20
0.0000
 30
0.0000
 40
0.0762
 41
0.0762
 70
0
  0
VERTEX
  8
21
 10
14.9410
 20
11.5259
 30
0.0000
 42
1.0000
  0
VERTEX
  8
21
 10
14.9410
 20
11.6021
 30
0.0000
  0
SEQEND
  8
0
  0
POLYLINE
  8
21
 66
1
 10
0.0000
 20
0.0000
 30
0.0000
 40
0.1524
 41
0.1524
 70
0
  0
VERTEX
  8
21
 10
14.9410
 20
11.5640
 30
0.0000
  0
VERTEX
  8
21
 10
14.9410
 20
13.0880
 30
0.0000
  0
SEQEND
  8
0
  0
POLYLINE
  8
21
 66
1
 10
0.0000
 20
0.0000
 30
0.0000
 40
0.0762
 41
0.0762
 70
0
  0
VERTEX
  8
21
 10
14.9791
 20
13.0880
 30
0.0000
 42
1.0000
  0
VERTEX
  8
21
 10
14.9029
 20
13.0880
 30
0.0000
  0
SEQEND
  8
0
  0
POLYLINE
  8
21
 66
1
 10
0.0000
 20
0.0000
 30
0.0000
 40
0.0762
 41
0.0762
 70
0
  0
VERTEX
  8
21
 10
14.9029
 20
11.5640
 30
0.0000
 42
1.0000
  0
VERTEX
  8
21
 10
14.9791
 20
11.5640
 30
0.0000
  0
SEQEND
  8
0
  0
POLYLINE
  8
21
 66
1
 10
0.0000
 20
0.0000
 30
0.0000
 40
0.1524
 41
0.1524
 70
0
  0
VERTEX
  8
21
 10
14.6870
 20
13.0880
 30
0.0000
  0
VERTEX
  8
21
 10
14.9410
 20
13.0880
 30
0.0000
  0
SEQEND
  8
0
  0
POLYLINE
  8
21
 66
1
 10
0.0000
 20
0.0000
 30
0.0000
 40
0.0762
 41
0.0762
 70
0
  0
VERTEX
  8
21
 10
14.9410
 20
13.0499
 30
0.0000
 42
1.0000
  0
VERTEX
  8
21
 10
14.9410
 20
13.1261
 30
0.0000
  0
SEQEND
  8
0
  0
POLYLINE
  8
21
 66
1
 10
0.0000
 20
0.0000
 30
0.0000
 40
0.0762
 41
0.0762
 70
0
  0
VERTEX
  8
21
 10
14.6870
 20
13.1261
 30
0.0000
 42
1.0000
  0
VERTEX
  8
21
 10
14.6870
 20
13.0499
 30
0.0000
  0
SEQEND
  8
0
  0
POLYLINE
  8
21
 66
1
 10
0.0000
 20
0.0000
 30
0.0000
 40
0.0508
 41
0.0508
 70
0
  0
VERTEX
  8
21
 10
12.9090
 20
9.2780
 30
0.0000
  0
VERTEX
  8
21
 10
12.9090
 20
9.5320
 30
0.0000
  0
SEQEND
  8
0
  0
POLYLINE
  8
21
 66
1
 10
0.0000
 20
0.0000
 30
0.0000
 40
0.0254
 41
0.0254
 70
0
  0
VERTEX
  8
21
 10
12.9217
 20
9.5320
 30
0.0000
 42
1.0000
  0
VERTEX
  8
21
 10
12.8963
 20
9.5320
 30
0.0000
  0
SEQEND
  8
0
  0
POLYLINE
  8
21
 66
1
 10
0.0000
 20
0.0000
 30
0.0000
 40
0.0254
 41
0.0254
 70
0
  0
VERTEX
  8
21
 10
12.8963
 20
9.2780
 30
0.0000
 42
1.0000
  0
VERTEX
  8
21
 10
12.9217
 20
9.2780
 30
0.0000
  0
SEQEND
  8
0
  0
POLYLINE
  8
21
 66
1
 10
0.0000
 20
0.0000
 30
0.0000
 40
0.0508
 41
0.0508
 70
0
  0
VERTEX
  8
21
 10
10.3690
 20
9.5320
 30
0.0000
  0
VERTEX
  8
21
 10
12.9090
 20
9.5320
 30
0.0000
  0
SEQEND
  8
0
  0
POLYLINE
  8
21
 66
1
 10
0.0000
 20
0.0000
 30
0.0000
 40
0.0254
 41
0.0254
 70
0
  0
VERTEX
  8
21
 10
12.9090
 20
9.5193
 30
0.0000
 42
1.0000
  0
VERTEX
  8
21
 10
12.9090
 20
9.5447
 30
0.0000
  0
SEQEND
  8
0
  0
POLYLINE
  8
21
 66
1
 10
0.0000
 20
0.0000
 30
0.0000
 40
0.0254
 41
0.0254
 70
0
  0
VERTEX
  8
21
 10
10.3690
 20
9.5447
 30
0.0000
 42
1.0000
  0
VERTEX
  8
21
 10
10.3690
 20
9.5193
 30
0.0000
  0
SEQEND
  8
0
  0
POLYLINE
  8
21
 66
1
 10
0.0000
 20
0.0000
 30
0.0000
 40
0.0508
 41
0.0508
 70
0
  0
VERTEX
  8
21
 10
10.3690
 20
9.5320
 30
0.0000
  0
VERTEX
  8
21
 10
10.3690
 20
9.2780
 30
0.0000
  0
SEQEND
  8
0
  0
POLYLINE
  8
21
 66
1
 10
0.0000
 20
0.0000
 30
0.0000
 40
0.0254
 41
0.0254
 70
0
  0
VERTEX
  8
21
 10
10.3563
 20
9.2780
 30
0.0000
 42
1.0000
  0
VERTEX
  8
21
 10
10.3817
 20
9.2780
 30
0.0000
  0
SEQEND
  8
0
  0
POLYLINE
  8
21
 66
1
 10
0.0000
 20
0.0000
 30
0.0000
 40
0.0254
 41
0.0254
 70
0
  0
VERTEX
  8
21
 10
10.3817
 20
9.5320
 30
0.0000
 42
1.0000
  0
VERTEX
  8
21
 10
10.3563
 20
9.5320
 30
0.0000
  0
SEQEND
  8
0
  0
POLYLINE
  8
21
 66
1
 10
0.0000
 20
0.0000
 30
0.0000
 40
0.0508
 41
0.0508
 70
0
  0
VERTEX
  8
21
 10
10.4960
 20
15.1200
 30
0.0000
  0
VERTEX
  8
21
 10
12.9090
 20
15.1200
 30
0.0000
  0
SEQEND
  8
0
  0
POLYLINE
  8
21
 66
1
 10
0.0000
 20
0.0000
 30
0.0000
 40
0.0254
 41
0.0254
 70
0
  0
VERTEX
  8
21
 10
12.9090
 20
15.1073
 30
0.0000
 42
1.0000
  0
VERTEX
  8
21
 10
12.9090
 20
15.1327
 30
0.0000
  0
SEQEND
  8
0
  0
POLYLINE
  8
21
 66
1
 10
0.0000
 20
0.0000
 30
0.0000
 40
0.0254
 41
0.0254
 70
0
  0
VERTEX
  8
21
 10
10.4960
 20
15.1327
 30
0.0000
 42
1.0000
  0
VERTEX
  8
21
 10
10.4960
 20
15.1073
 30
0.0000
  0
SEQEND
  8
0
  0
POLYLINE
  8
21
 66
1
 10
0.0000
 20
0.0000
 30
0.0000
 40
0.0508
 41
0.0508
 70
0
  0
VERTEX
  8
21
 10
10.4960
 20
15.1200
 30
0.0000
  0
VERTEX
  8
21
 10
10.4960
 20
15.3740
 30
0.0000
  0
SEQEND
  8
0
  0
POLYLINE
  8
21
 66
1
 10
0.0000
 20
0.0000
 30
0.0000
 40
0.0254
 41
0.0254
 70
0
  0
VERTEX
  8
21
 10
10.5087
 20
15.3740
 30
0.0000
 42
1.0000
  0
VERTEX
  8
21
 10
10.4833
 20
15.3740
 30
0.0000
  0
SEQEND
  8
0
  0
POLYLINE
  8
21
 66
1
 10
0.0000
 20
0.0000
 30
0.0000
 40
0.0254
 41
0.0254
 70
0
  0
VERTEX
  8
21
 10
10.4833
 20
15.1200
 30
0.0000
 42
1.0000
  0
VERTEX
  8
21
 10
10.5087
 20
15.1200
 30
0.0000
  0
SEQEND
  8
0
  0
POLYLINE
  8
21
 66
1
 10
0.0000
 20
0.0000
 30
0.0000
 40
0.0508
 41
0.0508
 70
0
  0
VERTEX
  8
21
 10
12.9090
 20
15.1200
 30
0.0000
  0
VERTEX
  8
21
 10
12.9090
 20
15.3740
 30
0.0000
  0
SEQEND
  8
0
  0
POLYLINE
  8
21
 66
1
 10
0.0000
 20
0.0000
 30
0.0000
 40
0.0254
 41
0.0254
 70
0
  0
VERTEX
  8
21
 10
12.9217
 20
15.3740
 30
0.0000
 42
1.0000
  0
VERTEX
  8
21
 10
12.8963
 20
15.3740
 30
0.0000
  0
SEQEND
  8
0
  0
POLYLINE
  8
21
 66
1
 10
0.0000
 20
0.0000
 30
0.0000
 40
0.0254
 41
0.0254
 70
0
  0
VERTEX
  8
21
 10
12.8963
 20
15.1200
 30
0.0000
 42
1.0000
  0
VERTEX
  8
21
 10
12.9217
 20
15.1200
 30
0.0000
  0
SEQEND
  8
0
  0
POLYLINE
  8
21
 66
1
 10
0.0000
 20
0.0000
 30
0.0000
 40
0.1524
 41
0.1524
 70
0
  0
VERTEX
  8
21
 10
13.7980
 20
15.3740
 30
0.0000
  0
VERTEX
  8
21
 10
12.9090
 20
15.3740
 30
0.0000
  0
SEQEND
  8
0
  0
POLYLINE
  8
21
 66
1
 10
0.0000
 20
0.0000
 30
0.0000
 40
0.0762
 41
0.0762
 70
0
  0
VERTEX
  8
21
 10
12.9090
 20
15.4121
 30
0.0000
 42
1.0000
  0
VERTEX
  8
21
 10
12.9090
 20
15.3359
 30
0.0000
  0
SEQEND
  8
0
  0
POLYLINE
  8
21
 66
1
 10
0.0000
 20
0.0000
 30
0.0000
 40
0.0762
 41
0.0762
 70
0
  0
VERTEX
  8
21
 10
13.7980
 20
15.3359
 30
0.0000
 42
1.0000
  0
VERTEX
  8
21
 10
13.7980
 20
15.4121
 30
0.0000
  0
SEQEND
  8
0
  0
POLYLINE
  8
21
 66
1
 10
0.0000
 20
0.0000
 30
0.0000
 40
0.1524
 41
0.1524
 70
0
  0
VERTEX
  8
21
 10
9.4800
 20
9.2780
 30
0.0000
  0
VERTEX
  8
21
 10
10.3690
 20
9.2780
 30
0.0000
  0
SEQEND
  8
0
  0
POLYLINE
  8
21
 66
1
 10
0.0000
 20
0.0000
 30
0.0000
 40
0.0762
 41
0.0762
 70
0
  0
VERTEX
  8
21
 10
10.3690
 20
9.2399
 30
0.0000
 42
1.0000
  0
VERTEX
  8
21
 10
10.3690
 20
9.3161
 30
0.0000
  0
SEQEND
  8
0
  0
POLYLINE
  8
21
 66
1
 10
0.0000
 20
0.0000
 30
0.0000
 40
0.0762
 41
0.0762
 70
0
  0
VERTEX
  8
21
 10
9.4800
 20
9.3161
 30
0.0000
 42
1.0000
  0
VERTEX
  8
21
 10
9.4800
 20
9.2399
 30
0.0000
  0
SEQEND
  8
0
  0
POLYLINE
  8
21
 66
1
 10
0.0000
 20
0.0000
 30
0.0000
 40
0.1524
 41
0.1524
 70
0
  0
VERTEX
  8
21
 10
10.3690
 20
9.2780
 30
0.0000
  0
VERTEX
  8
21
 10
12.9090
 20
9.2780
 30
0.0000
  0
SEQEND
  8
0
  0
POLYLINE
  8
21
 66
1
 10
0.0000
 20
0.0000
 30
0.0000
 40
0.0762
 41
0.0762
 70
0
  0
VERTEX
  8
21
 10
12.9090
 20
9.2399
 30
0.0000
 42
1.0000
  0
VERTEX
  8
21
 10
12.9090
 20
9.3161
 30
0.0000
  0
SEQEND
  8
0
  0
POLYLINE
  8
21
 66
1
 10
0.0000
 20
0.0000
 30
0.0000
 40
0.0762
 41
0.0762
 70
0
  0
VERTEX
  8
21
 10
10.3690
 20
9.3161
 30
0.0000
 42
1.0000
  0
VERTEX
  8
21
 10
10.3690
 20
9.2399
 30
0.0000
  0
SEQEND
  8
0
  0
POLYLINE
  8
21
 66
1
 10
0.0000
 20
0.0000
 30
0.0000
 40
0.1524
 41
0.1524
 70
0
  0
VERTEX
  8
21
 10
12.9090
 20
9.2780
 30
0.0000
  0
VERTEX
  8
21
 10
13.7980
 20
9.2780
 30
0.0000
  0
SEQEND
  8
0
  0
POLYLINE
  8
21
 66
1
 10
0.0000
 20
0.0000
 30
0.0000
 40
0.0762
 41
0.0762
 70
0
  0
VERTEX
  8
21
 10
13.7980
 20
9.2399
 30
0.0000
 42
1.0000
  0
VERTEX
  8
21
 10
13.7980
 20
9.3161
 30
0.0000
  0
SEQEND
  8
0
  0
POLYLINE
  8
21
 66
1
 10
0.0000
 20
0.0000
 30
0.0000
 40
0.0762
 41
0.0762
 70
0
  0
VERTEX
  8
21
 10
12.9090
 20
9.3161
 30
0.0000
 42
1.0000
  0
VERTEX
  8
21
 10
12.9090
 20
9.2399
 30
0.0000
  0
SEQEND
  8
0
  0
POLYLINE
  8
21
 66
1
 10
0.0000
 20
0.0000
 30
0.0000
 40
0.1524
 41
0.1524
 70
0
  0
VERTEX
  8
21
 10
12.9090
 20
15.3740
 30
0.0000
  0
VERTEX
  8
21
 10
10.4960
 20
15.3740
 30
0.0000
  0
SEQEND
  8
0
  0
POLYLINE
  8
21
 66
1
 10
0.0000
 20
0.0000
 30
0.0000
 40
0.0762
 41
0.0762
 70
0
  0
VERTEX
  8
21
 10
10.4960
 20
15.4121
 30
0.0000
 42
1.0000
  0
VERTEX
  8
21
 10
10.4960
 20
15.3359
 30
0.0000
  0
SEQEND
  8
0
  0
POLYLINE
  8
21
 66
1
 10
0.0000
 20
0.0000
 30
0.0000
 40
0.0762
 41
0.0762
 70
0
  0
VERTEX
  8
21
 10
12.9090
 20
15.3359
 30
0.0000
 42
1.0000
  0
VERTEX
  8
21
 10
12.9090
 20
15.4121
 30
0.0000
  0
SEQEND
  8
0
  0
POLYLINE
  8
21
 66
1
 10
0.0000
 20
0.0000
 30
0.0000
 40
0.1524
 41
0.1524
 70
0
  0
VERTEX
  8
21
 10
10.4960
 20
15.3740
 30
0.0000
  0
VERTEX
  8
21
 10
9.4800
 20
15.3740
 30
0.0000
  0
SEQEND
  8
0
  0
POLYLINE
  8
21
 66
1
 10
0.0000
 20
0.0000
 30
0.0000
 40
0.0762
 41
0.0762
 70
0
  0
VERTEX
  8
21
 10
9.4800
 20
15.4121
 30
0.0000
 42
1.0000
  0
VERTEX
  8
21
 10
9.4800
 20
15.3359
 30
0.0000
  0
SEQEND
  8
0
  0
POLYLINE
  8
21
 66
1
 10
0.0000
 20
0.0000
 30
0.0000
 40
0.0762
 41
0.0762
 70
0
  0
VERTEX
  8
21
 10
10.4960
 20
15.3359
 30
0.0000
 42
1.0000
  0
VERTEX
  8
21
 10
10.4960
 20
15.4121
 30
0.0000
  0
SEQEND
  8
0
  0
POLYLINE
  8
21
 66
1
 10
0.0000
 20
0.0000
 30
0.0000
 40
0.1524
 41
0.1524
 70
0
  0
VERTEX
  8
21
 10
8.5910
 20
13.0880
 30
0.0000
  0
VERTEX
  8
21
 10
8.5910
 20
13.3420
 30
0.0000
  0
SEQEND
  8
0
  0
POLYLINE
  8
21
 66
1
 10
0.0000
 20
0.0000
 30
0.0000
 40
0.0762
 41
0.0762
 70
0
  0
VERTEX
  8
21
 10
8.6291
 20
13.3420
 30
0.0000
 42
1.0000
  0
VERTEX
  8
21
 10
8.5529
 20
13.3420
 30
0.0000
  0
SEQEND
  8
0
  0
POLYLINE
  8
21
 66
1
 10
0.0000
 20
0.0000
 30
0.0000
 40
0.0762
 41
0.0762
 70
0
  0
VERTEX
  8
21
 10
8.5529
 20
13.0880
 30
0.0000
 42
1.0000
  0
VERTEX
  8
21
 10
8.6291
 20
13.0880
 30
0.0000
  0
SEQEND
  8
0
  0
POLYLINE
  8
21
 66
1
 10
0.0000
 20
0.0000
 30
0.0000
 40
0.1524
 41
0.1524
 70
0
  0
VERTEX
  8
21
 10
8.5910
 20
11.5640
 30
0.0000
  0
VERTEX
  8
21
 10
8.5910
 20
11.3100
 30
0.0000
  0
SEQEND
  8
0
  0
POLYLINE
  8
21
 66
1
 10
0.0000
 20
0.0000
 30
0.0000
 40
0.0762
 41
0.0762
 70
0
  0
VERTEX
  8
21
 10
8.5529
 20
11.3100
 30
0.0000
 42
1.0000
  0
VERTEX
  8
21
 10
8.6291
 20
11.3100
 30
0.0000
  0
SEQEND
  8
0
  0
POLYLINE
  8
21
 66
1
 10
0.0000
 20
0.0000
 30
0.0000
 40
0.0762
 41
0.0762
 70
0
  0
VERTEX
  8
21
 10
8.6291
 20
11.5640
 30
0.0000
 42
1.0000
  0
VERTEX
  8
21
 10
8.5529
 20
11.5640
 30
0.0000
  0
SEQEND
  8
0
  0
POLYLINE
  8
21
 66
1
 10
0.0000
 20
0.0000
 30
0.0000
 40
0.1524
 41
0.1524
 70
0
  0
VERTEX
  8
21
 10
14.6870
 20
13.0880
 30
0.0000
  0
VERTEX
  8
21
 10
14.6870
 20
13.3420
 30
0.0000
  0
SEQEND
  8
0
  0
POLYLINE
  8
21
 66
1
 10
0.0000
 20
0.0000
 30
0.0000
 40
0.0762
 41
0.0762
 70
0
  0
VERTEX
  8
21
 10
14.7251
 20
13.3420
 30
0.0000
 42
1.0000
  0
VERTEX
  8
21
 10
14.6489
 20
13.3420
 30
0.0000
  0
SEQEND
  8
0
  0
POLYLINE
  8
21
 66
1
 10
0.0000
 20
0.0000
 30
0.0000
 40
0.0762
 41
0.0762
 70
0
  0
VERTEX
  8
21
 10
14.6489
 20
13.0880
 30
0.0000
 42
1.0000
  0
VERTEX
  8
21
 10
14.7251
 20
13.0880
 30
0.0000
  0
SEQEND
  8
0
  0
POLYLINE
  8
21
 66
1
 10
0.0000
 20
0.0000
 30
0.0000
 40
0.1524
 41
0.1524
 70
0
  0
VERTEX
  8
21
 10
14.6870
 20
11.5640
 30
0.0000
  0
VERTEX
  8
21
 10
14.6870
 20
11.3100
 30
0.0000
  0
SEQEND
  8
0
  0
POLYLINE
  8
21
 66
1
 10
0.0000
 20
0.0000
 30
0.0000
 40
0.0762
 41
0.0762
 70
0
  0
VERTEX
  8
21
 10
14.6489
 20
11.3100
 30
0.0000
 42
1.0000
  0
VERTEX
  8
21
 10
14.7251
 20
11.3100
 30
0.0000
  0
SEQEND
  8
0
  0
POLYLINE
  8
21
 66
1
 10
0.0000
 20
0.0000
 30
0.0000
 40
0.0762
 41
0.0762
 70
0
  0
VERTEX
  8
21
 10
14.7251
 20
11.5640
 30
0.0000
 42
1.0000
  0
VERTEX
  8
21
 10
14.6489
 20
11.5640
 30
0.0000
  0
SEQEND
  8
0
  0
POLYLINE
  8
21
 66
1
 10
0.0000
 20
0.0000
 30
0.0000
 40
0.1524
 41
0.1524
 70
0
  0
VERTEX
  8
21
 10
11.6390
 20
10.5480
 30
0.0000
 42
1.0000
  0
VERTEX
  8
21
 10
11.6390
 20
14.1040
 30
0.0000
 42
1.0000
  0
VERTEX
  8
21
 10
11.6390
 20
10.5480
 30
0.0000
  0
SEQEND
  8
0
  0
POLYLINE
  8
21
 66
1
 10
0.0000
 20
0.0000
 30
0.0000
 40
0.1524
 41
0.1524
 70
0
  0
VERTEX
  8
21
 10
11.6390
 20
12.0720
 30
0.0000
 42
1.0000
  0
VERTEX
  8
21
 10
11.6390
 20
12.5800
 30
0.0000
 42
1.0000
  0
VERTEX
  8
21
 10
11.6390
 20
12.0720
 30
0.0000
  0
SEQEND
  8
0
  0
INSERT
  8
17
  2
LONGP100
 10
14.8902
 20
10.0654
 30
0.0000
 41
1.5240
 42
1.5240
 43
1.0000
 50
180.0000
  0
INSERT
  8
17
  2
LONGP100
 10
14.8902
 20
10.0654
 30
0.0000
 41
1.5240
 42
1.5240
 43
1.0000
 50
180.0000
  0
INSERT
  8
17
  2
LONGP100
 10
8.3878
 20
10.0654
 30
0.0000
 41
1.5240
 42
1.5240
 43
1.0000
 50
180.0000
  0
INSERT
  8
17
  2
LONGP100
 10
8.3878
 20
10.0654
 30
0.0000
 41
1.5240
 42
1.5240
 43
1.0000
 50
180.0000
  0
INSERT
  8
17
  2
LONGP100
 10
14.8902
 20
14.5866
 30
0.0000
 41
1.5240
 42
1.5240
 43
1.0000
 50
180.0000
  0
INSERT
  8
17
  2
LONGP100
 10
14.8902
 20
14.5866
 30
0.0000
 41
1.5240
 42
1.5240
 43
1.0000
 50
180.0000
  0
INSERT
  8
17
  2
LONGP100
 10
8.3878
 20
14.5866
 30
0.0000
 41
1.5240
 42
1.5240
 43
1.0000
 50
180.0000
  0
INSERT
  8
17
  2
LONGP100
 10
8.3878
 20
14.5866
 30
0.0000
 41
1.5240
 42
1.5240
 43
1.0000
 50
180.0000
  0
ENDSEC
  0
EOF
